<mxfile host="app.diagrams.net" modified="2023-02-21T08:19:40.251Z" agent="5.0 (Windows NT 10.0; Win64; x64) AppleWebKit/537.36 (KHTML, like Gecko) Chrome/110.0.0.0 Safari/537.36" etag="boWiGtaDtmZVEt0tkL9k" version="20.8.20" type="github">
  <diagram id="2_toNKC-bKN_9-tmn7S4" name="Page-1">
    <mxGraphModel dx="1834" dy="699" grid="1" gridSize="10" guides="1" tooltips="1" connect="1" arrows="1" fold="1" page="0" pageScale="1" pageWidth="850" pageHeight="1100" math="0" shadow="0">
      <root>
        <mxCell id="0" />
        <mxCell id="1" parent="0" />
        <mxCell id="79CWCTIytuqyBhmsyid--1" value="" style="shape=image;verticalLabelPosition=bottom;labelBackgroundColor=default;verticalAlign=top;aspect=fixed;imageAspect=0;image=data:image/png,iVBORw0KGgoAAAANSUhEUgAAA8EAAADDCAYAAACiaBOWAAAABHNCSVQICAgIfAhkiAAAABl0RVh0U29mdHdhcmUAZ25vbWUtc2NyZWVuc2hvdO8Dvz4AACAASURBVHic7N13VBTX28Dx72ylNymiIGCvCPZeECvRGKNRY2KLxBa7CYolJDY09t5bYmxRE2MvqLGH2CtqEAUVFZDe2Xn/QJClifkZja/3c86eZGdn7jxzZ1bm2VtGkmVZRhAEQRAEQRAEQRDeA4q3HYAgCIIgCIIgCIIgvCkiCRYEQRAEQRAEQRDeGyIJFgRBEARBEARBEN4bIgkWBEEQBEEQBEEQ3hsiCRYEQRAEQRAEQRDeGyIJFgRBEARBEARBEN4bIgkWBEEQBEEQBEEQ3hsiCRYEQRAEQRAEQRDeGyIJFgRBEARBEARBEN4bIgkWBEEQBEEQBEEQ3hsiCRYEQRAEQRAEQRDeGyIJFgRBEARBEARBEN4bIgkWBEEQBEEQBEEQ3hsiCRYEQRAEQRAEQRDeGyIJFgRBEARBEARBEN4bIgkWBEEQBEEQBEEQ3hsiCRYEQRAEQRAEQRDeGyIJFgRBEARBEARBEN4bIgkWBEEQBEEQBEEQ3hsiCRYEQRAEQRAEQRDeGyIJFgRBEARBEARBEN4bqrcdgCAIwpuUrpNZeTyYLYGhhD1LwspYQ+uqxRnVsjxmhuq3HZ4gFC4jFY79ACdmg/vn0H7u245IEARBEN45IgkWBOG9oZNh0E/nOH47gtld3WhewZYb4bEM+fk8J29HsH1wQ8wMxD+Lwn/Ug3Pw6yCICwdd+tuORhAEQRDeWaI7tCAI742tf4Vy4PpjRrYqT9uqxTFQK3B3tGBmFzfuPI1nxr6bbztEQcjfvVOwrgPU6AmtJ7/taARBEAThnSaSYEEQ3hsrTwQjSdClpqPe8nqlrXAqZsSWwFDikkULm/AfZFQMBp6A+oNBEn+6BUEQBOF/If6SCoLwXgh7lsTtx/GUtjbGwijv2N+aTpakZug4eSfiLUQnCC9hUwEsXd52FO8NOWotXgYSklTwS2ndlz2pbzvSl8sIWkzbksWoNuIgMXLB6+nuzqWxVoXLiBOkvUL5RdpOjubA8GoUK9mOxUEZr1B6Kvu9bVEatGHlk4KDz4xBSYmBh0il6Mf8j47lX5FB0PS6aFTODPvjze75lckRrG5ngML0U3akvO1gBOGfE4PfBEF4LwSFxwHgYGmU7+dZy2+Gx9GmavE3FpcgCP89kkFVOg0fRaXnHUPiL25lZcBDyrb/ig/KKTPXMa5DaeVr2mHCJj627s6eDzYTtfUTDF9TsQByajzR8fHExiSSeTjpnJ/gRl1/Bb5/nee76m/iVjCDpJhY4uOjiX8DPxzkPebX7F88X4IgvBkiCRYE4b3wNC7zJ2vzAmaAzloeES9+2haE955RLb7wr/X8jY6wRedZE/CU6j39mfmx9q2G9qpU1b7hVOQIdCo1rytnf2VSMT5cE0z8CgVqlfSv7+4/ccyCIPynvRPdoTdv3oyTkxOSJLF06dK3Hc477dixYzg7O6NUKhkzZsz/XN706dMpWbIkkiSxb9++V9o2JSUFZ2dnjI2NqVev3v8ciyAUJjk9swueSpn/DZhamfnPYVLqq3TVEwThfZdwYwvjOtfBuZgxhuaO1PhoDJtvJDz/NI6AIeVQq0oz+FDc82U6ghe1wExpSZtlISTt6oWVaXe2J0PyL10xkjTUnR5Enn+J0k4yqowKddUJXMhq3kw7wYjSKiRtI+YE654vjOfXz4qhNGjOwlAdurtzaWJsgOPAQ6Rm3GJGPSNqTr5GevoVvndTo7Doye85f/vTPePMnG7UKGGC1siaCp7D2XQr+eUVUeh2qez3tsfA2IOFoVlx6nh6Yh59m5TF2tgIyzLNGb71Kj91Mcynq61M6t1tjPQoi6WBAWaOteg24w+eFtDVWe+YsxYmBbF1zIe4lTTH0MQet09m8ceRibiqNdSccl2/vgs5lpSXnK/Cr4fnp+3+XiZ3q4uTpRFG1pXwmrifR4X+6Ynnt57WKLXNWHA/13lWmNLxpyjk5/UUvqINRgoLumyOzlwtI5xj877Es7I95kYm2JSpT9dvtxOUmFX28y7nhu2Z89sUPqpmi5FRVvdzHU+Oz811jv4mT2O+7gkn5vXDo5IdJlotJsWr0Gb4Bq4n5l5REP47XpoEh4eH4+DggLGxMQqFAgcHBxwcHLC0tKRKlSrMnDmTtLR/d/xC165dCQoKyrM8NjYWe3t7Vq1a9Url6XQ6/Pz8+PPPP/N8Nm3aNMqXL/+vH9Pb0rRpU0JCQrCxsXkt5fn4+HD48OEirZv7fGm1WkJCQmjfvn2eddu0aUOvXr30lgUEBDBjxoyXlisI+TFQZbYHpGfkf9eUlpF5Y2GoEe0GgiAUTcadFXzStDszjks09h7HxK9aoD09i0+b92DtPR1gSvOJ/nS1u8/qcYu4lg5y5G98O/UYGXXHMKuvM1o3bxYu7k8NNahrDWTZmpVM9LLPe4OmrklrT1t0t49yLCzz36uMoKMcC8uAtIscOfEsMxFKO8+REzEoXVvjWSJXKYritJuwlOGNjJEkM5qMWsGaxd64ZXeQkYne54P36kTqfv4V/VraEX5kPr0/mcb5Qm+LXn271EvT6dB2BOsuaWnYdyRffWjHiZHdmH4xnw7MGUEs/MKXQIcODPiqK666y2wZ24XBmx9TpCG/8hN29G9J9xn7eFr6I4aO7EOdZ0voOWQ7eYcaF34s6kLO18uvB5BjDjOqVUcmbruLXduBjB7giWr7l3y59j663KFkM6Zx6yYYp58j4HiM3nnWyYmcDjhDZooez6kjf5JiWJ82zcxBjubwqBa0GbGeW3ZefDVmFJ+6xrJ/8ic07b6GkJyJd+oppg1aQ0KjAYyb0AM3Y4nkc1P4oO1I1l02pPEXWefoc+Zcy3mOMgia34V2I3/mfunP8Js7lwkfW3NpYW+8Ru5/pTHZgvBGyUXUq1cv2djYOPu9TqeT16xZIwNy3759i1rMP5aUlCQD8pIlS7KXJSYmynXr1pW3bdv2SmWlpaXJgLxgwYI8ny1fvlxu0aKFnJ6e/j/H/F9mZ2cn+/j4vJaybty4IQPy3r17C12voPPVtWtXuW7dunrLvvjiizzxjRs3Ti5WrFiRyxWEnA5dfyw7+eySe646m+/nsw4EyU4+u+Q5B2+94cgE4RVd+EmWvzWT5Z3D3nYk74kMOXRhc1kjGcqf/JKcY3ms/Hvv4rLSuJE84+qL5Unnv5VraJRymZEn5dTn24csbytbKq3lj34Mlk+NqSKrNdXksWcTXxQVv1HuZIBs0HmznGNpHrHbusuWCmO5w7oIWSdnyGGLPWQDAxe5jINatu61U06QZTn98neym1olV/b9S06TZTkjeI7cSKOQ7QcclFNkWZblNPnc+CqySlVNnngx7cVRBs+RG2mQlWW/kg/HPF+oC5d/+shKVuRaV692irRdiryvn42s0DSTF9zPkGU5Rt7+qbWsUJaWv9wbJeuyquG0j1xNLcmSSXd5e7L8YjvJVPZcdFfOujNLDhwnV1NJsknnzXJcPseY+336tclyTbUkmzSbI99MzQo8VF77YTFZgVquMfmanP4qdZDv+SrK9ZAh31voIRtKWrmW37nsbXVR++QvXZQySid56LFUOT+6h0vllgYK2bbvHjlRluW0S35ydY2FXLq0tawuO1o+lSrLcsoR+StHpaxpPEe+myHL6Tf85TpahWzeeokcnJa9M3lf/9KyUlFS/nJ/wos6VljKXqtC5Qz5xXqbP7GUJVU5efChZ9nnKOHPcbKbJsc50kXKa7y0smTcWd4Ul7VtrPznhrnyyt+vyFE6WRD+k/5xd2hJkujduzdNmjRh7dq1REZGvq68vMgMDQ05c+YMnTp1em1lent7c+jQIZRK0Rr0ur3K+Vq5ciX+/v6vvVzh/VWhuCkAoVH598/KWl7x+XqCIAiFSjvPgYCnKGt35qNSacTHxxMfH096aS+8Kim4f/IEdzMAFDj1/gGfOon87tOSHvODKNVvNmPqvPp0SiZN2tDYKIlTAadJkuM4EfAXcr0hTPrYkdjjR7mQpuPRH0e5oSuJZ+tq/2DiFwUWjdvSyOz5W8ma2vXKoZSfEfmssCa9V9wu7TJ/nH6GomwX+nlakjVIxbh2L7q55hO1uiptWpfKHt+rrVYPd1NIexZJ7EtbGmUiTx3narohHn17Uj6r1VvhQOferTHPM0LmH9ZBka6HZAJPBJKsrsNnvd2yJ9SSLD3o1cm50PHLkp0nrd1VRP4RwKXn5/mmQQt8v22D2f1jHPs7g/QbRzj2SEHVVi1xVMg8OXqQS6nGePb5FBdV9s5o0bcLZRXhBBy49GIWbFUVPD1KvOiBkH6ZE2diUZb/hL5NLbLPkVGNnnRzy3GOJFOquJZGlbgXv14TWfn7KYIiNdT6dBhffFAVy39/CLgg/CP/85hgZ2dndDodDx8+pHPnztmPDggMDKRz586YmJjojeWNjo5mwIABODs7U758eWrVqsWuXbvylLto0SKcnJwwMTGhSZMm3Lx5U+/zoKAgHBwc0Gg0fPbZZ3qf3bp1i44dO+Lk5ISbmxu1a9dm6tSpxMXFcfToUZydnQGYMGFCdvfusLAw+vfvj7W1NZIkcefOnezyZFlm7ty5VKxYkYoVK1KmTBnGjx+v12U6azsHBwfOnz9PzZo1MTExoWnTpvz999+F1mGHDh2wtLREkiSOHj1K3bp1MTY2xtnZWW8M9MKFC7Prd/ny5YwbNw4bGxskSaJbt25FjjWnyZMn4+DggJGREe3btyc0NDT7s7S0NMaNG0fNmjWpWbMm1atXp3fv3jx+/DjfsuLi4ujZsyeWlpZYWVkxdOhQUlJSXnq+cnN1dcXU1BQHBwe9Opo/fz7Pnj3LPmcjR44stNwbN27wwQcf4OLigouLC15eXty4cUNvnUOHDtGgQQNq1KhB9erVad++PXv27Ck0PuHd5GBpSFlbE+5GJhCdmPf7cP7+M9RKiQZlrd9CdIIgvHN0UTyN1JF6dDjlzEwxNX3+sqjDpEtp6CKfEpXVv1VdGe+vWmP06G/uptXAe2hzzAotPH+SlQet62h4dvwIF+PPEnAymSotWvFBq2ZYhB3j2K1nHD/yF+nWLWhdS/OPDkujzbmdhFKpQJJlZLnwbPOVttNFERGpQ1GiFHo9tpXFKWmf362pFv3iFSgVErIs85KwAB1REVHoJEscSpqQMyfT2pfEOp/d/aM6KMr1kJFAdHQqKO0oYat34NgWty38plzhRMvWlZDuHePo31EcP3IORd2WtGnbkoaaqxw5Hk7YH8cIojQtW1VAmXXcCktK2uv/4KIoXpLiCh2REVE5umCrUOXMwnUxPIvWobArgZ1eqDYU14tdTe3x21g3rCG6AH++7NCQSnbFcGrUjyWB0UXrri4Ib8H/nATfuXMHpVKJo6MjS5YsyR6X6ePjQ6dOnTh9+jT169cHID09nTZt2hAYGMjFixe5desWX3/9NR9++CGHDh3KLnPjxo189dVXjBw5koiICFauXMn48eP19luhQgXCwsJwdXXVWx4aGkqDBg0oXrw4d+/e5eLFi/j5+TFhwgSCgoJo1qwZISEhAEyaNImwsDDCwsJwcHBg2bJlrF27Ns8x+vj4MHnyZH755Rdu3rzJsWPH2Lhxo17SdeHCBby9vUlOTsbf359Fixaxa9cu7t27x6BBgwqtw507dzJt2jQAfH19+fHHH4mMjGTo0KEMHDiQX375BYBevXpx7do1AJYtW4ahoSFHjhzRK78osWbZtGkTRkZG3Llzh8uXLxMcHIyXlxc6XeY/iQkJCSxbtoxt27Zx7tw5zp8/j5WVFZ07d873D8GkSZP47LPPePr0KZs3b2bNmjWMGjWq0POVn8uXL9O/f/88dTR06FAsLS2zz9ns2bMLLPf+/fs0bNiQ4sWLExwcTHBwME5OTjRp0iQ7iX/48CEdOnTg+++/5/z581y4cIEyZcqwePHil8YovJu+aOSCLMPWc6F6y88ER3EvMpEutRwxMxCT5guCUAQKC4pZSqiqDGLjseMcP67/OrZxEFWy/jlJu8by+ftJMCuGlXye5fMC/tlYSYU9nq2rowg9xsHth/gjqhTNW5THtEFLGhtc48jBnRw+mYhJ0zY0zP9pcP8NkgmmphK6yCdE5BwIq4siIvJ1p00SJqYmSHIsTyP1Z/9Pj4wg+nXtrijXg9oYSwsNZITz4HHOA8/g8cPwQsYEA6io1MoTZ91VjhzYxeGTqVTzbE7xYs3wrCnz5+G97As4R0bxFrSurgIUWFpbodA941G4/sRmuscPeaxTYGVtWXAioDDH0kKBLjyMR3qhPuZheK5IjSrRfc5+gp5Gcu9iABv9O2F5eTVDOo3hUFIR608Q3rB/nASnpKSwcOFCTp06xeDBg7GwsMDGxgZbW1sgs+Xu008/pVq1aixcuJDGjRuzdetWzp49i5+fHxYWFkDmpFe1a9fGz88vu2w/Pz9q1arFsGHDMDAwoHz58gwcOLBIcU2ZMoWEhAT8/f1RKDIPz8vLCw8Pj+z3ryIr2fL29qZq1aoAODg44OPjw5YtWzh79iwAjo6OmJmZERkZyffff0+9evVo1qwZ3t7eHD169KW/oGYZN24c5cuXx8DAgJEjR+Lu7p5dN6amppQqVSp7f+PHj6dq1apMnDiRvn37FjnWLDY2NowcORIDAwPKli3LtGnTuHLlCtu3bwfAzMyMc+fOZbecK5VK+vfvz4kTJ/KdqKx169a0atUKlUpFy5Yt8fb2Zvny5Tx8+PDVKv01mDJlCvHx8UyfPj279XzatGnExcWxYMECIDPZTkpKonTp0gAoFAq++eYbPvzwwzcer/BmdK1dihaVbJl94BZ7r4aTnKbjQmg0X2+9SGlrY3zaVHzbIQpCwVJiITka0p536c9IzXyfHA1y4bfPwr9AXQOPJlbogs9z16o2jRo1ynzVtibi/EX+jgeNBJBB8MoR+Aeq8Zh2mJ+9S3Fv1QimnckxNEN63j6ZkkzhD2lTUrplS8rLl1k/5Rf+tmyGp5sazJvQso7EqQVT2ftUS8M2TQttaZYkCUgh+W09EU5djfo1jcm4sZ1N517UQ+qNrfxy4XVPTKqgeJ06uCgTCNiwgwdZXxU5kn2bD7xorX8V+Z2vIl0PBtRuUgeDtEB+XH2erCOXI/ezevv9vDOC56J2b0MLu1ROzp/CvmcutPAojVJRkuYtKpJ0eBo/HE3C0qMNdbQAEnZNW+CqTuDQ+i3czypcjuGP9du4o7OjuWd18n9oIKCqTuP65uhubWX1kRctuvF/rmXj5RwTY+lC2DPjawZP3s1jpSmO1ZvT9ev5jG6uRff0DncK7UYvCG/PK2WFiYmJODs74+zsjIuLCz///DPLly9nzpw5edZt2LBh9v/XqFGDKlWqZM8i3KBBA7113d3dOXPmDImJiURFRXHr1q3s1uMsNWvWLFKMhw4domzZstlJdpaDBw9So0aNIpWR09GjR8nIyKB27dp6y+vUqZO9v5xMTEyoWPHFjbSDgwOpqalER0cXaX+1atXSe9+gQQOuXbtGXFyc3vKc9WtnZ0erVq1eOdb89gVw+vRpIDMpvH79Op6entnnvUWLFgAEBwcXKfa0tDTOnTtX+EH/Cw4fPkyFChUoVqxY9jJzc3NcXFyyr0M3NzdMTU1p3rw5s2bN4v79+5QoUQJvb+83Hq/wZigkWPZ5LYa0KMeMfTep5reP/uv/onlFW3YMbljgM4QF4T9hfg3wd4LdozPfX9yQ+d7fCZ6FvNXQ3k/mtB8/gWaGfzLRsym9fKcz54cJ9G3Rgk9G+LHpFqgB3aPNfOMXQIr7SGZ8UZ1W307lY8ubzB8+h8tZz5rRlKa8k4qUA350/mI4S04nFLhXVZXWtHTUEXw7BKNGntQ3BCQ7mnlWIy34Do9UtWjtYU3BQzGVOJQrg1HGHVYO+JTB3+0g+E0/GU6yodPXA6iiuMrMDi3oM34GP/j1p9UHy3lk9fqf3qmqORCftsV4tnMQHh8OZ8pMf77u0pxhx5SY/pPd5Xu+inI9KHDoMY4vK8CFqe1o+uloJk4YwodNBnLW1OHlzzQ2qEeb5uYk/X2HcNvmeFZTAUoqtPDA4VkwwTHGNGnTiKxOAMqKA5javwKJe4fQrN0gvp02mdHdmtJ5cTDFvCYxtqVxwfuSLOjgM4JaBn+zrEsjOg2dwMSRXWn6yW4olSNSyZTUqxtZ9m1PvHp9y7wlC5k2uBO+e1MxrdeeFnZiULDw3/RKX30jIyNCQkIICQnh4cOHnDp1Cm9v73xbWC0tLfMsi4iIADIT2qykytnZmR07dmBiYsLjx4959OhRvtvnTmoLEhERgZWV1asc1kvLyy+erH1kfZ7F3Nxc733WBFsZGUX7C5N7+6z95G5NLax+/2msufcVEBCAl5cXTZo04datW4SEhHDixAkAUlPzPCWuyLG/CREREdy5c0fvOnN2dubp06fExsYCULx4cQIDA2nWrBkTJ07EycmJ5s2bc+XKlTcer/DmqBQSg5qV4cjoZtye0o4/x3ny/YdVRQIs/Pd9fQf8YvJ/WZV+29G9l9SVhvDrkbUMrZ3C4YUT+WbCAg4l1mTI2gA2e7ugkJ+xd8JYfo0qjfcPI3HTgGTXmakTmqH+awbDl93JbP1T1WLMuh/oXkPBxY0rWXnwNvk8KCiTpiatW9igkLTUbdnkeYuvkjIeHpRWgapqa1o6FHZ7J2HTbQ5rRrSi5ON9rFqwlXPxr7deisK40RT2/DaJzi7h/DprIpPX3aDSdxsYW0MNSIUk8f+AwonePx1g5ZBGqAJX8v3EOezL6MqKhV2xVbxo2C2yAs7XS68HQDJrzox92/Hr5MTjPYuYueQQus4rWftl6ZcnwRjTuE1jjCQJ8yYtn7f4gtrdk2bWCiSD+rRp/mISKyRLPGcfZt+sHriEbmfO99NYG2iA57jNHNvUl9Iv2aHW3Zff98zi82pJ/LFyJvN/fUrTeZvx0ZsYqxgdF+9j3fD6pAfM5Zuho/H/LZJqXy7iwLahlBfzzAr/UW908Ju1deaEM9evX8fIKP/BKlFRUXr/zVLUllRra2uePXv2P0SZt7z84sl6n/X56xITE4OBgUH2+6xZt0uUKPHSbV811piYGL33ufe1ceNGNBoN48ePL1JX8peV9yZZW1tTrFixPF3Ac6tQoQLr1q1j0aJFbNy4kfHjx9O6dWvu37+PSiXGhgqCIAgKHAYHkDI4v88kTF0/Z9bvnzMr320t8Vp5j/SVOZcpKTP4EDF65UmY1x3OhlPDixCPIW1WPCJjhf5SVe1p3Eybljd6l+EcT8lVrtqFTrP20iln0Ob5rIeCMqNOkTKq4GjyLT+f7VqveJIrZh0GZT9nyelxWGRlbenXmDI/A0UxazIbhDX5bAdo2rE6IoPVWe9zx5BPTDrJiqZjf6PPPG32spjtPYjUKXGytspMUIt4LAWfr5ddD8/Dd2rHxC3tmKi3tDUpQwrZ6Hn5xT77lbjc07wYtmVleAYr89tEZU+z4StoVuClVUAdA6DAtskI1h4fob+4UxI9cr43qUqPWbvoUdhBC8J/zOvvc1KIli1bApljMXO6cuUKAwYMADJbD8uXL5/dJTfLhQsXirQPT09Pbt++nSch++yzz7K7wSoUChQKRfY43Rs3buSZfTpLs2bNUCqVBAYG6i3Peu/p6VmkuIrq/Pnzeu9Pnz5NlSpVMDV9+WNbXjXW3Ps6deoUQHZX9LS0NCRJ0hvPXFirbn7lqdXqIndlfxm1Wp0dS0ZGBrt27cqexCu3li1bcuvWLZKT9SeD2LRpU/aY4OPHj2dP5GZiYoK3tzeTJk3i0aNHb+WRX4IgCILwftARurYLlSpUpGabwUyat5RlC6Yw5IMPmXpBjVufntR9nZ1zEk8xtl45yldrSI+xP7B42RJmjfsMz/6biS7ekX4d7F5vy7MgCP95bzQJ7ty5M40aNWLMmDHZLbvPnj1jyJAhODk5Za/n5+fHuXPnWLBgAWlpady9ezd79uSX8fX1xdjYGF9f3+yEaevWrZw+fZp69eoBmUmwo6MjYWFhQOaMyseOHcu3vKxH8axYsYKrV68CmYngjBkz+OSTT6hbt+4/q4wCLFmyhLt375KamsrcuXO5cOGC3qRhhXnVWG/evMnChQuz69jX15dq1aplP2+3ffv22bNdA8THx/Pdd98VuP+NGzdy9OhRdDodAQEBrFq1ii+//PK1tQQ7OTkRExNDXFwcly5dKrArPmROMKZWq/H19c1OlK9fv87XX3+Nm5sbAA8ePGDatGmEh4cDmYn1yZMnqVKlCnZ2dq8lZkEQBEEQclPg2OtHDq0ejGvUHuaOHcoQn1n8/qQCvecfZO+EmmhfXkjRGTVg8r5dTPvAjAvrJjFyyAi+W/UXhi3HseXIaj4pLlJgQXjvyC/x6NEj2cnJSTY2NpYlSZKdnJzkzp0757uur6+vbGtrKwNyyZIl5bZt2+ZZJzY2Vh4yZIjs5OQku7q6yjVq1JDnzJmTZ71FixbJpUqVko2NjeWaNWvKAQEBMiBbWVnJHTt2lIOCgmQnJydZo9HIxsbGspOTU/a2N2/elDt06CA7OjrK1atXl9u3by/fvn1br/wtW7bIzs7OcrVq1eT27dvLiYmJ8sCBA/Xiz4pLp9PJs2fPlsuXLy+XL19ednFxkX19feWUlJTs8jw8PGQzMzNZqVTKTk5OckhIiOzj4yNbW1vLgOzo6Cjv2LGjwHpesmSJDMgXLlyQGzduLJuYmMilSpWSlyxZkr3Ozp075VKlSsmAXKxYMdnJyUmOiYnRK+dlsR49elR2cnKSFQqFPHLkSHnYsGGyvb29bGhoKHt5ecn379/XK2/27Nmyi4uLXKJECblhw4byokWLZEC2sbGRfX19ZX9/f7lEiRIyIK9evVpu3769bG5uLltaWspfffWVnJycLMuynO/5Sk5Olp2cnGQjIyNZo9Fk15u7u7teGNNCAAAAIABJREFUXZ4+fVqWZVmOj4+X27ZtK5cpU0auUqWKvH379kKvg1u3bskdO3aUHRwcZHd3d7lRo0by3r17sz+/d++ePGjQILlKlSqym5ubXLlyZblLly7y3bt3CzxPgiAIgiAIgiC82yRZLuKze4R/1dKlSxk4cCBJSUl6Y4IFQRAEQRAEQRCE1+eNdocWBEEQBEEQBEEQhLdJJMGCIAiCIAiCIAjCe0Mkwf8BHTp0YOzYsQCULVuWjRs3vuWIBEEQBEEQBEEQ/n8SY4IFQRAEQRAEQRCE94ZoCRYEQRAEQRAEQRDeG6q3HYAgCILw6nbu3EmvXr1IS0sjOTkZU1NTvc9jY2MxNDRErVbrLU9PTyc1NRUjI6PsZcWLF89+XnZ+4uPjMTQ0xNHRkYcPH+b5zMjISO+Z3UeOHMl+HrcgCIIgCMJ/jegOLQiC8A4bPnw4tra2+Pr66i13cXHh7t27edbfsmULM2fOxNfXl7Zt26LVal+6j/bt2+Pv70+VKlX0lqemplKnTh26dOlCly5dKF++/P92MIIgCIIgCG+A6A4tCILwDrOwsODYsWNMnTq10PViYmIYOnQow4YNw9TUlMDAQOrUqUNERAQAwcHBeHl50bhxY2bOnMnu3btp3LgxU6dOJb/fSg8cOECNGjUICQlBo9HQp08f5s+f/68coyAIgiAIwuskkmBBEIR3mJ+fH/v37+f+/ft07dqVevXqERgYqLfOjz/+SLVq1bCxsWH9+vWULl2aKVOmMHDgQNasWQNAz549mTJlCsePHycqKgp/f38CAgJQqVQEBARklxUWFsYnn3zC2LFj2bBhA+7u7nz66acEBASwbNmyfBNmQRAEQRCE/xKRBAuCIPw/MGbMGEJCQjh48CA+Pj4kJiYCMGDAAObPn8/evXuZMGECGo0me5tKlSoRGxtLXFwcGRkZ2eN4p06dyqFDh1Cr1YwePZpSpUoBcOfOHVxdXXF3d+fs2bNUr149uyytVou9vT3p6ekASJKEJElv6vAFQRAEQRCKTCTBgiAI76jU1NTs/9+4cSN9+/bF1NSU3r17ZyfBY8aMwcXFBWtra71tHz58yJIlS+jUqROmpqbodDpOnTqV/XnWWGGFQkG5cuWAzOeY+/j4YGZmhkqlP6/ijh07KFGiRJ6JuARBEARBEP5rRBIsCILwjmrfvj2HDx/m4sWLbN68mT59+mQvz+Ls7MzSpUvx9fUlNDQ0e7kkSUyfPh13d3cAfv75Z6ZNm0bbtm0L3aePjw8WFhbMmTNHb3mpUqVYtWrV6zo0QRAEQRCEf414RJIgCMI7atasWfTq1QtJktiwYUN2V2dLS0tMTEyy17OysmLRokVMmDCBihUrAmBvb69XVpkyZfj999+LtN8ePXoQEBDAzJkzs8cA16xZ83UckiAIgiAIwr9OJMHvkKNHj3L06NG3HcZ7pVmzZjRr1uxthyEI+apatSrnzp3L9zM7Ozu99wYGBkyfPp3x48frPSO4KExNTTE0NNRb5uHhgY2NDWvXrkWpVL5a4IIgvHOatl3MT7sH4Sj6EAqC8P+AeE7wO8TPz4/pq7ehLeX6tkP5f697HUduXjhL06ZN8fPze9vhCMI7J2tSLPEnRhD+fxhVtRqRI5cz8dGX2BtIKABJArVS4rVOgTfs0uss7Y1oNeePf63sAyOa/Gtlv2ucx+x+2yH8z0L8vd52CP+qbsvPvNby0jJ0RV5328AGr1S2aAl+x2hLuWLR6NO3Hcb/ewMGN+TX1fPEDbwgCIIgAN9tHoe/vx/d9t/kZlQ68RkgS2Bsbszn7R2YU1OLwdsOUhAEoYhEEiwIgiAIgiAUyqRKNyb/2I3J86qDLJOaAelp6dy6HcFXW+8zza4s3zmIx6IJgvBuECM7BEEQBEEQhKKTJDQqCSNDNW6uxZnilsG+m6lkvO24BEEQiki0BL9B69evZ/Lkydy7d49y5coxbdo0vUeZCO+GwMBAhg4dyoULF7CxsWHgwIH4+voWuk1AQAATJkzg8uXLGBkZ8emnnzJ9+vTs2Xw3bdpE9+7d891WdMkW/st+2B/EoiN33nYYgvBaTXRVM+lKev4fqorjJIVzLy3zrbp0VRTBV0nJd2UlJatb8uhSBDoAyZQeO57y04faF6ukX2Rijdr/nf3p0VDOQcftsOframvQTXGZTUn5rCrdxu1PJdGpkJKUTkSqjFEJQ9IfJBUQa34kKoYHcmVa7Rc3qKmHGODUmmXhRR8bCGDg0ZMmdwO4npZG7OMnxKarsbfN4NHjAlJ1VWkaOd/nxJ2C68Wg8xaebe2So9t3Kvu9HTm08glF+UstWdXCnHsk69JJj4smXafGyNGIpPvR+W8vGeG+wpqIuAxSosOJSNBh5OpO+qXzL6lTDVXqW3Dj9BMKqjVFyYEcDF6Mh+bFssTNnSnWbRvJRTiWvNdGPTq4PuL8o/TsWLUOZqSGxuQTg4RBWQtS7zzLPz7Jkl47H7H2A/3rNnr1h8Q8LcJPLWYlkWIfFOmcoLBDxWPSi3J5KZwxtEkkNTEDUp6RkSoj2brAk+Ai7qsiM/u1ZXTZF22QutCFtCg7hKOpRSkgixIbW3j65OV1oao2gcDz31M94RT+3fuy4Fws5o392LHpSyrmyQLj2NazLitr/Mz24W4Y6kJY5lWDwfsTKV/agNDs744C617bCFroiUZve5m04I0E/vwz4fIHNB/XH0tFOpG/9eHovruoTCA5tuCYlaWro3pw68WPaUpbjFPuEVPAJpKpEcQlZta9ZIDr9HSu3Mvv+6ul5dIQ9vcvrjd/gUiC35B9+/bRu3dvpk2bRrt27diwYQOdOnXizJkz4tEi75DHjx/TqlUr2rVrx9KlS7l06RJffvklxsbGDBs2LN9tLl++TNu2bRk4cCArV67k0aNHDBw4kKSkJJYuXQpAmzZtuHDhgt523333HdeuXfvXj0kQBEHQN27bMq62XkiZVQeY1MA088YpYQvdKu/n89uraKeRiVz7EQ3PDeXqAg/UuQuQo/m5S2X29LjLjx21KNJP83XN73DZs5evXLT666qqv/H9fXsugXG6Qm7bM64ytckApBVHGVtZTUbQDDx6JTH/5LfUWFqLtekpzFt2B997YGaqpVWTEsxpbISNLoVVW8LYqLJhrIcFzWwkLgRGk1zZivqGBe8uJ8XwWvo3pxoPFt5LYl7OH4TjT+DT5HOudPuZBR7XmTHkB65U/5oFU/tQ0yozwZCUagjZyvC+84gctJSxfVpRMW4TnxZYz6v5QJvfD8/p/DW+Lj7WWzk4qkKucc8aWi4JxaP8cf1NdKHcW+xDrJsPpd0rY2z8/IxJSnh2lKBNv5DWcBQudepgYqxAzp2Apf7JjVnbMBvsT+A3NqwaOJCNWh/Gju5Os3KmZCSHsbKDOyvKLmHNRC8qWea+IiQkpRKVRJ7kLPXAACotb8y5X3pio5/BYNRlEzEdM4qW0D3fz4tr4ztqyddY0f9FrE2cb+NXZwSmGwL4uoL+UwRkWUYhSfr7StjPQPf5uB/bxcBSea9bi97bMNfFkPj7KOLs/bCrXVK/zOv+PLzXkhJta+YzWVs6KUeHE5X8MVb16qC1MC7yURK/jyebwjDv442BFErcvkUkqjpTrE5TDKyMQZf7BBa0L4mRZfU74SocB7L/aQ8SlYYYZFWR7imHxnzI4EvtWLR8BB5Oxs+77sawoXN1jn4RxPI2BiikCLb0qM/yOrvYN7yC3vcmbuMnuAb0IWhVe0xUGdxe9jU/Oi/g+q8WTK81lB13vmBsRSVy9DWOXVbhWr8s6lvrWXvsKYH7xvLTJ7vxtn3M3/crMfnqAYY5QeJJHzy+M+S7pSPxqGCbKwEGdA+4t/M31F4r6VDdDpUCkKOJvhtDqa8CqFVRIm+7TjpRv/XjkskUmrWwh/Rwgpf78tT1G1xrl0elUuQ6lxkkHBnBqci+eHzsilJ3nSvTVmE8eBanPzlHmw9D+f7cDOrrfSUklGpNnmtCdId+Q2bOnEm7du3w8fGhWrVq+Pv74+rqyty5c992aMIrWLFiBZIksWbNGqpXr07Pnj0ZPHgws2bNKnCbTZs2YW9vz5w5c6hUqRIeHh74+/uzatUqIiIiALCwsMDNzS37VaFCBY4ePUq/fv3e1KEJgiAIz2nL9WH1mhYEDBzG7xFqtFotWq0aJQrUGi0GWi1alQJJqUGj1T7/PPOVcX8fU7o0ZcSBZJRqLQYGWjRaNUpJgUqjybwx1CO98f0p1RqkR3vx69wId7c6tB2+heDkULYNaUHNRp8y+2wcCklCpTFAq9Wg1ahQSEo0Gg0qJdz/K5y9DqX4278qj0eXoMLVML6+nsHlI2EsMynO9m7WtLZToVUoeHY3kk0PQauSMl9KmbgU+cX7XC+1Mp9b1auz6TXtHIrn9fJ4ywz21FzE5vHNqNxwEGvP/IF/uYP0a+zFuF+DSdNo0ShCWDFoEnFDtvLz2I64FTfCoNB61qDRaPTqNuulUSlQqDRo81YmCpUGhUr9/KVCF3mCv9eMITgsmeR7B7i9oj/n9wSSqlCjUITz4Jf1ZDT+nmotGmNqqkVSqHNsD6l3f+HaIn/CE0BSwZXZ/VlmPYntK4fQupI1WpUWI2MTDDVapL9X07NWaZwrVadG7Xo06ziE5ReSMDI2wshAm+da0Wq1aNVKJIUarVaVNwmQYtj8eWtm3VG9WF+TyvV1A2haxgYr+yq0HrmFv3VZ5eW8NnRcmqkfq6FajVIhodI8r8fUUE7t/J0LUWoMDAxyxCfx9MR8ejXry88REmqtNt/rFoUKKeEk8cHxZATvIDYkCpRqpOcvlBIolNnvs1+pISQEfEvEhXB00ZeJP+DLo+3bSElVPV9HhS5sBxEbh/Fo7TgiL4UgJ14keusIwrdvIDlRQpIUoILUPxcSb/Q5Nm3bY1jMDElSvsK+8qlzJB6v+4QPFoSgNjDAwMAAAwOJ5AQJc+UtNnzdkZa9VxMkG2BgoEWtlFCoDTA01KIO38aqvVGE7ZnN/MOPkPTOswKU6szzTQb3g8OwKV8GRdAfBMaUoJR1ZiRy8kNOLOxNXUc7yn60nXKzDzO7yR0u3sxqUVWg0hhiaKwl9MQZSvYazYfV7DHT5PNoRMkEQ3Mdsfcfki7rSHtwgItz+3EhKI3MH2ZyXutZLw0KhfT8e6BFKd3maVQtyjWujomxIcqc66bdI+zX0ZzccxOdQoVSrUWhUiJJCiSVGgODzGtR/bwOdI//Yvevp3kk5ffvoEiC3whZljlz5gyenp56y1u2bMmpU6feUlTCP3Hq1CmaNGmS3Y0ZMs9jaGgooaGh+W6TmpqKkZFR9iNjAIyNjUlPT+fMmfynkt+6dSsJCQn06tXr9R6A8N4KCwujX79+TJs2jf79+xMbG5vvevPmzWPcuHEMGzaMbdu26X2WmJhI1apV8ff3fxMhC8JbJGHRdCobBz9hdM+F3CrKYNfE2/w68QPcWs7g2Sc/MqfjqzyP+w3vL+0iM3pMIWHQTi5dP8Oyunv5on5nfqqwjD8PjCZl+nA2PCygf6guiTWnoGcrM5zUoDYxxqe5EWeuRLL4koYxrU2wyv5zJ1HDWcOJ64nZ3Xcznkby4YoIbjwvXk6MZ+Kq+8y+X3ALpKKYEREnAnmgA0gh8HgInr28sM7aj8aRlr47CNw9EGmpF7UH7OLJuVWsZhBTPi7Ji9v1f1DPRSQn3eHRbyM4vWQz6a6DcHIqhlVzH2oMn4Ld4wUEXYhBDtvNQzpS1tU6T6uULvocIeu9CdwZgkWnUZQ0U0DaRZb+4sKYiR456jTrUMxoMn4f18PDCdr3PfV1Em5t7djpPZJfo//hMCrJDJeSjzh4KDS7m3LGtXn0ny0z4tgDnt7YRI9nU/j460PE5d428UjBsZLM39u/pnnl2nToPYSVF1905k4JPcSMbjVpMPoajRcu5YsSL0lNjGpj7jUIM8cMEnePJfJGZMHr6qJJubCA8NVTSVC1w7K6A6pyPbDuPgvrEueI+uNi5jUXvY/IgFCMPphLiT4+GEesInzLNqTG0ynezIr4g7+TpgPSLhMXZId5Q9e8CVRR95WHAvt6tYg7eJCw55WuC93GorMtWLF/Cxt3HmZ1g72MWXQzz5h7hW07/NYtZnTTNLb0akafzQ8K6P6uodFXvpRY54FrjyPUWzqPbs+/PIriLRm/5TS3wyN4fOswsz9I43awCcWsch+hhFqjRpdRyJdGsqBkl7HY3/uOXcM8+G32z6TWGEu1Knn6rhRMoUKBTr+u5Hhi/pzPH1PHcl/dhVrt3QpPYNMecnCSF1Xd2/C59xyOxxZU88K/Li4ujoSEBOzs7PSW29raEh4e/paiEv6J8PDwfM9j1mf5ad26NTdu3GD58uWkp6cTHh7OlClTAHj06FG+26xYsYIOHTrk2Zcg/FNfffUVvXr1YuzYsdSrV49JkyblWefixYvs3LmTKVOmMGfOHCZOnJjdWwFg3LhxuLu7v8mwBeGtSb23mwXrb1OydmUsCr1bSuf+3ol4uTbm27utWfvnHyz43BXzV7zDepP7Szv3M5vMv2RcG3vUkiHles7g+5ET+GFQFYws6zN2shfaZwUkwZKa1p7WtMrRmzRdJ5Men8yfFiY0zdXt2aaSKQ7XojjwfKCpwkiFbUIyVxNkUmITmP1TKKueJvHDukfsL2AwqqJkA+rG/sHxZzIgYWSUwd3bd7l3ZgOTvmhDvcq16PFjMAYVPmbIx2Uwti1OzPGTqJs2o2SuenlZPac/OMCUbvUpW9wKS2sHKjf9jNknnxXcRViOJS5wHn9NH0FIXEOqjlpEpXrlUWeVrSpFiTqVSHoYRlLwVaSybmhzJonyM54d+Y6zc2YTXWIwtYePxdHZIvOjJxc449icppaFzbqtwcJCItmoLh99+S3D61zjdFYrXvIdto3pSE1nWywtbXCq3grvlZfIb0h3JjU1Wjfh3p59PMr6kSI1mXSnujQubYqRXS28l/pTe/8q9uX6HTXj+tH8Y9XFcnpKG1r7J9Bv2yI+LuFB20aGID/h+Mxu1Kw9iFPVZnHy7FoG17chn/bFXCHaY1DRA9PGo7Dr2IDU3b25P7cnj7b/RFJ0VuuljO7BLiLXD+bpFQUmnRdg17wxak1WbIZoqnugigwmQ9aRfusouopdMLbQgKIYho17YV6/L2YljZFsPsCysgUZMhB5hVRTV7QGeifwFfaV/yGp3LvSMXoday5nDvxXWJSnRjV7jBUAGir06o7J1p95/vELRmVp1qUng7//iaNbO3GxZymMzEtSveMEdgbrjxqXzOsydu9tQi7vYnJbh7z1LCfz+PJvTO7chcVGPehWNfeIWSUu1Svy8OpNcofxgo7kh9eIiZExqe5NkwkrqdO0ClrFi/qSo89yfYU3u79uxfaRHdg704+gv+NefL+UpTE3vk9MbOYFmPE4gMtzP+fksVSc+q+h0YdNMFEX/H2Qk6+x5OPmjLrpxbp13pRu0A7PYvmvL5Lgtyxn66DwbivoXLZs2ZJ58+bh4+ODgYEBLi4uNGzYEEmSUCrz/nN/48YNTpw4gbe3978dsvCekGWZ/fv3U79+fQAaNmzI7t2786y3e/duGjZsCIBCoaB69eoEBAQAsG7dOpo2bYqTk9ObC1wQ3pLUK4vo2NyHx96/c9DfE9tC/1Sn8uivQ1wvM4FfVg+hge1Lb+Pf+v5ITyM95+A8hQOe/T6myvMEVuvWhY/yzpqTSVLT1N2Eks9jTI+JZez+RBo7KYgxVGKRK3aFmQVDyyYy9XgyqYBkYoF/KwWz597AZUE4l0o7cHZ0aSbZxrH+VgGJt6o6H7YIYf3Ge+gwwPNrX8znNqbRsF1ktJrOrsOjSJv6HbuiH7FnVzReH1fl2ZMoLK2t9G50X1rPGdeZ03UQp2tO50hwBFEPLrChnzGXAwueYArdE+KunSa1ki+1enTB0jT3+cggOTICjaUVaXGxqIzN9FuB5Vjib19H2WAirp61X4wLBUiMJtrCOk+dggToyMhIJ+rcMnp5zcBkgh9tDEO4cccQaysFkMypiZ0Yf9+LZWdDiYq8x6klHUj46yIJhTQUGzXvy8cPVrHySmaqo3IfyU/fe5D9m4dxVVztQwl+pN8iqIt4kn+sGbc5+fADNh1eRHeD21x3qkdtY0AXyZVDZzEesJGN41rhmGeA6ctIKEwsUWhrY/XFIqzsLhN14tzzZCqN9IenSZJbYdN9MCZ2Jnm2lqMfkmFqi0ICWZerddOwEsaVyz+/dhSoyjdGqwQ5KRqdgVmu5OnV9pUvlSsDRjixYcxK/k4HzNsya+MIqmZdCxoD1A/v86DARlgJE3t7zM3bseTaZZa5H2GQ3/4ck6fJpARvop9nD1YH5fdLk0zkhu6Ud/+M9Yq+bPllBJXz+fob1m9GmUsnC+lBEU/0uZ1E2AygSb8e2FrkKkR3l6DlPxDpNJjmU/bRacZ66jUyIDrk2Yt1FCWxLRNH5N1kQCYj8jJPo11x/XIkTg556zY3XfgpblZbQsBPAygdeg1N7TrYFFDvIgl+A0xNTTE2Nubx48d6y588eSJa+t4xxYsXz/c8AoWey6FDhxIVFUVoaCiRkZF89NFHyLKMi4tLnnVXrFiBs7MzLVu2fL3BC++t6OholEolKlXmHyQzM7Ps6zanJ0+eYGZmlv0+a73r168TFBREx44d31jMgvA2KcwdqVzBEQsNFDZ/VCYj6o7fz7Z2h+nbaxXXC25m+8/sT12zCx0ezufr9VeIzu+GVlKhzje3lnnydyST9z/mu72PGPpTMFVnPSSsdinmVFJhmphOVO74JSVt2tpS4swDZj7QARIVajtwekJlHo4rw3pPUxxUSuxM8ps0Jztian3pjWrpRH59KqOu0JdNN58QenYjfl2rY21Xn4b2N7h060/O3K9Jw8oarKwtiHwSoZe8vqye5cfHOBTVEd/hTXA0UiBpbXD/fB7+XW3ymWjpOWVZSvRcQHmD7Vw7fJW0nOXKycT8MZmgsIaUqW2L2tiEtLgY/VZlhROOfX/AMXIhl4/cID3nh4ZmmEY9yadOrajv5cZfY1vz6cx7tPvxGCs+Ks6Dn8exTOrIh2WUkHGbQ0dM6e3Xl1p2WiSFESUbDGbRt60otOO8ti4jfV34+Ztl3E7P3FfluhUwz6oAOZqoGGPMTHNN8GRVLG+sShfaj1vL3q3fUMtUIuNRGJH2pbBTAMpKDPp1H4PvjqDbzD+JKUoPbjkVXVrWGU0g6c89ZJTzwsjUFG29/phaZ2eNaGp/i12daKL37SU1V9NlRsgmIk7HYdqgHgoUqMvWhytriX0Yk3+Lv0KJBEgGZkhJuWe7fpV9FUSBffeZjNHMoOs3B3ic6xeXxLNH+cvMHruc30ldEnEJz7+8cjQHZi3hYcfBdHYoRr2x8xlaOefKEmZNp7JrtiPLPurO0mu5/9GQKNZjNQfndKKiXXGKGeUfqWTVHA/jM5x4XNDJMqN410XULPY7Z7acJCn3L0exF3ic2JRKLdww0ihAZYFlvZFUr2WRYyUllpUqE38nCB0SmsrDaPxZKe6tnsXDqMJntFfYNGfY0l3snOaBtaTjYehjijuVLLB3gUiC3wBJkqhXrx6HDh3SW37w4EEaNGjwlqIS/okGDRrwxx9/kJr6Yi77gwcP4ujoiKOjY6HbSpKEvb09RkZGLFmyBBsbmzznPzU1lfXr1/PFF1+gUIivp/B6WFhYkJGRQXp65h+Q2NjY7G78Odna2uqNFc5ab8eOHRgYGODv78+pU6c4duwYy5Yte2PxC8KbpirVgZk719P14WS69FnIn1GFPT9FR3RoFC6DN7G+458M6TaDs9Gv9jifN70/DBsw6ZdvsdnYjarOXiy5W/TtVZKOs38+ZcqZJDSlrdn8TQV+a26EdQlTmjyL5bfovNsozC1Z8rEBG9aEsir3HT6Q8jiKxaHGdC9XSJrg4s3iUbF822cJN3I1ZsnPzvHnXVtKGEYQYWiDjUKBc4tmpO/6les5kpKX1bNkWRpn+Q63InIuN6C4vVXhN8wKG2w6+FFa+yvXd50lJWtzyQDzJt9So2dXzLVKDMu7I18/TkLOHx7kJFJizbDr9h2OCau4vPsvUp/nGJJdbZrc/5XfQnPXmYqqX+0gMPAP9m2cSvcqCq6v96bd6If0nTuICkpAYU+ZUs+4dTtHV1MkLO3tMSq0p4EC+25zmWK7mE99DhORK99JD9rPEcPGNLHTL0RZtVXeWKVi1O/xKbWzBgmr1UhJiaQCyPE8CLei2+otDI6YwCdjDlLQ06uyRe/j6Y9zSYiOJ/3Gcp4Fl8aiQY3Mc6N0xqicQ44fKzSoqwzFxi2GmD1bSEl+cSBK527YdBmOSbHnY1WtO2LjWZaUA8N58NMmUgv6Oli7YxB7msQ8Y0xfYV8FUbrQd/1PdLzYj/ptvmHNH3eITk0n5vrPDB28jscPNvPD5vvZ44IzgpfTsX4fNv79jL+3DGf4XjcmTWiFKYDGlY8/qpTrEUAKbFvNZPfCCqzr1Jl5FxP09y9ZUmfoWtb1S2J2974s/is6749SihI0qB3H+UuFPM9JYUOJzjNws9rJ6R8PEJ8zbzUuibEcRlx8zgrWYGCu3ztC4VQNo4c3Scx89hGacl9Qr2t5HqyfTMijQh7gZVydzr2bUuJ51qvWqEhOTCp4roGCSxJep9GjR7Nnzx6mT5/O1atXGTNmDJcvX2b48OFvOzThFfTr1w+dTkefPn24fPkyP/74I4sXL2bUqFHZ66xevZq2bdvqbTdmzBgOHjxIQEAAAwcOZO3atcyZMwetVv8RANu3byc6Opo+ffq8keMR3g+SJNG6dWtOnz4NwIkTJ/Dy8gIgISGBp0+fAuDl5cXJkycB+L/27j0uqjr/4/h7YLiJjmCIl4RV7KqpqOn+BLlkkiZFmmWatdaaWWpaYWEaJiuRbEMKAAAeK0lEQVSlQZq4aOtlw8xraeWFNk1ZUpTU3QJFt8wUlfUyXdQJUBRmfn+osxHgLWSUeT0fD/4453zOOZ/vcJvPfL/n+7VarcrNzVW3bt00btw4jR8/XmPGjFFISIgiIiI0dOhQxzQGqCluTXX32CVa8pyb5g56XG9mHqn8WbjTmRob0kZPLC5U835/09IXTypxQJzWXOa6tjV9P4+bH9aUz3aq4GC6nm1xqW8HDWoQ1FArX75ZC+80aP2/f9HXJ85NYuPurZe7GTRtwRGl/2St8MbTv1VTfdTDRVNmfq8/rT+hzUdPa9/RYqVvOqR7Zv2sFjFNdP8Fuyhd1eKJuZrebpH63PuSFn91VCXWEv2Yu1SjY17QrodfVr+gG1T/+GEdKZWMwSP0WuvFenLkEv3H8qvX5kKvs1d3jYk3adq9z2tthZmfLvbSeMsU9opuDfpauz9Zr5OVdFoZmvZRy8brtfPj9So6dTYn2+El+ippnA4e89EN0X/RTfVXaceH/9SpMpvk1l4vj/bQtMfHKX3fb9/Mn9Ge1VM1/oUnFd3+NvWcfkpPLFulcXeeexENfuo7Ybh+jLtXE7dW/RRnpVya6qFZizRw19OK7D9JH/3rvyq2lcmy+xO9/NQCBcUOUavfdq/VuesCuZ5lvOUOtdj1L20/I5Vuf0u9WvdW6n5/3TNpmSY1m6PHnv1A+85coEvYt5duCKmjXxYN1pHsM6rX53l5m86XTy4y+v72w12DXAL6yy/MT0Wfz9fJwqqqbFe5Bj2qhk+kqdlj/eVe1a+DW1uZOrvpl9XzdfLEbwvBS71X1Qw+oXp1zRbN71uqVS/10M03+KhFr7f1S/8PtWP72/L96xClnnve2/WmYZobb9L0iCCFvlGi4R+l6bGA84m76g8tAyvpATXIr9skpc9urw/79VHSNstvvk8G+XZ+Tu8tGCbr9P56fFq2fio3ZMJFfv6e+umHiww/MdRVg6hEdW71lf6dtlzHS85dw62Tbo/21u7p03TkQotRu/vKo/SYSn51a9emD+jOJ6JkWfaavt13Kb+cRrVo1VL7/pWj4ioiKIJrSM+ePTVv3jzNnTtXHTt21OrVq7V8+XLWCL7ONG7cWGvXrtXevXvVuXNnjRkzRvHx8eXWCD5w4IC92Dhv586d6tevn3r16qVt27bpo48+0sCBAytcf86cOerVq5duvPHGCseA3yM1NVVpaWlKTExUdna24uPjJUnz5s3Ta6+9JkkKDg5WTEyM4uLiNHLkSCUkJMjPz89+jQ8//FBZWVn65z//qRUrVjikHUDNMsin41DN/mCCbspcqRxPb3mde8/t4u4uT3c3GdwjlLjxa819pIEMMsgv4jUtfautfjn0q/UtDW7y8PSQe4Xlfxx9v6q4y6tuPXmfmwDIYDy7dJDx3OUMHh56+P4W+ueDdfTvj/fq3lUntPu0Qc07B2hRx1K9MfMb+Y37Rg9uOfOroaMG3dopQJuebqg/FPygJ2bsVuup+RqdY9VDjwUptZWx6iHH9kv46a7Ez/TJyLpaNeou3dLsJoU8u1zuz6xQxpvhMnl1UOfATfr8X6clg78emPGRYj3mqvfNDeV3Y6SSd5wtTI4veEjtZ/1Bf63wOruqxaPztW1LsrrX+99tje4e8nCv4hnpclzl2Xqobv+jl0pOesrlt1WIwVcN+07UH4zpynnjAWVOGKX9hofVPvYvCrjBRTLUkSnsVbVqZdOpMwZJLmr+5HwtevQHvXF3oPz8muvBdw/8b+bm06clr4a6JaSHIppb9OkrfXTvwJc18x/f6IRV8mwzXCu+ylRcp1/1Qrq5y8vD7eIFQJ1gPb8iUykhBfr70yEKqGfSH3q+reIhSzXr4Ub279X/fjZcL5irJLk0vVcxTT7V4o3FMraN1aqcZXo2yEUy1FOH5xZodrRVBcUX+ikwynjbM2o8bKma/fll1Wvy67V+DTK4ecrgWvH7ZGjQTQ3u7iQVnpaL8VK+j7/h6i6Dh6dc5CJj2xfl1+qETix+Qgen/1k/bP+heu/l1kRdh07VR1u+1w+/FOrn/G1aGn+PAgMf0IwPRyvY6C13o0GSm1o8nKrsgmM6krtYIzvV/9Xvj0Hu3nXl7VHZg9YGNYiYqFVpXbVmyCh98lPFDx0Mvp004r0let7rS20+blL9c4tj237J0cJPflHrNhd/NldyU91OL+v/wk/r50Mu534XXOTdebyiXnlOjX614LbB6C4X4/lfljKd3L5WP9W/WXV/86Ng8AlV26cGyavw51/9rTPK1c1NLpU8cF2vW2/dmb1Yn1bSRkky2CquCo5r1IQJEzRt3Xfy6fqoo1Op9VYMD9Un76bIZrNpwoQJjk4HuO6cnyiOfzFALZPSrvy2tVRbs48odkuZevZqqtG3ucmj8jMvzajc33GyVfum361uuS8p7++95H3xE6rFPW9vuGrXXvtC+KUHWwu1b+OHmjV1ipYf66XpSyfr3ibXUn+XTYXfZmmn9//pj80uY9mcc5qPqTih4/Umf3K0o1O4Ita9c9Q3+h15jZirWcM6qF4Vn1X0n1350p+X5pTMy5/Rvw/cqXZPDFNTXxedKbv0ES7Ln/3tI6anlZ+9VWXtuqplJaNMruAjCgAALo3NZmMWfKA2czGqc2gzZbQpUuqan5TetLEeNF38tKuUjJr/KUlvbfGT58WDax+XumoR8aQmRzyqYZuydNzzWvvba1DdW8P0R0engcvmEjRYy3cO0dWdrsZT/g++q54Gl4uPCrkk7mrepWuVRymCrzMlB3foxKZFjk6j1vvb6Sx98/WXioiIcHQqwHUtKSlJw4YNU7169S4eDOC65Wby1gsP11Tfa9UMPp3Ut4ejs3A0DwWG3q1AR6eBWsTlKhfA51RbAXxxFMHXkcjISEen4FQaRUTwmgO/08GDBxUaGqp9+/bp9OnTMplMGjx4sCZNmkQPMQAAcAiK4OtIZGQkRRmA60pqamq57fz8fD322GNasmSJBgwY4KCsAACAM2NiLABAtbvQxFhr1qzR4sWLNW/evBrOCgAAgCIYAHAV/LoI9vPzU0lJiU6ePFnu2WA/Pz/9+OOPl3S9SZMm6ZlnnrkquQIAAOdCEXwdyczMVGZmpqPTcCoMQQeuzG97ghcuXKjBgwerRYsWatu2rWbPnq3//ve/OnDggHr27OnIVAEAgJO5lhYPw0VkZmYqc16ilDlZ+uo9R6dT633xxRd86ABUA5vNpoSEBO3YsUP/+c9/dO+99youLk4uLi7lhkSfPn1ahw8fdlyiAADAKTAx1nUmsrlREyI9pBtbSEMmODqdWi0hIaHS5xkBXJ6ysjIlJSXp5ptvliQNGjRIM2fO1K233qq8vDwVFxerTp06+uKLL7Rq1SpNnz5dkjRu3DgFBgZq6NChjkwfAADUMvQEAwCuKqPRqN69e9u3Z82apfbt28tgMCg6Olrvv/++JKlZs2b69ttvZbPZtGTJEu3atUvz5s3T7t27HZU6AACohegJBgBcVevWrdOmTZtUWFiobdu2ycfHR/Pnz5ckjR49WhEREXrkkUd0++23KywsTMHBwerUqZMWLVqk1NRUZWVl6ZZbbnFwKwAAQG1BT3ANWb9+ve677z41adJEBoNBCxYsuGr3Ki0tVVxcnBo3bqw6dero7rvv1jfffHPR87Zt26YuXbrI09NTAQEBeuONN8od//vf/64OHTqofv36qlu3rjp27KilS5derWYAqCW8vb01f/58bd++XXPnztUnn3wik8kkSWrYsKHi4+PVv39/nTlzRq+++qpyc3M1d+5ceXl5acOGDbrjjjsc3AIAAFCbUATXkKKiIgUHB2vGjBlX/V7x8fGaNWuWZs6cqaysLHl4eCgqKkpFRUVVnnP06FHdc889CgoK0pYtW/T666/rL3/5i1JSUuwxXl5eGjVqlNLT0/XZZ58pLCxMAwYMUEZGxlVvE4DrV5cuXZSXl6d27drp+eef18GDB8sdHzBggEJDQ3XXXXcpOztbpaWl+v777zVkyBD5+vqqc+fODsocAADURgyHriExMTGKiYm56vc5deqUUlNT9dprr+nBBx+UJC1YsECNGzfWkiVLNHjw4ErPmzNnjgwGg9LS0uTu7q527dopNzdXU6ZM0ahRoyRJjz76aLlzunbtquXLl2vjxo3q1q3b1W0YgOual5eXkpKS9PXXX+tPf/qTBgwYoCFDhtiXUoqPj1dwcLBiY2OVm5srX19fDR48WPHx8Q7OHAAA1Db0BNcy27dvV2Fhobp3727f16BBA3Xo0EGbN2+u8rzNmzcrPDxc7u7u9n1RUVE6ePBghV4bSSopKdEHH3ygI0eOKCwsrHobAaDWat++vdatWyeLxaKYmJhyI1Tuv/9+bd68WUVFRSooKFBCQoKMRj6rBQAA1YsiuJY5cuSIJKlRo0bl9vv7+9uPVXVeZef8+pqStHPnThmNRnl6euqJJ55QWloavcAALourq6tGjx5tf+4XAACgJvERuxM5P+zw95x30003KScnRxaLRStWrNCzzz6roKAghYSEVFeaAJzEbz94AwAAqAkUwbVM48aNJZ2d6KpJkyb2/WazWa1bt77geUePHi23z2w2Syr/RtXDw8M+U2tISIh27typN998UytWrKi2NgAAAADA1cJw6Fqmbdu2qlu3rtatW2ff9/PPP+urr766YG9tSEiINmzYoNOnT9v3ff755woICFBAQECV55WUlKikpKR6kgdQ+0yoX/7royGOzggAADg5eoJrSGFhofbs2WPfPnDggHJycnTDDTdcsMi8XJ6enho+fLgSExMVFBSk5s2b69VXX1WjRo3Uv39/e9xzzz2nevXq2dcCfuqpp/TWW2/pySefVFxcnHJzczVz5kxNnjzZfs7QoUN19913KzAwUEVFRVq2bJnWrVunhQsXVlv+AAAAAHA1UQTXkC+//FJRUVH27XHjxmncuHEaPHiw5s6dW633SkxMlNVq1bPPPiuLxaIuXbpo7dq18vb2tsfs2LFDPj4+9u3GjRtr7dq1GjVqlDp37qwbbrhB8fHx9uWRJMnd3V3jxo1TQUGB6tatq1atWunjjz9W7969qzV/AAAAALhaKIJrSPfu3WWz2WrkXkajUUlJSUpKSqoyJjMzs8K+zp07Kzs7u8pz/vrXv1ZHegAgSUpJSZHZbFZhYaHCw8PVt2/fCjEFBQWaMGGCWrZsqfz8fCUnJ8tkMtmPv/feexo6dKhOnTpVk6kDAIDrGEUwAKDG5eTkaOXKlVq/fr2sVqvatGmjiIgI+fn5lYsbMWKEYmNjFRYWprS0NE2cOFHJycmSpF27dunbb791RPoAAOA6RhF8nflif5kSviiR6uVLhxIcnU6tlpmZqYiICEenAdRK6enpCg0NlSS5uLioXbt2ysjIUL9+/ewxNptNa9as0bJlyyRJoaGhSk5OVnJysoqLi5WcnKyZM2dq6tSpDmkDAAC4PlEEX0ciIyMlSfZB1TU0vNpZRURE2F9zANXLbDaXmxTQZDLZl2U77/jx43J1dZXRaKwQM3bsWI0fP15ubm41lzQAAKgVKIKvI5GRkRRlAGoFf39/WSwW+7bFYpG/v3+5GB8fH5WVlam0tFRGo9Eec/DgQR0/flxLly6V1WpVWVmZJk+erPvvv/+C66EDAABIrBMMAHCA6Ohobdq0SZJktVqVm5urbt26SZLy8/MlSQaDQT169LBP2JeVlaXo6GgFBARo3rx5GjNmjF5++WW5urpqzJgxFMAAAOCS0BMMAKhxwcHBiomJUVxcnIqKipSQkCA/Pz9ZrVZFRkZqw4YNCgwMVGpqqsaPH68vvvhC+/fv15QpU+zXOHr0qGbNmqWysjIlJiZq+PDh8vX1dWCrAADA9cBgq6l1ewAATsNgMEhSjS0NBwAAcKkYDg0AAAAAcBoUwQAAAAAAp0ERDAAAAABwGhTBAAAAAACnQREMAAAAAHAaLJEEALB78cUXlZaWVm7fqVOn5OLiInd3d/s+X19fHTt2rFycxWKRyWTS/v37ayRXAACAK8ESSQCACxo2bJgsFouGDh2qsLCwSmOOHTumVq1a6fDhw5JYIgkAAFy7GA4NAKjUd999px49emjZsmWqV6+e/va3v+nhhx+uEDd//nx17dpVRUVFDsgSAADg8lAEAwDKOXnypF599VV1795dTz/9tIYPH66uXbtq4cKFcnV11bZt2yRJeXl5Cg8PV3p6ujIzM9WoUSMHZw4AAHBxPBMMALCz2Wzq2LGjOnTooK+//loNGjRQXl6e/fjtt98ui8WinJwcRUVFafbs2erTp48DMwYAALg89AQDAOwMBoNSUlJUt25dmUymcsdyc3O1adMmhYSEKDg4WEOGDJHZbHZQpgAAAFeGIhgAUE5UVJSeeeYZjRw5UqdPn7bv9/Dw0AcffCAvLy+VlpZq3LhxKi4u1pQpUxyYLQAAwOVhdmgAQKUOHDigadOmyc3NTW3bttXAgQPtx1JSUpSbm6t3331X77//vvbt26f58+drz549kpgdGgAAXLsoggEAVTp27JgGDRqkxx57TP369bPvP3PmjE6dOqV69epJktLT0zVw4EAdP35cEkUwAAC4dlEEAwCqhdVqlYvL2adsKIIBAMC1imeCAQDV4nwBDAAAcC3jHQsAAAAAwGlQBAMAAAAAnIbR0QkAAK5v73+5X/Gf5Dk6DQAAgEtCTzAAAAAAwGlQBAMAAAAAnAbDoQHASRQUFGjChAlq2bKl8vPzlZycLJPJVCEuJSVFZrNZhYWFCg8PV9++fcsdf/LJJ3X48GF99tlnNZU6AABAtaEIBgAnMWLECMXGxiosLExpaWmaOHGikpOTy8Xk5ORo5cqVWr9+vaxWq9q0aaOIiAj5+flJkt577z3VrVvXEekDAABUC4ZDA4ATsNlsWrNmjbp06SJJCg0NVXp6eoW49PR0hYaGSjq77m+7du2UkZEhSdq1a5e+++47PfDAAzWXOAAAQDWjCAYAJ3D8+HG5urrKaDw7AMhkMslsNleIM5vN5YZIn48rLi5WUlKSxo8fX2M5AwAAXA0UwQDgBHx8fFRWVqbS0lJJksVikb+/f4U4f39/WSwW+/b5uIyMDPn6+mrq1KlasmSJ9u3bp8mTJ+uXX36psTYAAABUB54JBgAnYDAY1KNHD2VnZyssLExZWVmKjo6WJFmtVhUUFCgwMFDR0dGKjY2178/NzdX06dPl5+en++67T5K0bt06FRQUaMyYMeeu/rMjmgQAAHBF6AkGACeRmpqqtLQ0JSYmKjs7W/Hx8ZKk7du36/7775ckBQcHKyYmRnFxcRo5cqQSEhLsk2JJ0tatW7Vw4ULt3btX06dPd0g7AAAAfg+DzWazOToJAEDtYjAYJJ2dkAsAAOBaQk8wAAAAAMBpUAQDAAAAAJwGRTAAAAAAwGlQBAMAAAAAnAZFMAAAAADAaVAEAwAqFRsbKxcXF/n6+tq/vLy85O3traCgoHL7fX195erqKl9fX1ksFkenDgAAUCWWSAIAVKq0tFTdu3fX6NGjdd9990mSXn/9dTVr1kyDBg0qF3vs2DG1atVKhw8flsQSSQAA4NpFTzAAoFJGo1FLly7VK6+8on379lUZN3/+fHXt2lVFRUU1mB0AAMCVoQgGAFSpUaNGGjRokOLj4yscy8vLU3h4uNLT05WZmalGjRo5IEMAAIDLY3R0AgCAa9c777yjxYsXa9WqVeX25+TkKCoqSrNnz1afPn0clB0AAMDlowgGAFTqhx9+UEJCgr788ks1bdq03LHg4GANGTJEZrPZQdkBAABcGYZDAwAq1bBhQ2VnZ2vs2LHavHlzheNvvPGGiouLNWXKFAdkBwAAcGWYHRoAcEFlZWVKTk6Wm5ubiouLFRgYWG526Pfff1/79u3T/PnztWfPHknMDg0AAK5d9AQDAC7I1dVVY8aMUXh4uFavXq06deqUO/7444+rY8eO+vHHHx2UIQAAwKWjJxgAUC2sVqtcXM5+tkpPMAAAuFbREwwAqBbnC2AAAIBrGe9YAAAAAABOgyIYAAAAAOA0WCcYAPC7FJWUqvVraxydBgAAwCWhJxgAAAAA4DQoggEAAAAAToPh0ADgRFJSUmQ2m1VYWKjw8HD17du3QkxBQYEmTJigli1bKj8/X8nJyTKZTFq0aJHWrFmj1q1ba9u2bXruuecUHh7ugFYAAABcOYpgAHASOTk5WrlypdavXy+r1ao2bdooIiJCfn5+5eJGjBih2NhYhYWFKS0tTRMnTlRycrJOnjyp5ORk+fv7a+PGjRo7dqw2btzooNYAAABcGYZDA4CTSE9PV2hoqKSza/q2a9dOGRkZ5WJsNpvWrFmjLl26SJJCQ0OVnp4uSRo8eLD8/f0lSXv37tVtt91Wg9kDAABUD3qCAcBJmM1mBQQE2LdNJpPMZnO5mOPHj8vV1VVGo7HSmBMnTigxMVHZ2dlatGhRzSQOAABQjSiCAcBJ+Pv7y2Kx2LctFou9Z/c8Hx8flZWVqbS0VEajsUJM/fr1lZycrO+//15hYWH6/vvvayx/AACA6sBwaABwEtHR0dq0aZMkyWq1Kjc3V926dZMk5efnS5IMBoN69Oih7OxsSVJWVpaio6MlSTNmzLBfKyAgQD/99JOKi4trsAUAAAC/n8Fms9kcnQQAoGakpKTo0KFDKioqUmRkpB566CFZrVYFBQVpw4YNCgwMVEFBgcaPH6+goCDt379fU6ZMkclk0uTJk1VQUKBmzZrpm2++UUhIiJ5++mkVlZSq9Wtryt1n/5v3STr7jDEAAMC1hCIYAFDtDAaDJIpgAABw7WE4NAAAAADAaVAEAwAAAACcBkUwAAAAAMBpUAQDAAAAAJwGRTAAAAAAwGlQBAMAKrV7927deeedGjhwoCSpsLBQzZs3V6dOneTr61vhy2g0ysfHR4cOHXJw5gAAAFUzOjoBAMC1acaMGRo/frxiYmIkSdnZ2br99tv1j3/8o9L49u3bKysrS97e3jWZJgAAwGWhCAYAVOquu+5SUlKSXF1d9fnnn2v58uW64447HJ0WAADA78JwaABApXr37q2uXbuqd+/eqlOnjlavXl3u+NSpU9WmTRu1adNGM2bMcFCWAAAAl4eeYABApebMmaPVq1dry5Yt6tChg7799lv7saVLl2rLli3aunWrbDabRo8erZ07dzowWwAAgEtDTzAAoFI9e/ZU06ZNK33GNz09XXFxcfLy8lKdOnU0ZcoUubu7OyBLAACAy0MRDACoVEBAgJYuXaqxY8cqLy+v3LGGDRvqxIkT9m0vLy/ddNNNNZ0iAADAZaMIBgBUydfXVwsWLNDUqVP11Vdf2fcPGjRIL7zwgo4ePWrfZzAYHJEiAADAZaEIBgBckJeXl+bMmaOsrCx5enpKktq2bauVK1fK19fXHlenTh25uPBvBQAAXNsMNpvN5ugkAAC1y/leYf7FAACAaw0f2QMAAAAAnAZFMAAAAADAaVAEAwAAAACchtHRCQAArn9dJq3X4ROnHJ0GAADARdETDAAAAABwGhTBAAAAAACnwXBoAHAiKSkpMpvNKiwsVHh4uPr27VshpqSkRC+99JKaNGmiPXv2KDY2Vq1atdKOHTsUHx+vkJAQ7d69W+3bt9fw4cMd0AoAAIArRxEMAE4iJydHK1eu1Pr162W1WtWmTRtFRETIz8+vXNw777yjhg0b6pVXXtHevXvVv39/bd26VSUlJRo+fLiioqJ05swZNWjQQE899ZQ8PDwc1CIAAIDLx3BoAHAS6enpCg0NlSS5uLioXbt2ysjIuGBcUFCQCgoKZDabdeeddyoqKkqSVFBQoBtvvFHu7u411wAAAIBqQBEMAE7CbDbLZDLZt00mk8xm82XHvf322xo4cKCmT58ug8FwdZMGAACoZhTBAOAk/P39ZbFY7NsWi0X+/v6XHffCCy8oIyNDL774ovLy8q5u0gAAANWMIhgAnER0dLQ2bdokSbJarcrNzVW3bt0kSYcPH9apU6cqxO3du1fNmjWTv7+/Pv74Yx06dEiS5OnpqUaNGik/P7/mGwIAAPA7GGw2m83RSQAAakZKSooOHTqkoqIiRUZG6qGHHpIkPfLII+rTp4/69++vkpISjR49Wv7+/tq7d69eeukltWrVSp9++qkWLVqkO+64Q2azWWfOnNG0adPk6uqqLpPW6/CJU/b77H/zPkkS/2IAAMC1hiIYAAAAAOA0GA4NAAAAAHAaFMEAAAAAAKdBEQwAAAAAcBoUwQAAAAAAp0ERDAAAAABwGhTBAAAAAACnQREMAAAAAHAa/w9+OFrxm8IaDwAAAABJRU5ErkJggg==;" parent="1" vertex="1">
          <mxGeometry x="-140" y="1050" width="961" height="195" as="geometry" />
        </mxCell>
        <mxCell id="79CWCTIytuqyBhmsyid--2" value="" style="shape=image;verticalLabelPosition=bottom;labelBackgroundColor=default;verticalAlign=top;aspect=fixed;imageAspect=0;image=data:image/png,iVBORw0KGgoAAAANSUhEUgAAA2MAAADICAYAAABlAjm5AAAABHNCSVQICAgIfAhkiAAAABl0RVh0U29mdHdhcmUAZ25vbWUtc2NyZWVuc2hvdO8Dvz4AACAASURBVHic7N13fE7XH8Dxz7OzCYkEidiqEULsGSRWjFK1qvbepcSW1qxaVar2rFk6UFrErFFbtWrF/BEjQiSR+ZzfH5E0kSEUUb7v1yuvl+c85577vec+8txvzrnnapRSCiGEEEIIIYQQr5Q2qwMQQgghhBBCiLeRJGNCCCGEEEIIkQUkGRNCCCGEEEKILCDJmBBCCCGEEEJkAUnGhBBCCCGEECILSDImhBBCCCGEEFlAkjEhhBBCCCGEyAKSjAkhhBBCCCFEFpBkTAghhBBCCCGygCRjQgghhBBCCJEFJBkTQgghhBBCiCwgyZgQQgghhBBCZAFJxoQQQgghhBAiC0gyJoQQQgghhBBZQJIxIYQQQgghhMgCkowJIYQQQgghRBaQZEwIIYQQQgghsoAkY0IIIYQQQgiRBSQZE0IIIYQQQogsIMmYEEIIIYQQQmQBScaEEEIIIYQQIgtIMiaEEEIIIYQQWUCSMSGEEEIIIYTIApKMCSGEEEIIIUQWkGRMCCGEEEIIIbKAJGNCCCGEEEIIkQX0WR2AEEK8THFmxYK9Qaw9fI3roY/IYW2kbglnBvkWxc7SkNXhCZGx+BjY/QXsmwalP4JGM7I6IiGEEC+QJGNCiDeWWUGvFUfZe/4u01p6UrNYLs4Eh9F35TF+O3+XDb2rYGchvwbFa+p/R+GHXvAwGMxxWR2NEEKIl0CmKQoh3ljrjlzj179uMbBOUeqXcMbCoKW0a3amfODJhTvhTN76d1aHKETaruyHpY2hTDuoOy6roxFCCPGSSDImhHhjLdgXhEYDH3i5piivWDAHbjmtWHv4Gg+jZMRBvIasckLPfVCpN2jkq1oIId5U8hteCPFGuh76iPO3winoYE12q9T3hnm52RMTb+a3C3ezIDohnsKxGNgXyOoo3hrq3hL8LDRoNOn/6Bw68XNMVkf6dPFnv6Z+3px4fLyNByr9euZLM6hm0lPg433EPkP7mdpO3efXAR7kzNuAr8/GP0PrMfzSNRc6i3osuJ1+8Akx6MjTczsxZP6Yn+tYXop4zn5eAaM+P/33vNo9PzN1l0UNLNDatuH76KwO5s0kN0sIId5IZ4MfAuBib5Xm+4nlfwc/pF4J51cWlxDi9aOxKEGzAYMo/nigPPzEOhYE3qBwoz40LKJLqGNdnoK6F7TDiNW879Canxuu4d66Fli+oGYBVEw498PDCXsQScLhxHFslCcVJmkZfuQYn5Z6FZd+8Tx6EEZ4+H3CX0ECm/qYX7CXeL6EkGRMCPFGuvMw4U942dJZMTGx/G64/KlPiLeeVVk6Tyr7+IWZ67OPsTjwDqXaTWLK+6YsDe1Z6T2GsD/kY8x6Ay8qd3xmmpw0WRxE+HwtBr3mpe/utThmIZ7TazlNcc2aNbi5uaHRaPjmm2+yOpz/tN27d5M/f350Oh1Dhw791+19/vnn5M2bF41Gw9atW59p2+joaPLnz4+1tTUVK1b817EIkZGouISpMXpd2hcCBl3Cr79HMc8yhUYI8baLOLOWEc3Lkz+nNZbZXCnTdChrzkQ8fvchgX2LYNAXpPf2h4/LzATNro2dzp56cy/zaFN7cti2ZkMURH3XEiuNkQqfnyXVb6LY3xhUSI+hxCiOJw73xO7j44J6NKaqTA8yPy4M54e2OdFZ1GTWNTPmSzOobm2Ba8/txMSfY3JFK7zG/Ulc3B985mlAm70dG5P/DcocysHprSiTxwaTlQPFfAaw+lzU0zsiw+1i+KVrbiysazHrWmKcZu7s+5JO1QvjYG2FfaGaDFh3mhUfWKYxBU4Rc2k9A2sVxt7CAjvXsrSavIc76UxBTHHMiYWPzrJuaBM882bD0iY3ni2msmfnaEoajHiN/ytlf2dwLNFPOV8Zfx4en7arWxjXqgJu9lZYORTHb/Qv3MzwqyecH9s5oDN589XVJ86z1pb3VtxDPe6n4Pn1sNJm54M19xOqxQez+8tu+Lybm2xWNjgWqkTLMRs4G5nY9uOpoJaNmP7jeJp65MLKKnFaqJnbe2c8cY4ukmpw03ybfV92oVZxJ2xMJmyc3ak34Fv+inyyosiMVMlYcHAwLi4uWFtbo9VqcXFxwcXFBXt7e9zd3ZkyZQqxsS93fmvLli05e/ZsqvKwsDBy587NwoULn6k9s9lMQEAAv//+e6r3Jk6cSNGiRV/6MWWVGjVqcPnyZRwdHV9Ie/7+/uzYsSNTdZ88XyaTicuXL9OoUaNUdevVq0f79u1TlAUGBjJ58uSntitEWiz0CX8fjYtP+9s7Nj7hC87SKH9HFUJkTvyF+bSo0ZrJezVU6zqC0X1qYzowlTY1P2TJFTNgS83Rk2jpdJVFI2bzZxyokB8ZM2E38RWGMrVTfkyeXZn1dXfKGMBQtidzFy9gtF/u1BdkBi/q+uTCfH4Xu68n/L6KP7uL3dfjIfYEO/eFJlyQxx5j574H6ErWxSfPE61onWkw6hsGVLVGo7Gj+qD5LP66K55JEwYU97f603VRJBU+6kMXXyeCd86kQ4uJHMvwsujZt4s5+TmN63/M0pMmqnQaSJ8mTuwb2IrPT6QxsTD+LLM6D+ewS2N69GlJSfMp1g77gN5rbpGpW8LUbb7v7kvryVu5U7Ap/QZ2pHzoHNr13UDqW9EyPhZDBufr6Z8HUA92MKjOe4xefwmn+j35pIcP+g3d6LbkKuYnQ0liTbW61bGOO0rg3gcpzrNZRXIg8CAJqWI4+3f+TrRlJep5ZwN1nx2DalPv42Wcc/Kjz9BBtCkZxi/jWlCj9WIuJ08AY/YzsddiIqr2YMSoD/G01hB1dDwN6w9k6SlLqnVOPEcfMf3P5OconrMzP6DBwJVcLdiWgBkzGPW+AydndcBv4C/PdM+eeEylo3379sra2jrptdlsVosXL1aA6tSpU3qbvTCPHj1SgJozZ05SWWRkpKpQoYJav379M7UVGxurAPXVV1+lem/evHmqdu3aKi4u7l/H/DpzcnJS/v7+L6StM2fOKEBt2bIlw3rpna+WLVuqChUqpCjr3LlzqvhGjBihcubMmel2hUhu+1+3lJv/JtVu4aE035/661nl5r9JTd927hVHJsQzOr5CqTF2Sv3UP6sjeUvEq2uzaiqjxlK1+C4qWXmY2tjBWemsq6rJp/8pf3RsjCpj1KlCA39TMY+3vzyvvrLXOaimy4PU/qHuymD0UMMORf7TVPgq1cwCZdF8jUpWmkrY+tbKXmutGi+9q8wqXl3/upaysCigCrkYlEP7n1SEUiru1KfK06BX7w4/omKVUvFB01VVo1bl7rFNRSullIpVR0e6K73eQ40+EfvPUQZNV1WNKF3hPmrHg8eF5mC1omkOpX2iboreydR20WprF0elNXqrr67GK6UeqA1tHJRWV1B123JPmRO74YC/8jBolMamtdoQpf7ZTmOrfGZfUolXZlGHRygPvUbZNF+jHqZxjE++jvtznPIyaJSN93T1d0xi4NfUkiY5lRaDKjPuTxX3LH2Q5vnKzOchXl2ZVUtZakyqbMDRpG3N97aqbgV0Cp2b6rc7RqXFfOMb5WuhVbk6/awilVKxJwNUKWN2VbCggzIU/kTtj1FKRe9UfVx1ylhturoUr1TcmUmqvEmrstWdo4Jik3amtnYvqHTavKrbLxH/9LHWXvktvKbi1T/11rSwVxp9EdV7e2jSOYr4fYTyNCY7R+YQtdjPpDTWzdXqh4nbhqnfv52hFmz8Q90zK/GMMj1NUaPR0KFDB6pXr86SJUsICQl5WflhuiwtLTl48CDNmjV7YW127dqV7du3o9PJX8dftGc5XwsWLGDSpEkvvF3x9irmbAvAtXtpz5tILH/ncT0hhMhQ7DF+DbyDrlxzmuaLJTw8nPDwcOIK+uFXXMvV3/ZxKR5Ai1uHL/AvH8lGf18+nHmWfF2mMbT8sy/7YFO9HtWsHrE/8ACP1EP2BR5BVezL2PddCdu7i+OxZm7u2cUZc1586no8x0IAWrJXq09Vu8cvNQ6Uq1gEnQolJDSjIY5n3C72FHsOhKIt/AFdfOxJnDxuXa49rUqmEbWhBPXq5ku6/8vkUZHSthAbGkLYU0deFCH793I6zpJandpRNHEUUOtC8w51yZZq5vpz9kGmPg9RHN53mChDedp28Exa+ENjX4v2zfJneH+bxsmHuqX1hOwJ5OTj8/y3RW2Gj6mH3dXd7L4YT9yZney+qaVEHV9ctYrbu7ZxMsYan45tKKBP2hm1O31AYW0wgb+e/GfVSL07PrXy/DMiG3eKfQfD0BVtQaca2ZPOkVWZdrTyTHaONLa4lyyIPnILAe1Hs2Djfs6GGCnbpj+dG5bA/uXfIvjGeeZ7xvLnz4/ZbObGjRs0b948acnXw4cP07x5c2xsbFLc63X//n169OhB/vz5KVq0KGXLlmXTpk2p2p09ezZubm7Y2NhQvXp1/v475cNYz549i4uLC0ajkbZt26Z479y5c7z33nu4ubnh6elJuXLlmDBhAg8fPmTXrl3kz58fgFGjRiVNu7x+/Trdu3fHwcEBjUbDhQsXktpTSjFjxgzeeecd3nnnHQoVKsTIkSNTTGVM3M7FxYVjx47h5eWFjY0NNWrU4OLFixn2YePGjbG3t0ej0bBr1y4qVKiAtbU1+fPnT3GP3KxZs5L6d968eYwYMQJHR0c0Gg2tWrXKdKzJjRs3DhcXF6ysrGjUqBHXrl1Lei82NpYRI0bg5eWFl5cXpUqVokOHDty6dSvNth4+fEi7du2wt7cnR44c9OvXj+jo6KeeryeVLFkSW1tbXFxcUvTRzJkzCQ0NTTpnAwcOzLDdM2fO0LBhQwoUKECBAgXw8/PjzJkzKeps376dypUrU6ZMGUqVKkWjRo34+eefM4xP/De52FtSOJcNl0IiuB+Z+v/DsauhGHQaKhd2yILohBD/OeZ73AkxE7NrAEXsbLG1ffyTvTxjT8ZiDrnDvcR5Z4Z36dqnLlY3L3Iptgxd+9XELsPG06bJUYu65Y2E7t3JifBDBP4WhXvtOjSs403267vZfS6UvTuPEOdQm7pljc91WEZT8u006HRaNEqhVMZZzzNtZ77H3RAz2jz5SDGTUudM3txpXYqaSNm8Fp1Wg1KKp4QFmLl39x5mjT0ueW1InhuYcufFIY3dPVcfZObzEB/B/fsxoHMiT64UB04u51wZX4Rr3fCtWxzNld3suniPvTuPoq3gS736vlQxnmbn3mCu79nNWQriW6cYusTj1tqTN3fKxF/rnBdnrZmQu/eSTY3Uo0+eDZofEHrfjNYpD04pQnXEOUXsBsqNXM/S/lUwB06iW+MqFHfKiVvVLsw5fD9z00hFCs+cjF24cAGdToerqytz5sxJum/H39+fZs2aceDAASpVqgRAXFwc9erV4/Dhw5w4cYJz584xePBgmjRpwvbt25PaXLVqFX369GHgwIHcvXuXBQsWMHLkyBT7LVasGNevX6dkyZIpyq9du0blypVxdnbm0qVLnDhxgoCAAEaNGsXZs2fx9vbm8uXLAIwdO5br169z/fp1XFxcmDt3LkuWLEl1jP7+/owbN47vvvuOv//+m927d7Nq1aoUF//Hjx+na9euREVFMWnSJGbPns2mTZu4cuUKvXr1yrAPf/rpJyZOnAjA8OHDWb58OSEhIfTr14+ePXvy3XffAdC+fXv+/PNPAObOnYulpSU7d+5M0X5mYk20evVqrKysuHDhAqdOnSIoKAg/Pz/M5oT/mhEREcydO5f169dz9OhRjh07Ro4cOWjevHmav5DGjh1L27ZtuXPnDmvWrGHx4sUMGjQow/OVllOnTtG9e/dUfdSvXz/s7e2Tztm0adPSbffq1atUqVIFZ2dngoKCCAoKws3NjerVqyclkzdu3KBx48Z89tlnHDt2jOPHj1OoUCG+/vrrp8Yo/ps6Vy2AUrDu6LUU5QeD7nElJJIPyrpiZyGLygohMkGbnZz2GvTuvVi1ey9796b82b2qF+6Jv05i/2TezF+IsMtJDnWMeV8GPt+9NNrc+NQthfbabrZt2M6ee/moWbsotpV9qWbxJzu3/cSO3yKxqVGPKmk/xeP1oLHB1laDOeQ2d5PfKGW+x92QF335rsHG1gaNCuNOSMrVcuNC7nL/Re0uM58HgzX22Y0QH8z/biU/8Hhu3QjO4J4xAD3F6/iQ33yanb9uYsdvMXj41MQ5pzc+Xorfd2xha+BR4p1rU7eUHtBi75ADrTmUm8EpF2Ax37rBLbOWHA726V/4a7Nhn12LOfg6N1OEeosbwU9EalWc1tN/4eydEK6cCGTVpGbYn1pE32ZD2f4ok/0nkmQ6GYuOjmbWrFns37+f3r17kz17dhwdHcmVKxeQMJLRpk0bPDw8mDVrFtWqVWPdunUcOnSIgIAAsmfPDiQszlGuXDkCAgKS2g4ICKBs2bL0798fCwsLihYtSs+ePTMV1/jx44mIiGDSpElotQmH4+fnR61atZJeP4vEi/6uXbtSokQJAFxcXPD392ft2rUcOnQIAFdXV+zs7AgJCeGzzz6jYsWKeHt707VrV3bt2vXUvyglGjFiBEWLFsXCwoKBAwdSunTppL6xtbUlX758SfsbOXIkJUqUYPTo0XTq1CnTsSZydHRk4MCBWFhYULhwYSZOnMgff/zBhg0bALCzs+Po0aNJI4k6nY7u3buzb9++NBdUqVu3LnXq1EGv1+Pr60vXrl2ZN28eN27ceLZOfwHGjx9PeHg4n3/+edJo4sSJE3n48CFfffUVkJD0PXr0iIIFCwKg1WoZMmQITZo0eeXxilejZbl81C6ei2m/nmPL6WCiYs0cv3afwetOUNDBGv9672R1iEKkLzoMou5D7OOptvExCa+j7oPK+DJOvASGMtSqngNz0DEu5ShH1apVE37KOXD32AkuhoNRAxBP0IKPmXTYQK2JO1jZNR9XFn7MxIPJpkxrHo/XREeR8cM1dBT09aWoOsWy8d9x0d4bH08DZKuOb3kN+7+awJY7JqrUq5HhyJtGowGiicqqJ3kYPKjkZU38mQ2sPvpPP8ScWcd3x1/0AmpanMuXp4AugsBvv+d/if9VVAhb1/z6z+jls0jrfGXq82BBuerlsYg9zPJFx0g8chXyC4s2XE29guYTDKXrUdspht9mjmdraAFq1yqITpuXmrXf4dGOiXyx6xH2tepR3gSgwalGbUoaIti+bC1XExtXD9izbD0XzE7U9ClF2g97AfSlqFYpG+Zz61i0858RrvDfl7DqVLIFPMyX+XnyYHqP28wtnS2upWrScvBMPqlpwnznAhcynN4q0pJhthIZGUn+/PnJnz8/BQoUYOXKlcybN4/p06enqlulSpWkf5cpUwZ3d/ekVfcqV66com7p0qU5ePAgkZGR3Lt3j3PnziWNpiXy8vLK1AFs376dwoULJyV7ibZt20aZMmUy1UZyu3btIj4+nnLlyqUoL1++fNL+krOxseGdd/65oHNxcSEmJob79+9nan9ly5ZN8bpy5cr8+eefPHz4MEV58v51cnKiTp06zxxrWvsCOHDgAJCQnPz111/4+PgknffatWsDEBQUlKnYY2NjOXr0aMYH/RLs2LGDYsWKkTNnzqSybNmyUaBAgaTPoaenJ7a2ttSsWZOpU6dy9epV8uTJQ9euXV95vOLV0Gpg7kdl6Vu7CJO3/o1HwFa6LztCzXdy8X3vKuk+g0yI18LMMjDJDTZ/kvD6xLcJrye5QejlLA3t7ZSNRiNH4W35O6N9atB++OdM/2IUnWrXpsXHAaw+BwbAfHMNQwICiS49kMmdS1FnzATet/+bmQOmcypxjXBjQYq66Yn+NYDmnQcw50BEunvVu9fF19VM0PnLWFX1oZIloHHC28eD2KAL3NSXpW4tB9K/VUeHS5FCWMVfYEGPNvT+9HuCXvUTPTSONBvcA3ftaaY0rk3HkZP5IqA7dRrO42aOF/+UJb1XT/zr5yT0p17UajKA8VMmMfiDmvTfrcP2eXaX5vnKzOdBi8uHI+hWDI5PaECNNp8welRfmlTvySFbl6c/E82iIvVqZuPRxQsE56qJj4ce0FGsdi1cQoMIemBN9XpVSRwU1b3TgwndixG5pS/eDXoxZuI4PmlVg+ZfB5HTbyzDfK3T35cmO439P6asxUXmflCVZv1GMXpgS2q02Az5kkWqsSXm9CrmjmmHX/sxfDlnFhN7N2P4lhhsKzaitpPcNPasMvxIWllZcfnyZS5fvsyNGzfYv38/Xbt2TXPEyd7ePlXZ3bt3gYTEKvHiPn/+/Hz//ffY2Nhw69Ytbt68meb2TyZX6bl79y45cuTIVN3MtpdWPIn7SHw/UbZs2VK8TlwIJD4+c7/pntw+cT9Pji5l1L/PG+uT+woMDMTPz4/q1atz7tw5Ll++zL59+wCIiUn1lIlMx/4q3L17lwsXLqT4nOXPn587d+4QFhYGgLOzM4cPH8bb25vRo0fj5uZGzZo1+eOPP155vOLV0Ws19PIuxM5PvDk/vgG/j/DhsyYlJBETr7/BFyDgQdo/OQpmdXRvJUPxvvywcwn9ykWzY9Zohoz6iu2RXvRdEsiargXQqlC2jBrGD/cK0vWLgXgaQePUnAmjvDEcmcyAuRcSRkP0ZRm69Atal9FyYtUCFmw7TxoLvCcwelG3tiNajYkKvtUfj4DpKFSrFgX1oC9RF1+XjC7nNDi2ms7ij+uQ99ZWFn61jqPhL7ZfMsO66nh+/nEszQsE88PU0Yxbeobin37LsDIGQJNBMvkctG50WPErC/pWRX94AZ+Nns7W+JbMn9WSXNp/BroyLZ3z9dTPA6Cxq8nkrRsIaObGrZ9nM2XOdszNF7CkW8FMPKDammr1qmGl0ZCtuu/jETAwlPbB20GLxqIS9Wr+s9gGGnt8pu1g69QPKXBtA9M/m8iSwxb4jFjD7tWdKPiUHZpKD2fjz1P5yOMRexZMYeYPd6jx5Rr8UyzgkZP3vt7K0gGViAucwZB+nzDpxxA8us3m1/X9KCrr4T279JZZfHJp+/Rs3LhRAer8+fOp3uvcubMCVERERLrbh4SEKED16dMnRfnNmzdTLW2vlFJeXl7qww8/THpdqFAh5eHhkWGMGS1t/2T8y5cvV4D67rvvUtQ7fvy4AtS4ceOSygYNGqTy5s2bol7i9nfu3Mkwpjlz5ihABQcHpyjv1auXAlRYWJhSSqmHDx8qQM2fPz9VG88Sq5OTk+rRo0eKerdv31aAGjhwoFJKqS5duiiTyaTi45MWOlWXLl1SgPr++++TyhKXtl+9enWK9tauXasA9dNPPyWVPXm+lEp7afu0+jK9pe3TardQoUKqfPnyadZNy8OHD9W8efNUrly5VO7cuVVsbNpL+AohhBDiRYhSty9cUaHJlz6PPa3GeRmUzq2fSmeF9+cWF3ZFXbwZlaLs/vo2KqfWQvnOvalkBXbxunjxY8PJ+Pr6Agn36iT3xx9/0KNHDyBhNKVo0aJJU+USHT9+PFP78PHx4fz58zx48CBFedu2bZOmp2m1WrRabdJ9XGfOnEm1WmMib29vdDodhw8fTlGe+NrHxydTcWXWsWPHUrw+cOAA7u7u2No+fbntZ431yX3t378fIGmKaGxsLBqNJsX9bhmNcqXVnsFgyPQU06cxGAxJscTHx7Np06akxUae5Ovry7lz54iKSnnT6urVq5PuGdu7d2/SgjM2NjZ07dqVsWPHcvPmzSx5VIMQQgjxdjBzbckHFC/2Dl71ejP2y2+Y+9V4+jZswoTjBjw7tqPCi5ysELmfYRWLUNSjCh8O+4Kv585h6oi2+HRfw33n9+jS2OnFjsQJ8S+81GSsefPmVK1alaFDhybdQxUaGkrfvn1xc3NLqhcQEMDRo0f56quviI2N5dKlS0mrDT7N8OHDsba2Zvjw4UkX7uvWrePAgQNUrFgRSEjGXF1duX79OpCwAuHu3bvTbC9xCfX58+dz+vRpICEhmTx5Mi1atKBChQrP1xnpmDNnDpcuXSImJoYZM2Zw/PjxFIubZORZY/3777+ZNWtWUh8PHz4cDw+PpOd1NWrUKGl1SIDw8HA+/fTTdPe/atUqdu3ahdlsJjAwkIULF9KtWzfy5MnzHD2RmpubGw8ePODhw4ecPHky3SmykLAQisFgYPjw4UkJ219//cXgwYPx9PQE4H//+x8TJ04kODgYSEjwfvvtN9zd3XFycnohMQshhBDiSVpc2y9n+6LelLz3MzOG9aOv/1Q23i5Gh5nb2DLKC9OL3J1VZcZt3cTEhnYcXzqWgX0/5tOFR7D0HcHanYto4SypmHiNPDlUdvPmTeXm5qasra2VRqNRbm5uqnnz5mkOqw0fPlzlypVLASpv3ryqfv36qeqEhYWpvn37Kjc3N1WyZElVpkwZNX369FT1Zs+erfLly6esra2Vl5eXCgwMVIDKkSOHeu+999TZs2eVm5ubMhqNytraWrm5uSVt+/fff6vGjRsrV1dXVapUKdWoUaNU0ybXrl2r8ufPrzw8PFSjRo1UZGSk6tmzZ4r4E+Mym81q2rRpqmjRoqpo0aKqQIECavjw4So6OjqpvVq1aik7Ozul0+mUm5ubunz5svL391cODg4KUK6urimm9j0pcZri8ePHVbVq1ZSNjY3Kly9fimmZP/30k8qXL58CVM6cOZWbm5t68OBBinaeFuuuXbuUm5ub0mq1auDAgap///4qd+7cytLSUvn5+amrV6+maG/atGmqQIECKk+ePKpKlSpq9uzZClCOjo5q+PDhatKkSSpPnjwKUIsWLVKNGjVS2bJlU/b29qpPnz4qKiphSkBa5ysqKkq5ubkpKysrZTQak/qtdOnSKfrywIEDSimlwsPDVf369VWhQoWUu7u72rBhQ4afg3Pnzqn33ntPubi4qNKlS6uqVauqLVu2JL1/5coV1atXL+Xu7q48PT3Vu+++qz744AN16dKldM+TEEIIOe8lDwAAIABJREFUIYQQL4tGqUyuwS5eqG+++YaePXvy6NEjLCwssjocIYQQQgghxCv2UqcpCiGEeH1179490/fnCiGEEOLFk2RMCCHeUuXKlUtxH6UQQgghXi1JxrJA48aNGTZsGACFCxdm1apVWRyREOJt1LFjR0qXLk2zZs3ImTMnFhYW2NjY0KxZM0JDQ7M6PCGEEOKNJ/eMCSGESHL//n1GjBhBXFwcc+fOzepwhBBCiDeaJGNCCCFSiIyMxMPDg4sXL2Z1KEIIIcQbTZIxIYR4CwwZMoT58+enKIuMjMRoNFKiRAnOnDlDWFgYdnZ2aDQJz+AxGo3ExMSk22ZYWBj29vbcvXv3pcYuhBBCvKkkGRNCiLdQfHw8jRs3ZsiQIdSoUYPTp09Tu3ZtLCwsKFiwIF9++SUlS5bMsI0CBQpw6dKlVxSxEEII8eaRBTyEEOItc+DAASpWrMgff/yRVDZmzBhmz57NlStXmDVrFp06dQLgl19+oXr16tSqVYutW7cybtw4atSowebNm7MqfCGEEOKNoc/qAIQQQrwaISEhDB06lOPHj7Nw4UJmzZqV9F7r1q1p3rw5AO7u7mTLlo0LFy4wcuRIfv31V6ysrGjUqBEeHh7s2LGDVq1a8ejRo6w6FCGEEOKNICNjQgjxFoiPj6dEiRK4urpy8OBBSpUqleL9xEQM4Pjx44SGhnLmzBl8fHywt7fHZDKxadMmvvjiC/R6PdOmTUuxvUajSbrXTAghhBCZIyNjQgjxFtDpdHz99dds3bo1VdJ04cIFvv32W6Kjozl79ixXrlxhxYoV2NnZMWbMGPr160fu3LkxGo1J2+TLlw9LS8tXfRhCCCHEG0WSMSGEeEvUqlWLHDly0LVrV7755pukchsbG/bs2cOlS5dYunQpVatWTUrYPv/8c5o3b06tWrUYO3ZsVoUuhBBCvJEkGRNCiLfAyZMnadq0KUFBQWTLlo1u3bolLVvv7OzMjh07WLx4MUOGDGHKlClUqVIFAF9fX3x9fbMydCGEEOKNJUvbv8Z27drFrl27sjqMt4q3tzfe3t5ZHYYQL8W9e/fIkSMHABcvXsTPz4+5c+dSo0aNpDq3bt3i448/xtHRkQkTJmBtbZ1uexUrVuTgwYMASSNp8pUihBBvkdjf+KT8bCrsWckHtlkdzH+TJGOvsYCAAD5ftB5Tvoyf9SNejOhrf2By9eD+vm+zOhQhXhmz2YxWm3otp82bNzNlyhRmzZqFu7v7U9uRZEyIt0jsM6ykakjj3tJn2T650MvPt11GchV/8W0C9yJiXkq76clhvvfiG7V1TlWUf+iTjzWJIHLzAMIs2pOjXCkMVhagAdCi0emea7eXJ/k913b/VTJN8TVnyleS7FXbZHUYb4UHv61EriPF2yatRAzAz8+PGjVqSHIlhBAiA9ZY1R6Mef/3hG5YQuy9O8THxgMaMDlh4dmNnDXKo5fFdtMlyZgQQog02djYZHUIQgghXncWRbGp5U/CN4ZCxceBOYr4u4d5sGUmIXZTcCqTepRNJJDnjAkhhBBCCCFeAA0anQGNwRZ97lrkqFKS2Isnic/qsF5jMjL2Ei1btoxx48Zx5coVihQpwsSJE2nUqFFWhyWe044dO5g+fTpHjx4lODiY5cuX07Zt26dud/jwYfr168fx48dxdHSkZ8+eDB8+PN06UVFRL+sQhHgh1h25xuDvTmV1GEK8cOrBUb7q2IrRgfFYhV/i5jNdQRop37Y+d3cdJSY+nDvB94nR5SSvJoTrselvU3PWRbb3dsngr+Nmrs9tQr1dH/Dj8nYU0sdxYnwlqo0+hr5YdsLO3MOc1mYae9r/dJMlDU3/lMWdYHSZcoz9Iy7zh2XIjSH2JgmHoMO5ZHZunwpJe58pAyBHu/XcXNoUY7LSyDXNydlqPZn5ptM5F0EXfJ6Yx/uuM3Apm/3LpH3xGvMrLQoPYF2cI+Vd7vH7lcycPCMNlwSzsb19JuoCRHHhuwCGzP4dXbWP+azpXWYPn8cxfWU+qmPidGx9AgZUw9F8gokVyjHlz2fpZ2cMscGk+1FJTpcDffw9ElrX4VQiO3dOZ3RONFgVykbUxfvp1tHau6EPvZLU1wV6beDs7MYYktWJXNOcq5+vJ+3J61q02bSYH6R1zPu4uXAJ8XcfZuLgNOS8tZGbi/1SfG7eZJKMvSRbt26lQ4cOTJw4kQYNGvDtt9/SrFkzDh48iJeXV1aHJ55DREQEnp6edOrUiffffz9T29y6dYs6derQoEEDvvnmG06ePEm3bt2wtramf//+adYRQgjx6pmDN9Ovfn/+rDWSTSebUS63ieRXnTGnv6CO349UXLCYtqFz6T9mJ7m7z2BKn2o46wE0aA167v4ynPaf/kW7qSPo0agMzkYz5ievXs2X+LLO+9ye+DsTK1unTsTMtzm+8yLZy5cnX+wRFn17jOC/jjBm43usaGrB/y78jxrz/se6D7Oj02hSXhxH/ELP0jMpvXsTPfOZUrarL8XIH77D8UgROjcpRKaWV1AKpYlhc8fCfNvgLCubW6GNe5TOBTlALHs+qcDkd7ewsatLqgtqqw9W88AvPIPtIfrHThT8vilBSxphIppNXUrwbf1TrKkTil5FcmbzEiYu3MLOv28TobOnaFlvOnZ2Jc6qPmsOT6SJSQMZ7SH+PBOafIpm6jJG1sxsIgaoB1y8lpM2E8Zwc/KHeM5wpvfyhXwdPZvWH83ghu1SDlxdwrbpPgxavRqH44Vp61cwc9PQlEJpNKS8tSqGI6MqMejBIKYO9KN0/mwJ50yZUZpYtvV4l3V1/2Dee3A+wJueMZ+yd3xF/plgHstvI+swruBKNnV0Rv/kZwWICRxC8cUVOLq0Kdm0sWzuWYlv6/7G6vftUiRikHDuXI9seiLuCCJ+6Mkj94U4FDGAJprovUO5ffh/YMyBsWgLctSshUEPZHjfWDzRO/rwwGEC/5tf/61JxECmKb40U6ZMoUGDBvj7++Ph4cGkSZMoWbIkM2bMyOrQxHNq3Lgx48aNo1mzZpneZv78+Wg0GhYvXkypUqVo164dvXv3ZurUqenWEUII8YqpEH4cMoTzHTeyZWoHqrrZcGNJd4Zuj8JkMmEyRvLL1CXkGPsdUxqWwOujr9h9cB7V/xxMrdr9WH46AoPJiP7uOgZ+cppmy75jfOsKuNoYMBhNCW2k+DFi0GrRG00Y0roSU+EEbZ3IByXz4FSiM4drLebnEcU5e/IyieMOWr0JSwsLjEltarizbybtvTux8q4Gg8mEPlXbGvTqIhvmbeeO4Z94tJFhPNKlFacJk4UFFiYTBp0GncGEhYUJY3wQa/2bU7FsRSp9MJatt6I5s7gb1crXo8uSM0RpNej0JkypAwCtHqMxipML+1GnUkVK1+rAlP0PCD88g+ZVq1D3kx+5Ytai0RmSYkjYtxGDLpqjM3vRZr2RVpOXc/GvA9zY+SWD3w1ifJuJ/BijxWAyYjIa0NzaS0CntpSu1ZL6I7cSFBXM+mGd8Go0mGnHItBqQG80pNFH6X1EfmDQwL14DhhM80o16Na5NvYVuzKkcSk8P5jEmMYOlBu5lNYnBzImMBI9QWxcFMjd5P38KIyop/Rz4mt9xGnWDWtMlwWXeHhpN8s+roNP62kcCTdisrB8fE5IOCfaY6xcd4HrW6YwcMFJwo1GTKaEH6MOdDpjwnkz/VOe9GPQodEaMFkmO896I8a0VtzQ6hOmID7+IewoD34YSujlGDRaAxq9Ae5s4sHtyuTqtY58vSeRTb+Zu7+dBb0BjfkmkYGfEby4L8EbVvAoIobYU9MJXjKMkFNXEpJRrSHtz80b7O062ldEKcXBgwfx8fFJUe7r68v+/fuzKCqRFfbv30/16tUxGv/5G4+vry/Xrl3j2rVr6dYR4kW4fv06Xbp0YeLEiXTv3p2wsLA06+3evZsePXrw2WefMWrUqFQrKHbs2JF69eq9ipCFyBLma6uZ82cTxvcsjgUAWnLYRLDvwIWE5CfuJLuPe9GulVvSaJIuV2X6LjtIYIALP7YpT4ull7j47TcEtZhAl6L/8ve5riDvf/ETRy7d4u6N02wMqMT9s9exc7BP88It+tp2JrfyovInf1Jt1jd0zpP+5Z02XwXKBG/ll+DE/+fRbB1Qlr6bEycOxnFuUScaD1jP1TRn2YWza1QnFuQcwY6Tx9j1mQMLW3jTdY8vaw+tps3fYxj2y4MMxqUUd34YSLdtnszac4w/fuxNxOSGVBt+je6b97G4yjb6jT+S5nQ9882NjJh5nIuHVuE/cg7fXYjBwrEY7w+ZzfYxFbBNzB9i/2Zyz7lEdJzNyb2rmFtmL50b9GdF4QB+X9OR6K8m8m3ws60UqzFEcS3wEEFxCnPUDfbsOE7owQWMXbqTUzcMVGrdi8blKtCxXX62bzxGvEs5St36hcBb//TzjiGVGLr1n36+uKwbHw75nuvJ+znuDocX9KJehZass+xGQIdiFGg4mjmb9zK77C98/NkOUj0YwFibuWeDuPZTL2xX9mXM3pe8rH7sDSL3fsqN1esxFx+EfZHEEdhYok7sRl/mfSys9aB3xLJKQ/RXDhNjjiJqz1TCLdvg1HkOTtWzEf79J4Rc9cKx/QisQ5YRGhTxcuN+TUky9hI8fPiQiIgInJycUpTnypWL4ODgLIpKZIXg4OA0PweJ76VXR4gXoU+fPrRv355hw4ZRsWJFxo4dm6pOdHQ0Xbp0Ydq0aYwePZqrV6/y888/J72/dOlSWVVRvPHC9+/mSkUfSiabl2VbqQq2+/dw1QxorLExXOP8+Wsc3/AFvRtXpYRnY2aeUrjV7UPb0pY4Ops4sCeYSjWLP3EPiCJk/5d08n6HPDntyZm7KJWaB7DlxtPvugIz4dd/Z6V/Yzr8UJx27+VNeeGmbrN3Siu8yvViv8dUfju0hN6VHDOefmgoSxOfIJYsP/t4UQUdTrntuHjqHJHxYfy9tj+thu8jaGNP2s06l3rhhajdLNtcnI8HViSHVoOdZ2+mjurDp+Nbk9/CifqffUzlmMj0kzF1j83Lj+M9qDMeNhp0DlUZ/rk/g8eOpEEuCwq0HE/nd8LSXvAh3pG6gyfw/ZIJDCt1jiHtp7P7EYCBIs0bUe3x+Ys9tYnVdh8wopYjBo0FRVp8wmc9e/JFx8JYZfdk2NAamO5npv+TsalIVYcd/Lh9Jd0q1md8aBc2/zwQx31zmLz+HHmbjaFfFRPXL9/Exj4bGoMX9WteYtWqc0n9nMvZjkunz/MoPozzGwbRJeA3Lm/pS6+554nHTMihOfTxLk3bFVrarzvM9+M/oGhihqmxxbNjG/L/fSrtexm1BqytrbAyhvDN+x4UrNOf6QdCUvZj1CXWj+mIl3sJ7F3dcavciq5L/0yd3KUrjrigFdxeNIQHD8rg0P5zcrjnR5s0iKbDUOxDbFyS/TFCxUN8LMT9QcQFV2wrFEer0aB1akyOKk3IXqMmer09ltWbYTJHZTh99U0lydgrlvhgVCHksyBeJqUUv/zyC5UqVQKgSpUqbN785MM64ciRI+TOnRsrK6tU9f766y/Onz9PkyZNXl3gQmSBe7fuYpfLIUUSo83XED/zKpadigW9F30+LcX6BuXpsPQOZYevY88XLswbvoIbD3bw0+lqNK/2iDv3suGQM+Wllfn6Ejp+tB7nIZs4ezuU4L9+xL/AOQ5lYoEJ88UvqV+kMn225mXYT0to5/LEZZs5hD+2H8K6xypWjaiDa6YG5ExU6dkV/YJx/HBHAXrKffIV9Q+1pqiLB62Wm+i/9QiHl7bl1rdr+TtVmHHExpHsuZwGivh1okGBx71nW4MWDXJlcHtQPHHxKRMhm5Lv07GGc8JFqSYXTVvUwJTGlloXbz7u4Uft8hVoM/QzPnb8nV/PJQSosbLCKnGncXHEJR/h1zrh82Ed3C0e90CJejQt8owPJNa60bJjAb5foPjs2El2LemHT9XWBCxYy4p+XuiJ4+ziD/lgcT76dy6BHhMVunZGv2QiP99N6OfS/Wfgc+QjyhUtQ5dVRrr/cIAd81pze813nI+P4cbvP7A7vgMrfp5FW8/Uo6AxVy5yL08+HNIKPXw//m1noh++nXtXDrJ12LscHNyekfsjHic40ewf35mR13yYu/MY964cYf/0OkQc+5OITGdAMcQHnyDWvhWODRphsnoyQi36AlUxWTw+EXE3iQjcQFyhKhi18SgzyW7l06MvXA/L7I/bMJbCupB9xreVvaEkGXsJbG1tsba25tatWynKb9++LSMgbxlnZ+c0PwdA0mchrTpC/Fv3799Hp9Oh1yf8jd7Ozi7ps5fc7du3sbOzS3qdWC8yMpLJkyczevToVxazEFnFNpsN4aEPUq40pytEu77FWDdyCZfjteRtOofjwTc5+eNkOlbMTY6KVSl29gSnTxzkj+LVKGtpT87sody+mzJ7iT74C8eqDmZ0g8LY6sBgX5z3Jk6nW6GnX4JpC/Vl7aYA6hTMhbO9ReoLVV1xev2wld6XPqbVlN95kMmLal2xnnzR4i+GDfqeYDNoHLwZtelPrt+8womN02jvaYcxlxM5NCr1SIWpOi1qHmP8yJ+4EJHW6JIGvV6X/kW1xoG6zYqw+dPJ7Phf2iMher3+qRflKuIqF+454OKYuqahVF0aB69g8Npz3E8r59XoMDxjLgYanFqOpVvIp/RaEkTqGZxabPOXp3S2i5wISpiKqCvSjU/fP8Nnw37kthk0OavzyXcnOH3xArvXfUGrknYYHJ2w1ygUFnj0/ZEf+t9hUu95/Jlixp7i3s4JdP08lA5DG2GXat/wcNsKdpQdTICvG3ZW9hSt2Z2Vqz7COig04XMdH8T2PTZ0GN6KsrmMaLSW5K3QkdnDamCV6T6wwlR5LI4FT3J386/EPtkJYUcI27+SB/tWEPrr5wQv9OeB5gMcq7mj0ZfA2u0CD3YfIC42nQ+q5u1MS97Oo37JNBoNFStWZPv27SnKt23bRuXKlbMoKpEVKleuzJ49e4iJ+Wf+9rZt23B1dcXV1TXdOkL8W9mzZyc+Pp64uIRvy7CwsKQpssnlypUrxb1kifUCAwOxt7dn2rRprF69mkuXLjFp0iQePszM0sRC/Ldkr1wNh33bOJ3iRiUNjs2mMiHXLNpN+J2HT1w/Rh77nTMOLjjdu02UgyOWmuxU93Fh54YDJL+ONhQohOPls1xLfuGqdyJPrsxkA3py1x7JijkNOTuiBX2/PUOqu2ositFu0Vp63x1Fi6HbuJWp5fitqDBqGb1uDuK94YHceTKnUiEEzlyD5v1mFH8yTI09Dacto0fMbBq8W4J23917xqllWlzbzWWJXxAjar6L+6CdmVrmPoW4M0xuO4lLbQbQLq374yxKM3Zhbxy/H0SJsj2Yc/UZpySmx/Au/ZcEYPFFM3qtv/LEfW1a8tQcxNRujuzc9vfjZM0KL/9FdA4eQtuAXdxNo5/3fr0OTZP3KKoDsKBQqznM63yXKT0+51DSVEoNOWoOZ9n382hbLK0xQ4iPfkScLmUSrHNtRNuqj4cDtU4Ucr3PuYsRyc6XBntnp39GFJ/KjDnsIfoy/jgUOce9H9cTHZ18BBLiL2/lwaHdxFmVJXvz2eRpWAeDAcAGS58h2Jp/5Na8Ltz9W75LEkky9pJ88skn/Pzzz3z++eecPn2aoUOHcurUKQYMGJDVoYnnFB4ezokTJzhx4gQAV69e5cSJE0kLcQAsWrSI+vXrJ73u0qULZrOZjh07curUKZYvX87XX3/NoEGD0q0jxIug0WioW7cuBw4cAGDfvn34+fkBYDabuXr1KgBly5bl5s2bREZGpqjXsGFDpk+fztChQ2nVqhUFChRg6NCh2NraZs0BCfES6Yp0ZHDJ9fQetYNbyZMmTS4af7mQJvvb49NzPr9diyQ+9j5nN31K045bqOjfkXdy2qMNvkmE0lKgwxjq7+tN17lHCXncjr5MPyaU+Y6mHVZz8zlzAr1zLUaunE/TS6No3n0xf4Q9kf7onKkz8Tsmusynbc+1XEpv5CE5ixL0X7WYeoc6UKHeJ8z/9TgXr1zgxK7VjG9Zgy7n2jN3gHua959pbEvS5etfOHflL5Y1z/HsU8s0OagyYBEHzwXx19SajxdNeQb6d/h47Xq29HTHOp0qpoJ1mbp6I9ePf0PPfC/uclef/0OWbfIn7tMa1Oi9gAM3o5PeU2FHWbL2Gp4VCv1z36CFO92XLKD24c7Uec+fZTtOcOnqRf7Yu5Zp7Xzof+EjpvV+N1k/a8lZdThzRruw/uPRbL+ZuWeV2VWphevPM5h97H6yUTsr8uTN/nj6Zw7eH9aRu6PbMPZopp5mllrMLu6v6M3dM4/Qv9Mbx/LRPPhpMY8S5znalMW+9dc4+5Ym/vwuHt0NS5moGwtiU3cSeXsvxOEd+S5JJMnYS1KvXj2WLFnCggUL8PLyYtOmTaxfv16eMfYfdvDgQUqXLk3p0qUBGDFiBKVLl+bTTz9NqnP16tWki19ImIL466+/EhQURPny5Rk6dCijRo1KesZYWnWEeFFmzZrF4sWLGTduHAcOHGDUqFEAnDp1KukB9CaTifnz5zNgwABGjx6Nm5sbDRo0SGrj999/59tvvyUoKIiZM2dmyXEI8dJpHGj05TJaX+hNqUKlKO9VnVH7EmYraGzLMuiHrYwtfJDRfu7kK1CWD+eF0nT5bua954TRowLuJ39l90PAtjoTvv+cgpvb4+GUE2fPoeyNdaL+9N84urA5uZOuuvQYjCaMz/K0V70ztUauYUmrYLbuj0P75MYaW8r0XcE8PzPXIzOXHmkcvAnYuo/5fpGsH/we5d8tRa0OUzleJIBff+yPe9IgjAaD0QqjIXPtWljZYWP95FOqMk9jYU1OW6vHSV5a+9ZgNBmfSAINWNiaMGUqRAOWVtZYZ65yKsZCrVl04Fc+yfkLvcsXokTNJrRq1ZAKZTtypOFCpvhlS3k8Oavj/8MuZtR7xMYRzfEtW5b3us/gVOFRrF/Th3fSGOyyKPIhk75ogLoZhYUprb7UoE/WL1rXNiycUpo9/RvQcnnw4ym3GqxtbDEZE0bMLNw78uPeDfiXSdae3oClSf84IdBgMFqmf56NNcj+4UxyvmMLaNC6tsGxZn5UeLL6GhuMJXvh3LIN+ovTCf5+DY/CMpf8aQxWaAxv3yOQNerJNYzFayMgIIAZ28+TvWqbrA7lrfDgt5UoBff3fZvVoQjxn5O4II18pYj/NjMRty5zM8aefK72mXvwrLrLqhZerG54mB/aZ7Rwxb8Uf4UNQwax/IYVD49uw2VaEEsaWr6svWUsNvPr72FII8Zn2T650MvPt11GchX/d9vH3ufKX6cJum8kz7ulKOaYkFndi3i1tx7kMN978Y3aOqcqyj809UJQ6Ysj/sqPhO45AO92wr70u+gyMQx0eZLfM+zjv09GxoQQQgghANBi7VSQwplNxAA0DjQd8xWdy9q91JXg4k7MY9x5P+Z/1ZTcsXacn9mY1qPXcjqzq3aIl8OQHbdSValZo3xSIiYS6dG5vY9D68FYR+8g/NpzJuFvuLdvLPA/JvraHzz4bWVWh/FWiLr6ByZXj6wOQwghxH+MRYnGNH7J+9CX+JB+LgH07GPFOzO2srCxMzcCv+P0zThKZHv+KYFCvHR6Jywr9yWLxnFfe5KMvca8vb2zOoS3TBHpcyGEEK8n07t0+HotHZIV5a/9EfmzKBwhxIshydhrzNvbW5IDIYQQQggh3lCygIcQQoh/TRbwEEIIIZ6dLOAhhBDihYuLi2P8+PGULFkSDw8P5syZw8GDBzEajRQpUgR7e/t0fwwGA3Z2dhw8eDCrD0MIIYR4qWRk7DW2a9cudu3aldVhvFVkaqgQz+fJkbGWLVtSrFgxRo0aRWxsLNOmTePEiRNYWlqyfPnyDNtq1KgRkyZNwt3d/aXHLYQQQmQlGRl7jUky9mrt3r1b+luIF+DQoUP8+eef9OjRA4PBgJWVFSNHjsTJySmpTlBQEH5+flSrVo0pU6awefNmqlWrxoQJE2SqoxBCiLeGLODxmvP29iYgICCrw3grfPrpp3IRKMQLEB4ezpQpUzh69CgzZ85k0qRJADRt2pSlS5cC0K5dO2bNmoWnpyfDhw9n0qRJBAYGMn36dAIDA7MyfCGEEOKVkWRMCCHEC1W7du2kf+/du5f9+/dTuXJlbG1tAXj48CHx8fF4enoCMGHCBKKjozEYDHzyyScsWrQoS+IWQgghXjWZpiiEEOKlOXPmDI8ePUpRZmtri9lsZv/+/UllJpMJAK1WS5EiRV5pjEIIIURWkWTsJdmxYwcNGzYkd+7caDQaVqxY8cL3sWzZMooWLYrJZKJEiRJs3LjxqdscPnyYSpUqYWFhgaurKxMmTHiuOkII8TRfffUVSqk0F8VZuXIlEydOpH79+q8+MCGEEOI1IcnYSxIREYGnpyezZ89+Ke1v3bqVDh060LlzZ44cOULDhg1p1qwZR48eTXebW7duUadOHQoWLMihQ4cYP348n332GV9++eUz1RFCiMzo3r07GzduRKfTpXqvUKFCbNy4kS1btmRBZEIIIcTrQe4Ze0kaN25M48aNX1r7U6ZMoUGDBvj7+wMwadIktm3bxowZM9JdNnr+/PloNBoWL16M0WikVKlSnDx5kqlTp9K/f/9M1xFCiMwwGo0pXptMJqysrJ66na2tLZaWli8rLCGEEOK1ISNj/0FKKQ4ePIiPj0+Kcl9f3xT3YDxp//79VK9ePcUFkq+vL9euXePatWuZriOEEM/D09OTuXPnPrXeypUrKViw4CuISAghhMhakoz9Bz18+JCIiIgUz+wByJUrF8HBweluFxwcnOY2ie9lto4QQgghhBDi35Nk7A2j0Whe2nbP27YQQgghhBAiNUnG/oNsbW2xtrbm1q1bKcpv376dalQrOWfAFkWbAAANyElEQVRn5zS3AZK2y0wdIYQQQgghxL8nydh/kEajoWLFimzfvj1F+bZt26hcuXK621WuXJk9e/YQExOTYhtXV1dcXV0zXUcIIYQQQgjx70ky9pKEh4dz4sQJTpw4AcDVq1c58f/27i+m6vqP4/iLP5Hj4oRTT+BYW9CKmEiEoXZC0Np0nrmZfwiNyVzWuvAidmBphlNvzJEt2rJsiTRS+mMrp8elEwI7RDHbOEq0nJ7QnYk7bYYnIA7iOb8Lf54kzA5x5IvnPB837st5v93neONeft++P+3tYVuCUV5eriNHjmjHjh3q6OjQhg0bdOrUKb3yyivBmpqammF3+Kxbt05+v19r167VqVOnVFdXp127dslms42qBgAAAMDYEcbukO+//145OTnKycmRJG3atEk5OTnaunVrWH7/RYsWqba2Vh9++KFyc3N1+PBhffHFF8rNzQ3WXLhwQa2trcHn5ORkHTt2TC6XS3l5edqwYYMqKyuHrawPpQYAAADA2MUEAoGA0YfArW3ZsmXYr7iztm7dqkAgwJ838B/cWPBz46+U5uZm1dfXa/r06bp69aq2bds2YgmQz+dTRUWFUlJSdPbsWdlsNmVmZkqSHA6HysrKVFpaqvXr14/vlwEAYJxw6TMAIKx8Pp/WrVsnp9OpxMRElZaW6siRI7JarcPq3nvvPU2bNk0bN26Uy+VScXGx2traNDQ0pK6uLlksFoO+AQAA44MwNsE1NzeHbbQRt9fU1KSCggKjjwHc9U6ePKmUlBQlJiZKkiwWi+x2+4gwZrfbtXHjRklSWlqa3G63PB6PzGazSkpKdPLkyXE/OwAA44kwNoEVFhZK+mvsB3dWQUFB8M8cwH/n8XhkMpmCzyaTKXhFRih1Ny6aBwAg0hHGJrDCwkLCAYC7jtlsltfrDT57vd5bBqxQ6wAAiFRsUwQAhNWsWbPU3d2t/v5+SdeXcdwYUezu7tbAwIAkyWq1qqWlRZLkcrmUmppKGAMARBW2KQIAxuzv2xSbmpq0f/9+JScnKxAIBLcpPvfcc3r22WdVXFwsn8+n8vJymc1muVwuVVRUBLcpfvDBB6qtrdWUKVO0Zs0arVy50rDvBgDAnUIYAwCM2d/DGAAA+HeMKQIAAACAAQhjAAAAAGAAwhgAAAAAGIAwBgAAAAAGIIwBAAAAgAG49BkAEDaXL19Wenq6rly5IpPJFNyyKF2/1DkpKUl+v39E359//qn4+HjV1NSoqKhoPI8MAIBhWG0PABizm1fbOxwOvfbaazpx4sSwmgcffFC//vrrLfvLysr0zDPPBC+HBgAgGjCmCAAIq66uLg0MDGjVqlXcOwYAwG0QxgAAYVVSUqK2tjZNmTJFDQ0Nt6z5+uuvNWfOHGVkZGj9+vUaGBgY51MCAGA8whgAIOy+++47ffbZZ1qxYoWeeuopNTY2Bj87f/68NmzYoAMHDqizs1NPPPGE9uzZY+BpAQAwBmEMABB2L730kj799FP9/vvv2rFjh15++WV5vV5JUkNDg9asWaPU1FTFxsaqtLRU+fn5Bp8YAIDxRxgDAITV4OCg7rvvPs2fP18xMTGyWCyqq6sLblGcNm2arly5MqwnKyvLiKMCAGAowhgAIKwSEhIUFxen06dPB3+Wl5enhIQESdLTTz+tw4cPD9u2ePMKfAAAogVhDAAQdnv27FF5ebkOHDgg6XrYuv/++yVJiYmJampqUkZGRrA+ISEhGNYAAIgW3DMGABizm+8ZAwAAoeHNGAAAAAAYgDAGAAAAAAYgjAEAAACAAQhjAAAAAGAAwhgAAAAAGIAwBgAAAAAGiDf6AACAyOLz+VRRUaGUlBSdPXtWNptNmZmZI+qam5tVX1+v6dOn6+rVq9q2bZtiYmJC7gcA4G7HPWMAgDG7+Z6xt99+W3/88YcqKyvlcrlUXFystra2YfU+n08zZsyQ0+lUYmKiSktLVVRUJKvVGlI/AACRgDFFAEBY2e12WSwWSVJaWprcbrc8Hs+wmpMnTyolJUWJiYmSJIvFIrvdHnI/AACRgDAGAAgrj8cjk8kUfDaZTCPC1O1qQukHACASEMYAAGFlNpvl9XqDz16vV2azOeSaUPoBAIgEhDEAQFhZrVa1tLRIklwul1JTU4NhqqurS5I0a9YsdXd3q7+/X5LkcDhktVr/tR8AgEjCAg8AwJjdvMDD5/OpvLxcZrNZLpdLFRUVyszMlN/vV1pamk6cOKEHHnhATU1N2r9/v5KTkxUIBIZtU7xVPwAAkYYwBgAYs5vDGAAACA1jigAAAABgAMIYAAAAABiAMAYAAAAABiCMAQAAAIABCGMAAAAAYIB4ow8AABg/Tz75pH7++eeQapOSktTT0zPsZ729vUpMTFRs7F//lvfNN9+E9YwAAEQLVtsDQBTp7OzUhQsXtGjRolH3Dg4OKi8vTytXrtTKlSv18MMPBz9jtT0AAKPHmCIARJHY2FjV1tYGnwcHB9Xd3f2vfceOHdPjjz+urq4uJSQkaO3atXrnnXfu4EkBAIh8hDEAiCKPPPKIOjo61N/fL0lqbm7W9u3bg59v2rRJu3fvDj673W4VFRVp48aN2rdvn3JycrR69Wo1NjZq9+7dvAkDAGAMCGMAEEViYmJktVpVV1cnSUpNTdUvv/yiQCCgTz75RJ2dnaqtrdWZM2d09uxZzZw5Uzk5Ofrhhx+UnZ0d/H3uvfdepaSkaGhoyKivAgDAXY8wBgBRpry8XNXV1erp6dGjjz6q/Px8PfbYYzp+/Lj279+vZcuWyeFw6KGHHtKrr74qk8mk+Pjh+56+/PJLTZ8+Xffcc49B3wIAgLsfCzwAIArV19fro48+0qFDh0YEqiVLlqiyslJ5eXmSpH379snj8aisrEzz58/Xxx9/rEuXLmnmzJnBXhZ4AAAwerwZA4AotGrVKlksFs2fP1+tra0aGhrSuXPn9OKLL2ry5MnBICZJzz//vLKzs/Xmm28Gw1Zubi5vxQAAGCPejAFAFDt06JC2b98up9OpyZMn64UXXlBlZeWIsURJOn36tFatWqXjx48rOTl52Ge8GQMAYPQIYwCAMSOMAQAweowpAgAAAIABCGMAAAAAYADCGAAAAAAYgDAGAAAAAAYgjAEAAACAAQhjAAAAAGCAkRfJAAAiltvt1pYtW5Senq6uri5VVVXJZDKNqKuurpbH41Fvb6/mzZun5cuXj6ofAAD8O+4ZA4AosnTpUtlsNuXn52vv3r3q7OxUVVXVsJr29nbZbDY1NDTI7/crKytLzc3Nmjp16j/2c88YAACjx5giAESJQCCgo0ePau7cuZIki8Uiu90+os5ut8tisUiSYmNjlZ2drcbGxpD7AQBAaAhjABAlenp6FBcXp/j46xPqJpNJHo9nRJ3H4xk2enijLtR+AAAQGsIYAESJpKQkXbt2TUNDQ5Ikr9crs9k8os5sNsvr9Qafb9SF2g8AAEJDGAOAKBETE6OFCxeqtbVVkuRwOGS1WiVJfr9fFy5ckCRZrVa1tLQEf+50OrVgwYLb9gMAgNFjgQcARBG3263NmzcrLS1N58+f186dO2UymdTe3q7S0lI5nU5J17cpXrx4UX19fSosLNSKFStu288CDwAARo8wBgAYM8IYAACjx5giAAAAABiAMAYAAAAABiCMAQAAAIABCGMAAAAAYADCGAAAAAAYIN7oAwAAIsfly5eVnp7+j58PDQ3J5/Np8eLF+uqrr8bxZAAATDystgcAjFmoq+1//PFHvfHGG/r888/H41gAAExojCkCAMLurbfe0ty5c7VkyRJ1dHSopKREixcv1pkzZ4w+GgAAEwZjigCAsDp48KCcTqe+/fZbXbp0SbNnz9b777+v2bNnq6CgQDNmzDD6iAAATAiEMQBAWJ04cUKrV69WfHy8UlNTde7cOU2aNEmS9Prrr/N/xQAA+D/GFAEAYWWxWFRTU6OBgQFJCgYxScrIyDDqWAAATDiEMQBAWC1btkxz5syRxWLRwYMHjT4OAAATFmOKAICwKysrU1lZmdHHAABgQuPNGABg3EyaNEkmk8noYwAAMCFwzxgAYMxCvWcMAAD8hTdjAAAAAGAAwhgAAAAAGIAwBgAAAAAGIIwBAAAAgAEIYwAAAABgAMIYAAAAABiAS58BAGHldru1ZcsWpaenq6urS1VVVbe8W6y6uloej0e9vb2aN2+eli9fPqp+AADudtwzBgAYs5vvGVu6dKlsNpvy8/O1d+9edXZ2qqqqalh9e3u7bDabGhoa5Pf7lZWVpebmZk2dOjWkfgAAIgFjigCAsAkEAjp69Kjmzp0rSbJYLLLb7SPq7Ha7LBaLJCk2NlbZ2dlqbGwMuR8AgEhAGAMAhE1PT4/i4uIUH399Ct5kMsnj8Yyo83g8w0YPb9SF2g8AQCQgjAEAwiYpKUnXrl3T0NCQJMnr9cpsNo+oM5vN8nq9wecbdaH2AwAQCQhjAICwiYmJ0cKFC9Xa2ipJcjgcslqtkqS+vj799ttvkiSr1aqWlhZJkt/vl9Pp1IIFC27bDwBApGGBBwBgzG5e4OF2u7V582alpaXp/Pnz2rlzp0wmk95991399NNP2rVrl6Tr2xQvXryovr4+FRYWasWKFZL0j/0AAEQawhgAAAAAGIAxRQAAAAAwAGEMAAAAAAxAGAMAAAAAAxDGAAAAAMAAhDEAAAAAMABhDAAAAAAMQBgDAAAAAAP8D2gKYSyuA07XAAAAAElFTkSuQmCC;" parent="1" vertex="1">
          <mxGeometry x="-140" y="591" width="867" height="200" as="geometry" />
        </mxCell>
        <mxCell id="79CWCTIytuqyBhmsyid--3" value="" style="shape=image;verticalLabelPosition=bottom;labelBackgroundColor=default;verticalAlign=top;aspect=fixed;imageAspect=0;image=data:image/png,iVBORw0KGgoAAAANSUhEUgAAA5cAAAC9CAYAAAAnSokoAAAABHNCSVQICAgIfAhkiAAAABl0RVh0U29mdHdhcmUAZ25vbWUtc2NyZWVuc2hvdO8Dvz4AACAASURBVHic7N13fM3X/8Dx1+eO3JtBRCIJEokVlBBCbILEbGjVatWoij2D2sSq0RpVao8aja0/FC0iNlV7j0aMEiQS2fOe3x+RcGWIivJtz/PxuI+Hz+eezznncz431+d9z/goQgiBJEmSJEmSJEmSJL0B1buugCRJkiRJkiRJkvS/TwaXkiRJkiRJkiRJ0huTwaUkSZIkSZIkSZL0xmRwKUmSJEmSJEmSJL0xGVxKkiRJkiRJkiRJb0wGl5IkSZIkSZIkSdIbk8GlJEmSJEmSJEmS9MZkcClJkiRJkiRJkiS9MRlcSpIkSZIkSZIkSW9MBpeSJEmSJEmSJEnSG5PBpSRJkiRJkiRJkvTGZHApSZIkSZIkSZIkvTEZXEqSJEmSJEmSJElvTAaXkiRJkiRJkiRJ0huTwaUkSZIkSZIkSZL0xmRwKUmSJEmSJEmSJL0xGVxKkiRJkiRJkiRJb0wGl5IkSZIkSZIkSdIb07zrCkiSJL1tKQbB0kPBbDh5l3sR8RQ0N6FJBXuGeLuQ31T7rqsnSTlLTYID38DhWVC5E/jMedc1kiRJkqQsyeBSkqR/NYOAPmtOcehGGLPau9GgjC1XQqPo/9NpjtwIY0vf2uTXy69C6T311yn4uQ9Eh4Ih5V3XRpIkSZJyJIfFSpL0r7bxj7v8dvkhfo1daFbBHr1WRWXHAnzb1o2bj2OYsfvqu66iJGXt9lH4sSVU6QxNJr/r2kiSJEnSK8ngUpKkf7Wlh4NRFGjr7mi0v0aJgjhZm7Hh5F2iE2SPkPQeMrOG3oehZl9Q5H/XkiRJ0vtP/m8lSdK/1r2IeG48jKGEjTkFzDLPrXR3siIp1cCRm2HvoHaS9AqFyoBV8Xddi/8M8WQlLfQKipL9S23TjZ1J77qmr5Z67QeaFbXGdfAenors0xluzaGuTkPxwYdJfo38c3WciOS3Qa5YF23OD9dSXyP3JH71tUWtb8rSR9lXPq0Oaor03ksSuT/nv3Uub0Uq16ZXx0TjzMCD/2zJr02Esby5HlW+z9ia+K4rI73v5EQjSZL+ta6FRgPgYGWW5fvp+6+GRtO0gv0/Vi9Jkt4/ir4CrQcNodyzgQwxZzeyNPA+pXz68WFpdVoacw9KqPOowNh1fGLzKTs/XM+Tje0wzaNsAURSDJExMUQ9jSPtdFI4PdaN6tNUjPrjNBMq/RO3f6nEP40iJiaSmH8gIM98znnsLV4vSfo3kcGlJEn/Wo+j035itcxmRdj0/WEx8qdYSfrPM6vKl9OqPtswcG/+aVYEPqZS52l8+4nunVbtdWlcv+Jo+GAMGi15FQu/NsWaViuCiVmiQqtR3npx78U5S5L0/g6LXb9+PU5OTiiKwsKFC991df6nHThwAGdnZ9RqNSNGjHjj/KZPn07RokVRFIXdu3e/1rGJiYk4Oztjbm5OjRo13rgukpSThJS0oVgaddY3Nlp12ldgfNLrDNmSJOm/LvbKBka38cDZ2hxTS0eqfDyC9Vdin70bTWD/0mg1Jei7N/rZPgPB8xuRX21F00UhxO/oQsF8n7IlARI2tcdMMaH69Gtk+iZKPsKQkhq0FcZyJr07Lvkwg0toUHR1mB1seLYzhp8/t0atb8C8uwYMt+ZQz1yPY++9JKVeZ0YNM9wnXyIl5QIT3bSoCnRm+4u/qRkiOD67A1WKWKAzs6GM1yDWXU94dUPkeFwSv/oWRm/ekHl30+tp4PHh7+hWrxQ25mZYlWzAoI0XWdPWNIshl4KkW5vxa1gKK72e/I5V6TDjII+zGfJqdM7pO+OvsXFEK9yKWmJqURi3djM5uH8cFbUmuE+5bNzeOZxL4iuuV86fh2eX7c4uJneojpOVGWY25Wgx7lce5PhfTwz/19kGtc6T7++8dJ1V+fhozRPEs3YKXdIUM1UB2q6PTEuWGsqB73rg9UFhLM0sKFSyJu3Hb+FaXHrez4Yem/ow+/+m8LGrLWZm6cOQDTw6NOela/QnmTqfDY84/F13Gpazw0Knw8K+PE0HreVy3MsJpf+aLIPL0NBQHBwcMDc3R6VS4eDggIODA1ZWVpQvX55vv/2W5OS3Oz68ffv2XLt2LdP+qKgoChcuzLJly14rP4PBgL+/P7///num96ZOnYqLi8tbP6d3pX79+oSEhFCoUKE8yW/48OHs27cvV2lfvl46nY6QkBB8fHwypW3atCldunQx2hcYGMiMGTNema8kZUWvSfv9OiU167uR5NS0/7BNTeTv3JIk5U7qzSW0q/8pMw4p1PUdzbh+jdAdm8lnDTqy8rYByEeDcdNob3eH5aPncykFRPj/Mf7rA6RWH8HMbs7o3HyZ90NPqmhBW7U3i1YsZVyLwplvyrTuNPGyxXAjiAP30r6vUq8FceBeKiSfZf/hiLQAI/k0+w8/RV2xCV5FXspFZU/zsQsZVMccRclPvSFLWPGDL24ZAzoEkbuH47s8juqd+tHd247Q/XPp2m4qp3O8LXr945LOTadls8H8eE5H7W5+9Gtlx2G/Dkw/m8VA1tRrzPtyFCcdWtKrX3sqGs6zYWRb+q5/SK6mVIpHbO3pzaczdvO4xMcM8PsCj4gFdO6/hcxTOXM+F20O1+vVnwcQT/cxpPFHjNt8C7tmvRnaywvNlh70WHkHw8tVyWBO3Sb1ME85ReChp0bX2SDiOBZ4nLTQN4aj+38n0bQmTT0tQUSyb0gjmg5exXW7FvQbMYTPKkbx6+R21P90BSEvBrRJR5naZwWxdXoxemxH3MwVEk5N4cNmfvx43pS6X6Zfo07MvvTiNUrl2ty2NPf7iTslPsd/zhzGfmLDuXldaeH362vNeZX+hUQOunTpIszNzTO2DQaDWLFihQBEt27dcjo0T8THxwtALFiwIGNfXFycqF69uti8efNr5ZWcnCwA8f3332d6b/HixaJRo0YiJSXljev8PrOzsxPDhw/Pk7yuXLkiALFr164c02V3vdq3by+qV69utO/LL7/MVL/Ro0cLa2vrXOcrSS/ae/mhcBq+Q3RediLL92f+dk04Dd8hZu+5/g/XTJJe05k1QozPL8S2ge+6Jv8RqeLuvAbCRDEV7TYlvLA/Smzvai/U5nXEjIvP98efHi+qmKhFSb8jIunZ8SGLmwkrtY34eHWwODqivNCauIqRJ+KeZxUTIFrrEfo268ULezOJ2vypsFKZi5Y/hgmDSBX3fmgo9PrioqSDVth02SZihRAp5ycIN61GfDDqD5EshEgNni3qmKhE4V57RKIQQohkcWpMeaHRuIpxZ5Ofn2XwbFHHBKEu1U/se/pspyFUrPm4oFC9lNaodXJ1XKLY3b2QUJl4iu/vpAohnootn9kIlbqE6LHriTCkN8Ox4cJVqwjF4lOxJUE8P07JJ7zm3xLpd2YJJ0cLV40iLNqsF9FZnOPL2ymXJgt3rSIsPGeLq0npFb8rVrayFiq0osrkSyLlddogy+uVm89Dqrg9r6EwVXSiqv+pjGMNT3aLHsXVArWTGHAgSWTFcH+h8NarhG23nSJOCJF8zl9UMikgSpSwEdpSQ8XRJCFE4n7Rz1EtTOrOFrdShUi5Mk146FTCsskCEZycUZjY3bOEUKuKih6/xj5vY5WVaLHsrkgVz9Otb2clFE1p0XdvRMY1iv19tHAzeeEaGcLFihY6oZi3Eeui04+NEr+vnSOWbr8gnhiE9B/2WsNiFUWha9eu1KtXj5UrVxIeHv424t0cmZqacvz4cVq3bp1nefr6+rJ3717Uatl7kdde53otXbqUadOm5Xm+0n9XGft8ANx9kvU4nfT9ZZ+lkyRJylHyaX4LfIy6Whs+LpZMTEwMMTExpJRoQYtyKu4cOcytVAAVTl2/YbhHHNuHe9Nx7jWKdZ/FCI/XXwbGol5T6prFczTwGPEimsOBfyBq9GfSJ45EHQriTLKBBweDuGIoilcT17+xmIaKAnWbUSf/s03Fhmo1SqMWEYRH5NQF9ZrHJZ/n4LEIVKXa0t3LivTJCubVutChYha11lagaZNiGfMnda41qJwPkiPCiXplz5gg/OghLqaY0rBbZ1zSe2lVDrTp2gTLTDMl/mYb5OrzkMDJwydJ0HrweVe3jIWAFKuGdGntnOP8UMXOiyaVNYQfDOTcs+t8Vd+IUeObkv/OAQ78mUrKlf0ceKCiQmNvHFWCR0F7OJdkjtcXn1Fck1EYjbq1pZQqlMDfzj1fFVdTHq+GRZ73mKec5/DxKNQu7ehWv0DGNTKr0pkObi9cIyUf5SuWQBO3C/8u41i6/SjXwk2o+tlAvvywAlZvf4qt9B77W3MunZ2dMRgM3L9/nzZt2mQs0X3y5EnatGmDhYWF0VzJyMhIevXqhbOzMy4uLlStWpUdO3Zkynf+/Pk4OTlhYWFBvXr1uHrV+OHm165dw8HBARMTEz7//HOj965fv85HH32Ek5MTbm5uVKtWja+//pro6GiCgoJwdnYGYOzYsRnDfO/du0fPnj2xsbFBURRu3ryZkZ8Qgjlz5lC2bFnKli1LyZIlGTNmjNHQ2fTjHBwcOH36NO7u7lhYWFC/fn3+/PPPHNuwZcuWWFlZoSgKQUFBVK9eHXNzc5ydnY3mmM6bNy+jfRcvXszo0aMpVKgQiqLQoUOHXNf1RZMnT8bBwQEzMzN8fHy4e/duxnvJycmMHj0ad3d33N3dqVSpEl27duXhw4dZ5hUdHU3nzp2xsrKiYMGCDBgwgMTExFder5dVrFiRfPny4eDgYNRGc+fOJSIiIuOa+fn55ZjvlStX+PDDDylevDjFixenRYsWXLlyxSjN3r17qVWrFlWqVKFSpUr4+Piwc+fOHOsn/W9ysDKllK0Ft8JjiYzL/Pdw+k4EWrVCrVI276B2kiT9zzE84XG4gaSgQZTOn498+Z69Cngw6VwyhvDHPEkf56j9AN9+TTB78Ce3kqvgO6AB+XPMPGtKwYY08TAh4tB+zsacIPBIAuUbNebDxp4UuHeAA9cjOLT/D1JsGtGkqsnfOi0T3YvHKajVKhQhECLnKO61jjM8ISzcgKpIMYxG7qrtKVo4q9tRHcbZq1CrFIQQvKJagIEnYU8wKFY4FLXgxVhHV7goNlkU97faIDefh9RYIiOTQG1HEVujE8fW3jbnG3GVE95NyqHcPkDQn084tP8UqureNG3mTW2Ti+w/FMq9gwe4Rgm8G5dBnX7eKiuKFjb+IUNlXxR7lYHwsCcvDMXVoHkxujU8JSLSgMquCHZGVS2EvVHdtVQbs5kfB9bGEDiNHi1rU87OGqc63VlwMjJ3w5alf62/FVzevHkTtVqNo6MjCxYsyJj3Nnz4cFq3bs2xY8eoWbMmACkpKTRt2pSTJ09y9uxZrl+/zrBhw2jVqhV79+7NyDMgIIB+/frh5+dHWFgYS5cuZcyYMUbllilThnv37lGxYkWj/Xfv3qVWrVrY29tz69Ytzp49i7+/P2PHjuXatWt4enoSEhICwKRJk7h37x737t3DwcGBRYsWsXLlykznOHz4cCZPnsymTZu4evUqBw4cICAgwCiYOXPmDL6+viQkJDBt2jTmz5/Pjh07uH37Nn369MmxDbdt28bUqVMBGDVqFKtXryY8PJwBAwbQu3dvNm3aBECXLl24dOkSAIsWLcLU1JT9+/cb5Z+buqZbt24dZmZm3Lx5k/PnzxMcHEyLFi0wGNK+amJjY1m0aBGbN2/m1KlTnD59moIFC9KmTZssv2AnTZrE559/zuPHj1m/fj0rVqxgyJAhOV6vrJw/f56ePXtmaqMBAwZgZWWVcc1mzZqVbb537tyhdu3a2NvbExwcTHBwME5OTtSrVy8jOL5//z4tW7Zk4sSJnD59mjNnzlCyZEl++OGHV9ZR+t/0ZZ3iCAEbT9012n88+Am3w+NoW9WR/Hq5cLYkSbmgKoC1lYKmfB8CDhzi0CHj14GAPpRP/zpJvsTiub8Sm9+aguI0i78L/Htz0VSF8WpSCdXdA+zZspeDT4rRoJEL+Wp5U1d/if17trHvSBwW9ZtSO+unLr0fFAvy5VMwhD8i7MWJhoYnhIXndTiiYJHPAkVE8TjceDXwlPAwIvOquNx8HrTmWBUwgdRQ/nr44omn8vB+aA5zLgE0lGvshbPhIvt/28G+I0m4ejXA3toTL3fB7/t2sTvwFKn2jWhSSQOosLIpiMoQwYNQ4wWZDA/v89CgoqCNVfY3/ypLrAqoMITe44FRVR9yP/SlmpqV49PZv3LtcTi3zwYSMK01VueX07/1CPbG57L9pH+l1wouExMTmTdvHkePHqVv374UKFCAQoUKYWtrC6T1NH322We4uroyb9486taty8aNGzlx4gT+/v4UKFAASFusp1q1avj7+2fk7e/vT9WqVRk4cCB6vR4XFxd69+6dq3pNmTKF2NhYpk2bhkqVdkotWrSgYcOGGduvIz2I8fX1pUKFCgA4ODgwfPhwNmzYwIkTJwBwdHQkf/78hIeHM3HiRGrUqIGnpye+vr4EBQW98he/dKNHj8bFxQW9Xo+fnx+VK1fOaJt8+fJRrFixjPLGjBlDhQoVGDduHN26dct1XdMVKlQIPz8/9Ho9pUqVYurUqVy4cIEtW7YAkD9/fk6dOpXR06tWq+nZsyeHDx/OcoGlJk2a0LhxYzQaDd7e3vj6+rJ48WLu37//eo2eB6ZMmUJMTAzTp0/P6O2dOnUq0dHRfP/990BaEBsfH0+JEiUAUKlUfPXVV7Rq1eofr6/0z2hfrRiNytky67fr7LoYSkKygTN3Ixm28SwlbMwZ3rTsu66iJGUvMQoSIiH52dDu1KS07YRIEDnflkpvgbYKDesVxBB8mlsFq1GnTp20VzUbwk6f5c8YMFEAUgleOphpJ7U0nLqPn3yLcXvZYKYef2GIvvKsPy0xgZwfhqSmhLc3LuI8q6Zs4k8rT7zctGBZD28PhaPff82uxzpqN62fY8+ooihAIgnv6slLWldqupuTemUL6049b4ekKxvZdCavF1RUYe/hQXF1LIFrt/JX+p+KCGf3+t+e9y6/jqyuV64+D3qq1fNAn3yS1ctPk37mIvxXlm+5k3mF4JdoKzelkV0SR+ZOYXdEcRo1LIFaVZQGjcoSv28q3wTFY9WwKR46AAW7+o2oqI1l76oN3EnPXDzl4KrN3DTY0cCrElk/nAvQVKJuTUsM1zeyfP/zHsiY31cScP6FBX0MIeycMYy+k3/hoTofjpUa0H7YXIY20GF4fJObOQ6nlv7tXhl5xcXF4ezsjLOzM8WLF+enn35i8eLFzJ49O1Pa2rVrZ/y7SpUqlC9fPmNV0Vq1ahmlrVy5MsePHycuLo4nT55w/fr1jN7OdO7u7rk6ib1791KqVKmM4DXdnj17qFKlSq7yeFFQUBCpqalUq1bNaL+Hh0dGeS+ysLCgbNnnN6gODg4kJSURGRmZq/KqVq1qtF2rVi0uXbpEdHS00f4X29fOzo7GjRu/dl2zKgvg2LFjQFqwdfnyZby8vDKue6NGjQAIDg7OVd2Tk5M5depUzif9Fuzbt48yZcpgbW2dsc/S0pLixYtnfA7d3NzIly8fDRo0YObMmdy5c4ciRYrg6+v7j9dX+meoFFjUqSr9G5Vmxu6ruPrvpueqP2hQ1patfWtn+wxMSXovzK0C05zgl6Fp22fXpm1Pc4KIkHdatf8mS3zGjMXT9HfGedWny6jpzP5mLN0aNaLdYH/WXQctYHiwnq/8A0ms7MeMLyvRePzXfGJ1lbmDZnM+/ZkOJiVwcdKQ+Js/bb4cxIJjsdmWqinfBG9HA8E3QjCr40VNU0Cxw9PLleTgmzzQVKVJQxuyn+qmxqF0ScxSb7K012f0nbCV4H/6CUxKIVoP60V51UW+bdmIL8bM4Bv/njT+cDEPCub9k/E07r0Z3syaiG19aNhqEFO+ncawtg0YeEBNvr9TXJbXKzefBxUOHUfTowyc+bo59T8byrix/WlVrzcn8jm8+pmc+ho0bWBJ/J83CbVtgJerBlBTplFDHCKCCX5qTr2mdUjvtFaX7cXXPcsQt6s/ns37MH7qZIZ2qE+bH4KxbjGJkd7m2ZelFKDl8MFU1f/JorZ1aD1gLOP82lO/3S9Q7IWaKvlIuhjAovGdadFlPN8tmMfUvq0ZtSuJfDV8aGQnJ13+l73yz8vMzIyQkBBCQkK4f/8+R48exdfXN8seQSsrq0z7wsLCgLRAMT1YcXZ2ZuvWrVhYWPDw4UMePHiQ5fEvB4vZCQsLo2DBgrlKm9v8sqpPehnp76eztLQ02k5fGCg1NXff3C8fn17Oy71/ObXv363ry2UFBgbSokUL6tWrx/Xr1wkJCeHw4cMAJCVlespRruv+TwgLC+PmzZtGnzNnZ2ceP35MVFQUAPb29pw8eRJPT0/GjRuHk5MTDRo04MKFC/94faV/jkal0MezJPuHenJjSnN+H+3FxFYVZGApvf+G3QT/p1m/CpZ417X7T9KW68/P+1cyoFoi++aN46ux37M3zp3+KwNZ71sclYhg19iR/PykBL7f+OFmAopdG74e64n2jxkMWnQzrbdKU5URP37Dp1VUnA1YytI9N8jigRxpTNxp0qgQKkVHde96z3oo1ZRs2JASGtBUaIK3Q063dAqFOsxmxeDGFH24m2Xfb+RUTN62S26Y15nCzv+bRJviofw8cxyTf7xCuQlrGVlFCyg5BMd/g8qJrmt+Y2n/OmhOLmXiuNnsTm3PknntsVU974jMtWyu1ys/D4CSvwEzdm/Bv7UTD3fO59sFezG0WcrKHiVeHVxiTt2mdTFTFCzreT/roQRtZS88bVQo+po0bfB88R0UK7xm7WP3zI4Uv7uF2ROnsvKkHq/R6zmwrhslXlGgrvIotu+cSSfXeA4u/Za5Pz+m/nfrGW60oI81H/2wmx8H1SQlcA5fDRjKtP8Lx7XHfH7bPAAXuT7mf1tOS8m+/CiS7Gzfvl0A4saNG5ne+/LLLwUgYmNjsz0+PDxcAKJfv35G+x88eJDpUSRCCOHu7i46duyYsV2yZEnh6uqaYx1zehTJy/VfvXq1AMSmTZuM0p05c0YAYvLkyRn7hgwZIooWLWqULv34x48f51inBQsWCECEhoYa7e/Tp48ARFRUlBBCiOjoaAGIJUuWZMrjdepqZ2cnevXqZZTu0aNHAhB+fn5CCCG6d+8udDqdSE3NWJha3Lp1SwBi69atGfvSH0Wybt06o/w2bNggALFt27aMfS9fLyGyfhRJVm2Z3aNIssq3ZMmSwsPDI8u0WYmOjhaLFy8Wtra2onDhwiI5Oesl1yVJkiRJygsJ4tHN2yLixUdVJF8Uk921Qu00QGTzRI6/LSXqtvjzQYLRvsjNnwlrlV54L3og5BMzJCnv5f04hJd4e3sDaXPdXnThwgV69eoFpPV2ubi4ZAzNTHfmzJlcleHl5cWNGzd4+vSp0f7PP/88YzikSqVCpVJlzIO8cuVKptVo03l6eqJWqzl58qTR/vRtLy+vXNUrt06fPm20fezYMcqXL0++fK9+PMLr1vXlso4ePQqQMSQ5OTkZRVGM5ovm1AuZVX5arTbXQ5pfRavVZtQlNTWVHTt2ZCw+9DJvb2+uX79OQoLxJPZ169ZlzLk8dOhQxgJUFhYW+Pr6MmnSJB48ePBOHq0jSZIkSf8NBu6ubEu5MmVxb9qXSd8tZNH3U+j/YSu+PqPF7YvOVM/LwSRxRxlZozQurrXpOPIbfli0gJmjP8er53oi7T+ie0u7vO0plSQJ+Jurxb6ONm3aUKdOHUaMGJExBzEiIoL+/fvj5OSUkc7f359Tp07x/fffk5yczK1btzJWU32VUaNGYW5uzqhRozICkY0bN3Ls2DFq1KgBpAWXjo6O3Lt3D0hbYfXAgQNZ5pf+yIslS5Zw8eJFIC3AmjFjBu3ataN69ep/rzGysWDBAm7dukVSUhJz5szhzJkzRosd5eR163r16lXmzZuX0cajRo3C1dU143mRPj4+GavfAsTExDBhwoRsyw8ICCAoKAiDwUBgYCDLli2jR48eFClS5G+0RGZOTk48ffqU6Ohozp07l+2QbEhbGEmr1TJq1KiMAPTy5csMGzYMNzc3AP766y+mTp1KaGgokBawHjlyhPLly2NnZ5cndZYkSZIk6WUqHLusZu/yvlR8spM5IwfQf/hMtj8qQ9e5e9g11h1dXhZnVovJu3cw9cP8nPlxEn79BzNh2R+Yeo9mw/7ltLOXoaUkvRVZdWc+ePBAODk5CXNzc6EoinBychJt2rTJsutz1KhRwtbWVgCiaNGiolmzZpnSREVFif79+wsnJydRsWJFUaVKFTF79uxM6ebPny+KFSsmzM3Nhbu7uwgMDBSAKFiwoPjoo4/EtWvXhJOTkzAxMRHm5ubCyckp49irV6+Kli1bCkdHR1GpUiXh4+OTaZjuhg0bhLOzs3B1dRU+Pj4iLi5O9O7d26j+6fUyGAxi1qxZwsXFRbi4uIjixYuLUaNGicTExIz8GjZsKPLnzy/UarVwcnISISEhYvjw4cLGxkYAwtHR0Wgo6cvSh8WeOXNG1K1bV1hYWIhixYoZDQPetm2bKFasmACEtbW1cHJyEk+fPjXK51V1DQoKEk5OTkKlUgk/Pz8xcOBAUbhwYWFqaipatGgh7ty5Y5TfrFmzRPHixUWRIkVE7dq1xfz58wUgChUqJEaNGiWmTZsmihQpIgCxfPly4ePjIywtLYWVlZXo16+fSEhIG4KS1fVKSEgQTk5OwszMTJiYmGS0W+XKlY3a8tixY0IIIWJiYkSzZs1EyZIlRfny5cWWLVty/Bxcv35dfPTRR8LBwUFUrlxZ1KlTR+zatSvj/du3b4s+ffqI8uXLCzc3N/HBBx+Itm3bilu3bmV7nSRJkiRJkiRJejVFiFw+L0PKcwsXLqR3797Ex8ej1+vfdXUkSZIkSZIkSZL+trc+LFaSJEmSJEmSJEn695PBpSRJjgCN9gAAIABJREFUkiRJkiRJkvTGZHD5jrRs2ZKRI0cCUKpUKQICAt5xjSRJkiRJkiRJkv4+OedSkiRJkiRJkiRJemOy51KSJEmSJEmSJEl6YzK4lCRJkvLUkydPKFCggNHLxMQEvV5vtM/S0hKNRpOxrdFocHBwAMBgMDBt2jScnZ2xt7enZ8+exMbGsmXLFmxtbXFxccHKysroZWFhgV6vZ8CAAe+4BSRJkiTpv0kGl5IkSVKeKliwILdv3yYiIoLIyEgiIyM5fvw4RYsWZdWqVYSFhREZGcmlS5eoU6dORho3Nzfu3bsHQM+ePQkODubSpUvcunULc3NzmjVrxu+//87s2bO5fv06ERERRq+1a9fSv39/5s6d+45bQJIkSZL+m2RwKUmSJOW577//np9//jlj+9y5czg4OLBhwwZq165NYmJitsceOnSIwMBAwsPDMTMzQ6vVcvPmTVJTU1m8ePE/UX1JkiRJkv4GGVxKkiRJea5WrVoEBQVlbG/ZsoXVq1ezZs0amjdvzo8//pjtsa6urpw4cQI7OzsmTZpEp06dqFGjBvv37yd//vwZ6YKDg2nRogVlypTBx8eH27dvv81TkiRJkiTpFWRwKUmSJOUJRVFQFAWA2rVrExgYmNFD6eHhgYmJCQBt27Zl37592eZToEABbGxsmDlzJnPnzqV06dKMGjUKExMTWrZsCaTNyWzXrh0jR47k2rVrjBs3jmnTpr3lM5QkSZIkKScyuJQkSZLynE6n46OPPmLp0qUAjB07Fnt7ewBUKhUajeaVedy4cYM+ffowceLEjH2WlpYAhISEUKRIEerUqQNAtWrV6N27d16fhiRJkiRJr+HV/7tLkiRJ0t/g5+dHjRo1aNCgAR988EHG/pMnT3Ljxg2Sk5NzPL5ixYpUrFgxy/dsbGyIjo422ufq6sqRI0fevOKSJEmSJP0tsudSkiRJeiusrKxYuXIlLVu2ZP369aSkpBASEsLixYvp1KkTX3311d/OO3/+/BQtWpRZs2Zl7EsfkitJkiRJ0rshey7fc0FBQUaLYkhvn6enJ56enu+6GpL0r1CzZk1+/fVXJk2axMiRI7GxsWHRokVUrlwZtVpttKKshYXFK/PT6/XodDoAVq1aRUhISMZ7Wq02Y16nJEmS9B8mIrm8bRnzlm4g6HwIj5PMsC1RhcYdetK/e2NKmL7rCr4/Uq9Op+HgfKz5pQ+OedDtqAghxJtnI70t/v7+TF++Gbuy7nSt5fyuq/Ovd+DAAerXr4+/v/+7rook/c9J7zmU/61IUh7wt3zXNciZ/9O8zS9oat7mlx3PkblPu6nb26lDm+VvJ9+34X1qg7M/5S6diOG3GZP48nJ5Jvk146MPbMgv4rh18TRLl29h2aMPmPPLr3xW+m/8GLm86esfkxe67X57eSccZkjV3oT7LWacTwUK5zdBBSgqDVqtmtcdEyR7Lv8H6IpVxNm7K/7DPN91Vf71JkyYIG+MJUmSJEmS/kel3g5kXFBx5q3vRKv86aGROSWr1GWqW2VaLJlDmw/7YHFwCS3t5HQK9HWYsH4006b502Haea6GPCQmWSAUFeZFa9Jp2jJmdyyDPpfZyTmXkiRJkiRJkiT9K6Q+Cie0UFHKWmQROKosqNNjEBv6loZk2ZmQzqJ8Byav/pXfrz8gKiGJhIQEYp/c5vB3tbkwpANTz+S8AN+LZHApSZIkSZIkSdK/gracG40iT/NzSGrWCRQL6g0YTksHGQZlSaXBRKfDrIADbq0nMaVtFLt33ySb1sxEDot9y1atWsXkyZO5ffs2pUuXZurUqfj4+ORpGSkpKYwePZoff/yRqKgoatasyfz58ylbtmyOx508eZIBAwZw5swZChUqRO/evRk1alTG+/PnzycgIIBLly6hKAru7u5MmTIFDw+PPK2/JEn/Mu/rXLFiNaDbr++6FtJ7apyrlkkXU94gBxNKFEghONLwWkfpfVbxYFsnCrywL259G6wnRJHwBrXR2Oo42VOHm0pw+WISY48msScMCtpq8PXUMayUiitHYmm4PxUrO4Vb9wXZ1VxlqkITbyDp2bZTaQ2qZY4kp8bwODSSJE0RqhZ5xMnbuWk/hYJdt/NgRQuynPGWHMEv6/fw9S9XORdtQqlKlRndsyFtHWNYOmYh/X9PoaCI5/4r7nR1JQtjdj+ctP4WQYpBQaMC1F+/lFJPq5V3WPPJiyu8JPGrryPNlz7Ktk1epC5giTryaUb7vHy+RZ1NeBCSmJaXosG12GouZNdWuhasuL+drgWf97oZ7s6jUan+BGVdQJY09vkxhEY9K9Mc12KJ2ZcJ6NtsIGJj2xeGPr5fbZBychQV63zLg0Kl6TrYl2lVI/n+6x+ZefgBqbYl8GlTn5JHA/A/ISisRHEnBfikM2OLOmAeEUamklQ9X9qRSkJsPCnpnZm6Jiy5s4vuti9dh56/EvQmXxMaS5oWimL3g5x6TVWUtBL8GfEsjcaCMr0UrmXTeaitPoNLR4ZRWp3Vu0nc3vYV7X1XcL9SRR7vOZz994rGmYqmtzkfnUXdlKp0dHnCuk90YPiLQwGnKNDSB9d8mXuHZXD5Fu3evZuuXbsydepUmjdvztq1a2ndujXHjx/H3d09z8oZO3YsixYtYvny5Tg7OzNmzBi8vb25evUq5ubmWR7z8OFDGjduTPPmzVm4cCHnzp2jR48emJubM3DgQADWrl1LixYtGD9+PIqiMH36dLy9vblw4QLFihXLs/pLkiRJ0rs27o8w/BJM0OvSb5ZSuL2pN63GPaX7su/oXrPwsxtvA8HfNeaT0CmcnFodDYn8X9eq7P/iD2bXN0WlvHBjFnOY4fU6caHDT3zf8DIz+n/DhUrD+P7rL3AvmNZroqi1mYIss7YBhJ2xRmiUjBs1kZjKjI3x/J+tjpX1Nbik1zM1hZ7zkqjT04xOekh9nEiDvQrrPjWhuEpwdH8cnW6rmdrKggAbuHkzicE74jhV35RW9wz4tMvP8lKQIuDlW8qkP+Mpd0rDqbZaLBXBLz/HsLa0BesqKITX7EiXCZfpPHM0vXzcKaIzkGIwzkGE/8hHFddRfdUMvqhVgcKmCqCgqDVZB5ZJD5k7ZjWr7Rowb97HVDGNJmjHbvoN/ZGQ8bW4cbMoCzZ3pIMuhQtrF9P0dCmW+dWhYREdWd1XKzw/p9QHx2g68D4DQo7hozNOpdG/vHSoCd4L7hLf0Ne4TQxRfOu/hz9q1cG/diHK5nt2DRXIvFxDEj/N3MrOum1ZXU2NyvCIYV+dofjoxvTuvoSXWzvpj7HUHmDKikNjqWxmfMOucuxFwC8Kuy078WlFo8pnSxgEqtTjDHOfQPGdO+ntoM5UJqTwx5jqDLfZyJ4hL8+pe7/aQFNtMmcPlODxrVOMn/wdXisN2DTtyvFRRVHuX2b5/DX4ny3HmgO9aakVhG+bTe0rTbj4VVkw8NKiNIJIfWEOXYqjsEd93IuaoiAwoMVUr0lLqyioVS9fh978OmcrcSo1+vROT5HE3k1n6HvXhvldnGlorX42LDSFtT8cIahuXZa4qiA1giET71F7bEXaqGOYOfMsFxpVY3kVk+d1M8QyY8ZFEjt6MNZRITX0Fg2XGZg7siSVum1/qblSufVdE5qHjOP8dw0xzzKwjOP83Da0XmpJz6VH6Na4LPlIzfQpIOon2lYK4stri2lqAiRf5bvmdRl1IpX8tuVoPHAms/vVpFD6auwp1wgYMxOXWh9mGVzK/uC36Ntvv6V58+YMHz4cV1dXpk2bRsWKFZkzZ06elZGQkMC8efMYM2YMrVu3pkqVKqxZs4aHDx+ybt26bI9bsmQJiqKwYsUKKlWqROfOnenbty8zZ87MSHP06FFGjx6Nt7c3Xl5ebN68mdjYWPbu3Ztn9ZckSZKk98LlmTTuFECUTo9er0ev10F8LCaWyfyxqA/Nm/Rn61/qtMfhaBQUjQk6fVparUpBY2KK9vIsukw9hUqnQ6fT8nDDDHa6z2f9GE8+qN2HlccPMq30HrrXbcHon4NJNtFhosniVkyVwPYdsYx/AHrNs5dKEGcA0+gU/DfG0e5YKvHP3lMroFU/S6cGlQI6NcTdTqTbUQM6Gw2edgomaoUyRdQ46wQHAuOZ+ehZcSowUacdY/RSpQUNOg3o1QpaFajVoI1Pxm/oRVqv2sSUT6vjaKFBrTVBp9M9exn4a983dGw0lL1xjzi7aTJtqtej38YQ0Jlkfc6kcmHDZsacM+DsWoKq1lq0Zla4u9hgxQNmTN3L4URAUaHXaTE3UWOa/IBvx87F+dM5uPX4gZp+AQwPDMOgM8Fcb4Kp4QlbV/3MZ5M2MWj9De6mqtCZm2Nubo4q7BTbAnZzI8UUXRY35iqNCSZaNbpnr6SHdxj/zV6mBKfw140/GfH1dhoH3OexWo2J5nk6nVZNathfTJm5i8HnUlGrVehNVJhoVagVBY1GhU73Qlupn3J6eT+82s7jptCg02myuDlXY3J/H/O33USd0cYaEqNjUTK2jV96Uz0mOi1qRYXGRGdc5gsvE40KlcYEXRbX5P1qAxUmejOKlqvDhFZmnAovx+D2ZXCytKBYOQ/Gf92WJloVWq0GvYkm7W9UpcHEcI4+vbZz1USHuakOc1MtjwOX4NlqNCt/+pYuteszdG8UpuYWWJhqUavVaS9VVp9RhYdHz/Hhvni0WhV6rQq9FhISwVIVx9oNZ/Befo9rIu09rUpBpU5Pp6AGTLQKqgcPWRuSyIHdV5l+NSmtPZ69NArPt9UqVCiYaFToTF64ZgnX2DiyBU0n/UGKWosumxVdUy7OofcyZ+YF/sQwnwpY69KGu2b+HGhRqdTP3tNwZ/VYdlX+iT8jY3h4aiZltvVg2C/RqHMZNcrg8i0RQnD8+HG8vLyM9nt7e3P06NE8K+f8+fPExMQYlVOwYEGqVKmSYzlHjx6lXr16Rs+E8/b25u7du9y9ezfLY5KTkxFCUKhQoTyrvyRJ0rvw3XffMXr0aAYOHMjmzZszvS+EoFOnTkycOJGJEyfy5ZdfEh8fD8DChQvx8PDIeCauk5MTmzZt+qdPQcpjmjI1qXR9N/vSh6KlXGD1/Md03riDdet2sefbIiwfuZb7OYwRVFmbEXb4JH8ZABI5eSgEry4tsEm/8zNxxHvUVk7+0htlYQuq9drBkyxHx5lTrahC0M3UjOF80TeTWWetZ297U7Z0MaXDo0Rm3Mv5nCISVQzuaIbvkwQ+P2EgNjqFvmsTeFLDnFNN1DyKeJ0Weu7WhWSC231Nd5fM/Y+xN35mnE9Fag2/TJ1vxtLUyoNeC3/m+N6hxE3qxcLgbBpQJPHEvBLrv/OC1QH4X0og/NwePvzmHp9MHMDaqklcj3uxsRTsazXnwNpR3F/RkYHFEslXwQWxbRPjL6QASexZtIGFhnKM8W1AG8tEHgkg+T57J32IW5129B04lwMROS/qYoh9wpofd1Nh4iUia1TDz8WMhi1rs2tqI9rfO8GgIwnPe4ISo/h5/V7cJl0golY9ZnvkNEAwhUfHFuBbqxrd9pZk4vKhVMiy9yntXC09PNDu2cX19OHAySeYWL8Tqx4+K91wny0DWtJ9+ZU3Gk6dlfejDQCRxL0zexm69jYm8cEcvPV8nKii12GWVYSlK0pZcY6dt5597lKDWbD8EZ1+Oc7unUc5E+DJgaH9GdrdA/t8Fli7+DDjaGTm3j0AVBQukZ/oy+HcS2/2Jw+ZH2zNEr9KBAyoyvKSYYzYH5vj/ESNUynOL2jAsbYW7P3xGlvickhsdP5POb9mMA3cPmaVvj+rJ9bLegQAAAkcXLgO+2ETaGLzGivippxmxWLoPKYFTqYKWtv6DB9SneM7jmcz5DkzGVy+JdHR0cTGxmJnZ2e039bWltDQ0DwrJz2v1y0nNDQ0y2NezPNlAwcOxMXFhSZNmrxJlSVJkt6ps2fPsm3bNqZMmcLs2bMZN24cYWFhRmkMBgOlSpVi3LhxjBs3DhMTE5YsWQJA+fLl2b59O0FBQQQFBeHq6prnc+mld8CsPh0aXWTZTyFp88JUtpSrVoZCz4afmrt/wYdPfmLzvexvG1VFa1E96iCHIgSgYGaWyq0bt7h9fC2TvmxKjQ+q0nF1MPoyn9D/k5KY2xYhf5b3fSqKl9NidTmZA8/un/VWKqpYPhsmq6j4xE3Fr+dSSMzhlBxcTOjprGZgaz1FTsZRaUUC4TXMWFNZhfMHJnSzfiFxioHNe+NwnxON1fRonBbG4XvaQHymXAVHbhuo2aCc8dyq+BtsHdWUCtWHctZjLif++InB9QqjeXZ+GseP8W0Szrkr2UwcU0yp/3FtmpWtzJIhzuyYOI/qM/6i9fjPGVbWEq/2NamhzfJA9BY6RGI+6jX0YLxPAU5dfkpq6hOOXbehV2dXqjkXpunHbngoYSzv4MOUyC5s2diHUlV8aJHdU+NFFOeCjlN/8G6mRzqy5pvmLGxkjXV6cq0lXRsW4s+QaFIwcOfMGVoM2cn4R0VZObU539ezwjKbe3rx9DRLfGvi1mEz1sP3cGrzCLwcc37morq0D80NASw/8Sx0VNlS2Pou5y9HYYi7za5xHei3PZhDIz5l8u9ZfypS/vqNKR1qUsq+IFY2DnxQ/3NmHYnIJpB6z9og5SyTOg+kypiDiE+GcHZ2RX4dOJKGo1az9HIOfwUqexq4JRL4e3ja37VIJi65AE5FtYCCVW0vKj/aywHtAPbej+ZOgBtbRizlz2x+A9E4FeajuL9YcTet1VRm5lRx0GGuAKgoU7swFicfcP4Vc4JVKjUWOjX65Id0HHaAqgv+ZNcTQ7bXIv7aBgY3cKXZ/ES6/nyaX7/+mNJZRtPp7XWF/cfsaOhpbdyrKaI5t6I/TVwdsLEqiF2Jqnw4aAM303/FUjnQZORgGlu/MN81JYWU5OTsPycvn1su00l5KP1B4+9rOVkd99VXXxEYGMi2bduMejslSZL+1/zyyy/Url0bAJVKRaVKlQgMDDRKo1arGT9+fMa2wWDImMNet27djB/njhw5QtWqVdHpcjcPSnqfmeE50JeUuaPZHCpA5UDHJUvpkh58KHr0mr+481cOd42aSrRqFMKqgNsY0OM1bBSWc+pSZ+AOUhtPZ8e+ISR/PYEdkQ/YuSOSFp9UzHbxC1UBLUOdUhh9NJV4wMRBx1ZPNenxlUoDMVGC2Fzc8Skq0KugSj0z1rip0AGoVJS3eZ7m6P44xjzVsMg3H0++suBoCw2x91Mz5y8Ej+MVbKyNbyENkZfZve0KlWbv5+exzXB6+U9ChPFnSD6cHHLqmgJQ0Gi1aNTW9PbvyNBnvaOqQraUM39+f6IoYDAIksJv8c34tfxUuinDyghu3I7A0lKPSm1DY/cYlq28xp1ngYKSGoPJR2vZNbMtRW6cIaZqDZyyq47hEWf+uEdo5bocGFCeupYv3zIbuBsah20hM9QYePDnfS7bV2JTn3LUyi6iSm+KqOsEHYin9bJNTP3EBbNXtAgA6nJ061earZN+JMQAqEvRY7Yvj/wqUqRMc2aFtWPjydP8PFjPujXHyRTCp15mdvs+HHOfzv7gMJ78dYa13c05fzKHBXvepzbQuDF29QIe/TKJdZ3L4OzWmv0Bfvg3caF0gZx6R9VUbezOk72/pwWMmtL086tJ6bRG4fqyBfzhOZut8z+nbOptzp8OJrGQXTY/+gAqC3p5m7J28720/ExtmNnTiQrpTaNWoY2MfzZ6IXtJd4Jpsy4e368aEPGNB3M+SMD/+8tsj8r6Dzou5AiB92oza8s8ulayzHIYrBHDYx6GW2Nn8+I1E0T8MpC236fyZcB5Hjx5zM1906hx7wRXM4LLwtRv14Cizw5Luf8LIycep37beuT2fzkZXL4l+fLlw9zcnIcPHxrtf/ToUaYewzdhb28P8Nrl2NvbZ3kMZO4FHTRoEGvXriUoKIjSpUvnRbUlSZLemUePHpE/f/6M7fz582d8/2UlJCSE27dv06lTp0zvLVy4kN69e7+Vekr/PLVLb7778h7DPv2aE5EvLU4TcZgDFwpS2C6n4EhL1R6+aBaO4+fHAm2Zbqy7+oi7JwLwb18JG7ua1C58hXPXf+f4HXdqf5DTTbFCkwZ6yp2Pp/dlQ6Zg4drtVGLNFcxz8TuyolXxecsXAstnMtYrEQb2hih09TShqnnaj8xFHU2Y76nJfNOvKFjrBY/CjINsVeFWLAhahfuWngzf/cB4WGDKZZb7dmNHpQn0qfjqtSR1tmWZNaMjQ0ob/5j9/LdvFcUqlcHm+FaafXOKxBadCOxRAos7Jxh7sCCfeJihoKFmt8+YXkWHSgGVnTurl/cjoHtZ9KTy+P5jCjkUznIhIADUpeg6uBmzzK7QbesjjEbPilR+33mQgbccmVTfHBUaqn/SmM1VHtBt3nUuv2L8oMqxAz/u+xrV1+0YvS93q7GCiiKfTaVfwnT6L/uTZCCfe3/WnblN6N1L7FnYj9o2WmztC6FkXlkH8fAAe598xKhB9XA0U6HoClG503dMa18o+0DlvWsDYxrLItSrX536RXL+wUL7QQO6aw8y83gcAg1lPGtRq6ACJBObAnHHN7PnbhLXt81lVXBd5v3QEdtsG0WhcPUyjFDfov3GcB6+1NRxt57wh6kOuxwjLMGRQ6E4NCtDuyJazM1MqVO/PDtamXInMusjrJvMYd+yMqz8tC9bbufimZNKfiwtoogwClZTOLf7IC79J9G2QkG0ipp8xb0YOW8I1bRp9Xp0cBGTJ05gwrgRDOjkTQX3Qdzr/BPftSz46oD2GRlcviWKolCjRo1Mi9/s2bOHWrVq5Vk5FStWxMLCwqicJ0+ecPr06RzLqVWrFgcPHiQp6flf/549e3B0dMTR0RFI+6W+R48ebN68mQMHDuDi4pJn9ZYkSXpXbG1tiYqKytiOiorKmBbwsrt37zJmzBgCAgIyjdq4e/cuer0+T38wlN41PZWGbWBB5Z9pXfMTJqw/wZ3oFJLC/mBBj6H8EnOZpTN+5XFO8y6L+/LDkCjGf7GAKy9NfhMRp/j9li1FTMMIMy1EoVfchSnmGua3M+Hp3jg8f0nit8eCBIPg1vUEvjxmIPbPJBY+zsVpaVXUcVBlPz9LUShpKbj+RBgNfbOyULKYx6ZQr4SK/VuOEfvSOyqb+oxdP5tKW3vRb92fJKZnpvmAbkt3sXWSF4VycYeqLeRIXYecR0mZV2jIb4v6EDStDWNqWRF/9SifjjyI7tNmfJY+pE9lgUcNZxwUQNHjVMT8WRsomJrriY58mnNQozbHp3MDxplepduaezxIT6yo8Wjuye7BFfAwBRBEhidSvIknq6qF0X/2BU683DgvSgjlnsabOVsmYjm3A703hZCUmzGHmrL0XzER0+mt6Lv1bubeyeiTzF16j1btq/PyCGLFqgTO4ibXw148Yz32hQvmHAy8b23wd6hs6dbbjd9n/cROo0nOeioP2swPTc+x5v8eUK7rHBZO7UXtnCNDUJnSrXtFPrpzkZqzrrPiehyRKYKn9x8wYM19HkaE8s3v8TnMuxQkJBt4ec2gQq5FaGaR9RHJYXdIqDKOTfMqs6lrF5Zcis15mKq2AvU9brFnX/gL6dQUK+XI/as3jOblqu2LkP6bmUYVyYmV05my7BQmdQex/twl/m9IDQq8xmBIGVy+RUOHDmXnzp1Mnz6dixcvMmLECM6fP8+gQYPyrAy9Xk/fvn2ZPHkyW7Zs4fTp03z++efY2dnRoUOHjHT9+/c3eoZl9+7dMRgMfPHFF5w/f57Vq1fzww8/MGTIkIw0X3zxBQEBAcydO5eYmBjOnj3L2bNn83TOqCRJ0j+tRYsWHDlyBEj7Ee3cuXM0bNgQgAcPHpCQkPbf7s2bNxkzZgwLFizAysqKjRs3GuUzb948+vbt+89WXnr7VPY0m3WIw3PqEPpjL+o6WWFdtgM/5RvMrivH+CpiPP0C/sohKFFTvOtS5lb6iY+bDSPg9EMSDYmEnVvP0JaDudz2K9qVsMYy8gGhuXhenpmdCZt9Tellmsqk9THYTouhTqABz5bmXP5YzebtiZx4k+fuAaDwiacJYXvimPTXq1MXd9PR7HBffBedIvzlsvVl+HzBUjrcHE+fheeIeVsBAxATfIEZS7fz+dDvcPW/iHXHLmxoaZMpsMpMhb2bK/HHjz0PlrKjaKnSrA5zy4UyZEUwN5OzOKGUUEaN/pmuR5JxrlWL9T6pTJ5zkl8jszp5wb1ln1G+wQROWdRg+PqF1NnpS5dFF8jNui4a544sW9+D0KG1adB7LttP3uB28EWObJ3Nlw3bsrvRfMbXefnRKoCpFyPG5mdOs0H8Fp2Lgt7jNvg7zN0+YZnPQwYN20SQUResDktLU9TqVw3XNqaYFWCMXw1WVTWwfcMflB6wj+JzQoj2cOPCxLJY7bvEvGyfZanCo2J+ju26xf6nL3wA1TocshxOnMLWPhWpMug3NBV6sGr1p1zy+4xpx3KYL4sFTfy6Ejq5LyuupEf5Kop3m8zHv3ej9Q/Xsgh+FQrWGc6286dZ+7mKfWt3cuZ+XK7nWqaTz7l8i5o2bcrKlSuZNGkS48aNo3Tp0mzevDlPn3EJMHnyZAwGA7179yYqKoqaNWvy22+/GT3j8sKFCxQo8PwRzfb29vz2228MHDgQDw8PrK2tGTt2bMYzLgHWr19PYmIirVu3Nipv/Pjx+Pv75+k5SJIk/VPc3Nxo2bIlw4cPJzY2lgkTJmBjkzb5bNCgQXz88ce0bNmSunXrUqxYsYzFekqVKkXbtm0BiIuL48aNG7i5ub2z85DeJj3Fm/ixoIlfpndq/biGpI4f8oNWkzFMTKszx0T7wk2hYkODybv5+ef/b+/e46Kq8z+Ov4fbIHIR42oaYpmQgbE/JY0UuumKrmlhUau5lW7qz9QyzUsWopSWaLrRRTQxdzNtt9tm/qhEzUuKbouvSnsSAAAZOklEQVQmXvL6ExOdNYtREElmfn/4c5JQQ2aGAXw9Hw8ejznnfL9nPmd86PD2+z3nm6n0UXdo/L6TMrbuovuHfay8AXHytx5U/HWT9MWWCvW8/befY+DWxF0D72yigXf++ohR/7jLql4fWWR7e/dzy4Z41GCkwcvdYFuGwzvESx8/4aUzF/6O7W5QE/dfRiI83Q3ycjNIXu568cMZShsxSDETi2VpNUTv509X1/OX4hasxOeyFfrOcD3o53OZJ1peCXcZvT3Ovf//M1Se1Rk3L4W3jlT3Zqd0+Mt/qvfaICUmxunRO9oo0vvSZ/OMT9W9pjF6b+9Qjb3xt4KFm1p17Kg3m+/Qn771VNCvm3uEadrUe1XZ3CiDpKCbbtFSv+80+JUDF0wlNMjo5S4vNze1fHSxCvoE6AYPSR43amD2YoU+119/Mtxcg8/BIL//GqkPN3TSwldmKP3Badp19Iz8296u/k99pM8HxcnP1tRTRm+jvNwNktwU+fA72nz/GblfMDfaw8soo1dN4kB9+gwuxkPeTX9ZM9bd01M+Xhcu0eGluEee1hJjth599EV1e9Kg5NjmKi18X7PWdtWE56698hE3d6NuT4zS7YlR1Q5lDbfoidnfyc32ObnJaHSz/cfHNXHRWnh8p56e8S/dN6KjxrUwSHKXn7eb7e+gwd1wbnkSeajva98o3qv1uWntLf+g2UuD9cofU+V2yZtDJc+bn9HfXhqr1O43aEbotfKLelIfvjNIk/P+rTM/X7A2rMFTXk2MttoMvlHqP+N/dM/WdzR59F1679aJmjv5ft3Y9BJv9CsGq/UiE7NRb6SlpenVL/folnuHaPXYJFeX0+hNmTJFVquV8AzUwvmHgfG1AvwWiw7MvUt3bh2r7QuSddHf2dIC6rqoK5NW4tjzrX7JASex6KdD+/Tux2s1Z7Ob/jQ2VeNjvKveK5Y0wfby9A/HVRkYJN9LpYq/P+aAmi4i5W3nnNcZ6tNnUPCuQ9669PA25aw1afXuk/KLvkePjXpMt4fVcLzt7d87pIYr9tj/1L5vxY8qKvpRXmGtFdr0CiN05XHlZ4/XmLdP6PdTX9UzPa6TsSJPw9tN0Y15qzQ6svr5GLkEAACoU25q/cjLmrkpSJcZXMMVc1Oz69pq+JM36JHDB7RFF19c/rwm1wRd5igaq6YtY/XfMx7WVXNTg1egWl0fWLu+7kGKHzpfefeu0WtT39DyDi/qvrA79fqBatMobAiXDcCZom/1v18s0pSyNa4updFbvXq1EhMTXV0GAKCRMzTrpPtZNtpJDPJt2UZJri4DaCQ8wxP11Os1+/2YcFnPJSUl2V4z1cz5EhMTq3zmAAAAAGqGcFnPJSUlEXYAAAAA1Hs80AcA4BA80AcAgKsbI5cAAIc6ceKE2rRpU2VfWVmZ3Nzc5O39y+NLrFarSktL5et7btXoU6dOKTQ0VGVlZSopKZG/v78tsEqS2WxWYGCgjh8/XjcXAgAArggjl/Xc6tWrtXr1aleXcVVhKjJQOxeOXP46HH7zzTfq37+/Zs+ereTkZHl4eOjw4cMaMGCA7d+4jh07asuWLVq3bp0mTpyor776qsr5IyMjdeDAgTq9JgAAUHOMXNZzq1ev1uqcaUpqzR9VXVhz9tyC6IRLwD5/+ctf1L59e/Xr10+StHXrVrVs2VLLli1TRkZGteB4oYMHD6q8vFwPPfSQ3n333SqjlwAAoP4isTQASa09lJZkdHUZV4Up5Z3FUD5gv9tuu00ff/yxLVx+8MEHWrx4sa677jpNmTJFixYtUnJy8kX7DhgwQAMGDNCIESO0cuVK3X333XVZOgAAqCU3VxcAAGh8EhISlJeXpzNnzkiS4uPj5eXlJUnq37+/Vq5cedn+GzZs0LJly5SSkqLbb79deXl5Tq8ZAADYh3AJAHA4o9Govn37av78+ZKkyZMnKywsTJLk5uYmD4/LT5z585//rKVLl+rHH3/UjBkzNHToUJnNZqfXDQAAao9w6UQrV65U7969FR4eLoPBoL/+9a+uLgl22Lx5s7p06SJvb2+1atVKL7744m/2ycvLU0JCgvz8/BQaGqqnnnpKFRUVVdqsW7dOiYmJCggIUPPmzdW9e3dnXQJQp55++mnNnTtXO3bsqLJ/8+bN2rNnj37++eeL9quoqFBAQIDuuOMOGQwGJSQkaPHixbJYLHVRNgAAqCXCpROVlpbqlltuUVZWlqtLgZ2OHTum7t27q02bNtq0aZMyMjKUnp6uOXPmXLLPtm3b1LNnT3Xq1En5+flasmSJPvvsM40cOdLWxmQyKTk5WREREdqwYYPy8vKqLNUANGSBgYHKyclRnz59tHTpUp09e1YHDx7UvHnzNHDgQI0bN+6i/by8vOTu7q5vv/3Wtu/CabUAAKB+4oE+TtSnTx/16dPH1WXAAbKzs2UwGLRw4UJ5eXmpQ4cO2rp1qzIzMzVq1KiL9nnvvfcUHh6u2bNny2AwKDo6WtOnT9cDDzygadOmKSgoSNu2bdPJkyeVkZGhVq1aSTo3fRBoLLp06aLc3FxNnTpVEyZMUFBQkN566y3FxcXJ3d1dH330ka3t+fUuJWnBggUaMWKEhgwZopSUFBkMBoWGhrriEgAAQA0xcgnUwIYNG9StW7cqIyf33HOPioqKVFRUdNE+FRUV8vHxqbKMQtOmTXX27Flt3LhRktShQwf5+flpwYIFqqio0OnTp5WTk+PUawHq2vXXX6+cnBzt379f+fn5iouLkyQNHz5cn3/+ua3dhWv6tm3bVrm5uUpJSbHt27ZtW53VDAAArhzhEqiBo0ePVhs1CQkJsR27mB49emjnzp2aN2+ezp49q6NHjyojI0OSVFxcLEkKDg7WqlWrtHDhQjVp0kRNmzbVqlWrnHglAAAAgHMQLgE7XWqB93vuuUdz5szRs88+K29vb0VGRiohIUEGg0Hu7u6SJLPZrMcff1xdu3bVpk2btH79erVp06YuywcAAAAcgnAJ1EBYWJiOHTtWZZ/JZJKky94HNnLkSJ04cUJFRUX64Ycf1K9fP1mtVkVGRkqSFi5cqEOHDmnRokXq2LGjunTpoiVLljjvQgAAAAAn4YE+QA3cdtttmjVrlioqKmz3XX7xxRdq1aqV7UE8l2IwGBQeHi5JeuONNxQcHKzbbrtNklRWVmZrc2F7oEFLC6j79+z5snTrE3X/vgAAwIaRSyc6deqUCgoKVFBQIEk6dOiQCgoKLvkAGNRfgwcPlsVi0aOPPqpt27Zp8eLFev311zVmzBhbm7fffls9e/as0m/8+PH64osvlJeXp2HDhiknJ0ezZ8+W0WiUJPXs2VOnTp3SkCFDtH37dv373//WI488UqfXBgAAADgC4dKJNm7cqLi4ONuTESdNmqS4uDhNmTLFxZXhSoWFhenzzz/X/v37FR8fr/Hjx2vy5MlVliE5dOiQvv766yr9CgsL9cADDyg5OVmbN2/WBx98oD/+8Y+247fccos+/vhj7dixQwkJCbrrrrtUUlJSZ9cFAAAAOIrBarVaXV0ELi0tLU1aPV1pSUZXl3JVmFL+qKzezc597gCuyPkp3dYX/Ov+zf9/WuyZM2c0duxYhYeHa+/evRozZoxuuummKk337dun5557Tr/73e/0/fffKywsTOPHj5cklZaW6pVXXtFbb71le6ozAACoGe65BAA0Gufva54wYYL279+v1NRU5efnV2lz4sQJPfzww/rDH/4gSbrpppuUnJys2NhYbdiwQSkpKXrttddcUT4AAA0a4bIBWPO/lZqy5oyry7gqrP55oxLv/r2rywBQS8uXL9eECRMkSW3atNHhw4dlMpls69JKUqdOnar0sVqt8vHxkXRuCaGffvqp7goGAKARIVzWc0lJSZIk5i7XjUT98pkDaHhMJpP8/X+Zluvv718tXF7oww8/VHJysm644Ya6KhEAgEaLcFnPJSUlEXYAoIZCQkJkNptt22az+ZLBMi8vT1999ZVmzZpVV+UBANCo8bRYAECj0atXL61fv16StH//frVs2VIhISGyWCw6dOiQrd2nn36qlStXavbs2fr++++rPekZAABcOcIlAKDRGDZsmEwmk6ZOnaqpU6cqJydHkrRt2zbbA3zy8/OVmpqq9evXKykpSX379tXu3bslSbt27dLMmTN1+vRpTZs2TceOHXPVpQAA0OCwFAkAwCFsS5HwtQIAwFWJkUsAAAAAgN0IlwAAAAAAuxEuAQAAAAB2I1wCAAAAAOxGuAQAAAAA2M3D1QUAABoXk8mkdu3aVdtvNpvl7+9v23Z3d1dlZWWVNhUVFbJYLHrqqaf04osvOr1WAADgOCxFAgBwiMstRWIymRQdHa3MzEz17t1bQUFBFz3HSy+9pIqKCr3wwgtOrRUAADge02IBAE5TWVmprKwsJSQkyMvLSyUlJeratas2bNhQpV1RUZFSUlI0f/58F1UKAADsRbgEADjFxo0b1alTJ61bt05ff/21fH19NWrUKH344YfKyMiQJJ09e1YzZ85UUlKSUlNTlZ6e7uKqAQBAbXHPJQDA4ZYsWaIxY8bozTffVJ8+faoca9u2rcrKyiRJqampslgsys/P1zXXXKO//e1vrigXAAA4ACOXAACH69u3r3r06FHt3sry8nKlp6frgQcekCRlZGSosrJSFovFFWUCAAAHIlwCAByuSZMmWrBggf75z38qLy/Ptt9qteq+++7TsGHDJElhYWHKysrS0KFDdfjwYVeVCwAAHIBwCQBwCjc3N7300ksqLCzUihUrJJ0LnR06dLC1iYyMlMViUXZ2tsaNG6e9e/e6qlwAAGAnwiUAwKmefPJJlZWVKTg4uNqxPXv26LrrrlPz5s01f/58ffPNNy6oEAAAOALrXAIAHOJy61xeCYvFIjc3/u8TAICGhm9vAEC9QrAEAKBh4hscAAAAAGA3wiUAAAAAwG4eri4AANDIpAU4/z0mHZU8mzj/fQAAQI0xcgkAAAAAsBvhEgAAAABgN6bFAgAarDVr1mjJkiVq0aKFfv75Z6Wnp9uWRDnParVq0aJFmjRpknJzc3XzzTfbjs2bN08FBQUKCwvTzp07lZ2dLV9f37q+DAAAGgXCJQCgQTpz5owGDx6srVu3ysfHR4MGDdJnn32mXr16VWm3a9cuRUVFKTg4uMr+8vJyjRs3TsePH5eHh4cee+wxLV26VI8//nhdXgYAAI0G02IBAA3Sli1bFB4eLh8fH0lSQkKCli9fXq1ddHS0OnfuXG2/h4eHfH19VVJSIkkym82KjY11btEAADRijFwCABokk8kkf39/27a/v79MJlON+3t4eOjVV1/VQw89pIiICBmNRkVFRTmjVAAArgqMXAIAGqSQkBCZzWbbttlsVkhISI3779q1S88//7yWL1+u7OxstW7dWi+88IIzSgUA4KpAuAQANEgdO3ZUcXGxysrKJEnr1q2z3W9ZWlqq//znP5ftf/ToUQUEBMjT01OSFB4ervLycucWDQBAI8a0WABAg2Q0GpWdna3Ro0crLCxMERERSk5OliTl5OSosLBQr7/+uk6fPq3MzEwdO3ZM8+bN04ABAxQfH6/ExETdeuutevrpp9W8eXNt375dmZmZLr4qAAAaLoPVarW6uggAQMN3fgkQvlYAALg6MS0WAAAAAGA3wiUAAAAAwG6ESwAAAACA3QiXAAAAAAC7ES4BAAAAAHYjXAIAnMJisWj69Olq3bq1wsLC9MQTT6i0tFQffPCBQkJCdP3118vLy0tGo1F+fn7VfuLj4xUYGFjtx8PDQ82aNdORI0dcfYkAAOAChEsAgFM88cQT2r9/vwoLC3XgwAE1bdpUPXv2VH5+vmbPnq19+/bp5ZdfVrt27TR//nytXbtWu3fv1smTJ3Xy5Enl5+frxx9/rPYTExOj77//Xi1atHD1JQIAgAsQLgEADrd27Vrl5eXphx9+kI+Pjzw9PbV3715VVlZq3rx5tnYGg0EdOnRQXl6e+vfvr4iICN14443av3+/C6sHAAC1QbgEADhcTEyMNm3apNDQUE2dOlUDBw5U586dtWrVKvn7+1dp27FjR7311lvatGmTYmNj9corr2ju3Lm247NmzVJMTIxiYmKUlZVV15cCAABqiHAJAHC4Zs2aKSgoSJmZmZo7d67atm2riRMnysvLS3369KnS1mKx6ODBg7r33ns1fvx4tW/fXqdOnZIkLV26VJs2bVJ+fr42bdqkwsJCFRYWuuKSAADAbyBcAgCcZs+ePRo+fLjS09Nt+wICAmyvb731Vv3jH//QM888o5dffln9+/fXwoUL1bVrV0nS8uXL9eyzz6pJkyby8fFRZmamvLy86vw6AADAb/NwdQEAgMYrNjZWsbGxlzzeuXNnrVu3zrb9/vvvKzc3V2lpaZKk4OBglZSU2I43adJEN9xwg9PqBQAAtUe4BAC41HfffacVK1boyy+/lNVq1SeffCJPT09J0qBBg/TII48oNzdXoaGhks49BAgAANQ/TIsFANQpb29vGY1G2/bx48d15MgRtWjRQm5ubhowYICmT5+u48ePKzY2Vp988okCAwNt7X18fOTmxtcXAAD1jcFqtVpdXQQAoOE7P6Jo79eK2WzWe++9p1dffVXZ2dlKSEhwRHkAAMDJCJcAAIdwVLg87+TJk5IkPz8/h5wPAAA4F+ESAOAQjg6XAACgYeGmFQAAAACA3XhaLADAsdICfrtNTRj9pAmHHXMuAADgdIxcAgAAAADsRrgEAAAAANiNcAkAqPfWrFmjoUOHKj09XZMnT77oQ4OsVqtycnJ07bXXavv27dWO79ixQ76+vtq4cWNdlAwAwFWHey4BAPXamTNnNHjwYG3dulU+Pj4aNGiQPvvsM/Xq1atKu127dikqKkrBwcHVzlFWVqbMzEy1b9++rsoGAOCqw8glAKBe27Jli8LDw+Xj4yNJSkhI0PLly6u1i46OVufOnS96jkmTJmny5Mny9PR0aq0AAFzNCJcAgHrNZDLJ39/ftu3v7y+TyVTj/osWLVK3bt3UunVrJ1QHAADOI1wCAOq1kJAQmc1m27bZbFZISEiN+69atUq7d+/W9OnTdfjwYS1evFgrVqxwRqkAAFzVuOcSAFCvdezYUcXFxSorK5OPj4/WrVunBx98UJJUXFyswMBAeXt7X7J/Tk6O7fWnn36qgQMHXnL6LAAAqD1GLgEA9ZrRaFR2drZGjx6t559/XhEREUpOTpYkjR49Wh999JEk6fTp05o2bZqOHTumefPmKT8/v8p5Zs6cqaKiIuXk5KigoKDOrwMAgMbOYL3Y89wBALhCBoNBki66TAgAAGj8GLkEAAAAANiNcAkAAAAAsBvhEgAAAABgN8IlAAAAAMBuhEsAAAAAgN0IlwAAh9q9e7eaNWumuLg47dy5Uzk5OYqIiNC1116r9PR0devWTWFhYQoMDKzy4+fnJ6PRWGVfamqqqy8HAADUkIerCwAANC7t2rXTTz/9pLVr16pfv36KjIxUYWGhJCktLU3FxcU6evRotX7Lli3TzJkzNXHiRPXs2VNGo7GuSwcAAHZg5BIA4BRdu3ZVaGiounfvLl9fX/n6+mr69OnV2pWUlGjkyJEaNWqU/Pz8tHnzZsXHx+v48eMuqBoAANQW4RIA4BR///vfVV5ermXLlum7776TJHl4VJ0ws3jxYsXExCg4OFjvvPOO2rRpo4yMDA0bNkwLFy50RdkAAKCWmBYLAHC4Hj16qLKyUsuWLdOePXs0ZMgQ9e7dW2PHjrW1GTp0qP71r39pxYoVat++vdasWWM7Fh0drS+//NIVpQMAgFoiXAIAHC43N9f2OiIiQnfffXe1NuPHj9e4ceMUFBRUZf+RI0f0xhtv6Nlnn3V6nQAAwHGYFgsAcInWrVvrzTff1MSJE1VUVGTbbzAYNGPGDMXFxbmwOgAAcKUYuQQAuEzz5s2VlZWlyZMnKyoqSpIUHh7u4qoAAEBtMHIJAKhTAQEBVba9vb01Y8YM7du3Tz4+Pi6qCgAA2MtgtVqtri4CANDwGQwGSRJfKwAAXJ0YuQQAAAAA2I1wCQAAAACwG+ESAAAAAGA3nhYLAHCstIDfbvNrQTdKIzY7vhYAAFBnGLkEAAAAANiNcAkAAAAAsBvTYgEA9cqcOXNkMpl06tQpdevWTffff3+1NlarVYsWLdKkSZOUm5urm2+++Yr6AwAAxyNcAgDqjYKCAn3yySdauXKlLBaLYmJilJiYqKCgoCrtdu3apaioKAUHB9eqPwAAcDymxQIA6o3ly5crISFBkuTm5qYOHTooLy+vWrvo6Gh17ty51v0BAIDjES4BAPWGyWSSv7+/bdvf318mk6nO+gMAgNojXAIA6o2QkBCZzWbbttlsVkhISJ31BwAAtUe4BADUG7169dL69eslSRaLRVu3btWdd94pSSouLlZ5eXmt+wMAAOcyWK1Wq6uLAAA0fAaDQZJkfcH/N1peRNCN0ojNks497fXIkSMqLS1VUlKSUlJSJEkPPvig+vXrp9TUVJ0+fVqZmZnKyspS//79NWDAAMXHx1+2PwAAcC7CJQAAAADAbkyLBQAAAADYjXAJAAAAALAb4RIAAAAAYDfCJQAAAADAbv8H9gEkCEzlLNgAAAAASUVORK5CYII=;" parent="1" vertex="1">
          <mxGeometry x="-140" y="830" width="919" height="189" as="geometry" />
        </mxCell>
        <mxCell id="79CWCTIytuqyBhmsyid--4" value="" style="shape=image;verticalLabelPosition=bottom;labelBackgroundColor=default;verticalAlign=top;aspect=fixed;imageAspect=0;image=data:image/png,iVBORw0KGgoAAAANSUhEUgAABD4AAADJCAYAAADLj/JnAAAABHNCSVQICAgIfAhkiAAAABl0RVh0U29mdHdhcmUAZ25vbWUtc2NyZWVuc2hvdO8Dvz4AACAASURBVHic7N13eBRVF8Dh3/ZUICQQIIEk9E7ovQQSqiAgTaWJhA4Kgkgo0kGkCkjvIr0oSjeAVEW69BaK1FQS0nfv90dISEghKEX5zvs8+8DOztw5c2dmM3P23jsapZRCCCGEEEIIIYQQ4i2kfdMBCCGEEEIIIYQQQrwqkvgQQgghhBBCCCHEW0sSH0IIIYQQQgghhHhrSeJDCCGEEEIIIYQQby1JfAghhBBCCCGEEOKtJYkPIYQQQgghhBBCvLUk8SGEEEIIIYQQQoi3liQ+hBBCCCGEEEII8daSxIcQQgghhBBCCCHeWpL4EEIIIYQQQgghxFtLEh9CCCGEEEIIIYR4a0niQwghhBBCCCGEEG8tSXwIIYQQQgghhBDirSWJDyGEEEIIIYQQQry1JPEhhBBCCCGEEEKIt5YkPoQQQgghhBBCCPHWksSHEEIIIYQQQggh3lqS+BBCCCGEEEIIIcRbSxIfQgghhBBCCCGEeGtJ4kMIIYQQQgghhBBvLUl8CCGEEEIIIYQQ4q0liQ8hhBBCCCGEEEK8tSTxIYQQQgghhBBCiLeWJD6EEEIIIYQQQgjx1pLEhxBCCCGEEEIIId5akvgQQgghhBBCCCHEW0sSH0IIIYQQQgghhHhrSeJDCCGEEEIIIYQQby1JfAghhBBCCCGEEOKtJYkPIYQQQgghhBBCvLX0bzoAIYR4XeItioX7r7H26C1uh0SR3dZIg5K5+MynMFmsDW86PCEyZo6FfV/DgalQtgM0nf6mIxJCCCGE+E+QxIcQ4v+CRUGv746x/3IgU9t64lUkJ+fvPaLv98c5eDmQjb2rk8VKvhLFv9Rfx2BzLwi/B5b4Nx2NEEIIIcR/inR1EUL8X1j3xy12nrvPgPqFaVQyF1YGLWXzZmNya0+uPIxg0vYLbzpEIdJ24xAsawblOkKDsW86GiGEEEKI/xxJfAgh/i8sPHANjQZal8+bYnqV/Nlxc7Rh7dFbhEfLL+niX8jGEXoegKq9QSN/toUQQgghXpRcQQkh3nq3Q6K4fD+C/E62ZLNJPZZHeTcHYs0WDl4JfAPRCfEcOYqAg8ebjuL/hgpeShMrDRpN+i+dUxe2xr7pSJ/PfPFbGrk4Uqr/LsJU+vNZrk+npkmPR/8DxL1A+ZlaToWy89NSOLo05tuL5hcoPZYdvjnRWTVk4YP0g0+IQUeenruJJfPb/Le25ZUwc/Gryhj17nzy6+td8wtTgSxubIXW/gM2xbzpYIQQ4sVIh3YhxFvv4r1wAFwdbNL8PHH6hXvhNCyZ67XFJYT499FYlaTlp59R7EkDsIiT61jof4eCTfvwTiFdwjy2lcive0krfLya95zeZ+s7awhe1wbrl1QsgIqNIDQigkdhkSRsTjzHh3tSeaIWvz+OM6rM67gMNBMV9oiIiFAiXkOyKPU2v2SvcH8JIYR4dSTxIYR46z0MT/hpKms6T25JnB4YIT9hCfF/z6YCH0+s8OSNhduzj7PE/yFlOk5k8numNxrai9KX+pxDQf2x6A28rDzNC9M48u6Sa0Qs0GLQa1756v4V2yyEEOJf51/f1WXNmjW4ubmh0WiYO3fumw7nP23fvn24u7uj0+n44osv/nF5X331FS4uLmg0GrZv3/5Cy8bExODu7o6trS1VqlT5x7EIkZHo+ITm1Xpd2hfdBl3CV2FU7Is0wxZC/L97fH4tQ1tVwt3RFuuseSnX4gvWnH/85NNw/PsWwqDPT+/d4U+mWbg2ux5ZdA40nBdA1E+dyG7/PhujIXp9W2w0Rip/dZFU30RxB/msgB5DyeGcSGzGEHeA/vn1aEw1mHbN8mRiBJvbO6Kz8mLWLQuW69OpZWtF3p67iTVfYlIVG8qPPUt8/BlGexrQZuvIluT5XksIR6a1o1weO0w2ThTx/pTVl6KfXxEZLhfLDt/cWNnWZdatxDgtPDwwgy61CuJka4NDAS8+Xfcn37W2TqMbhSL2+gYG1C2Ig5UVWfJWoN2kX3mYTjeWFNucODHqIuu+eBdPl6xY2+XGs80Uft0zgtIGI+XHnUtZ3xlsS8xz9lfGx8OT3XZzG2PbVcbNwQYbp2I0GbGDuxn+6Yngh45O6Ex1mHnzmf2staf5d8GoJ/V0b0FDbLTZaL0mNGE28z32zeiGd/HcZLWxI0eBqrT9ciMXIxPLftKdyLop034YR4tSObGxSexaZOHB/unP7KOrpGq0Y3nAgRldqVvMGTuTCbtcJWj46UrORT47oxBCvFkZJj7u3buHq6srtra2aLVaXF1dcXV1xcHBgRIlSjB58mTi4l5tf8S2bdty8eLFVNMfPXpE7ty5WbRo0QuVZ7FYGDlyJL///nuqzyZMmEDhwoVf+Ta9KbVr1yYgIIAcOXK8lPIGDx7ML7/8kql5n91fJpOJgIAAmjZtmmrehg0b0qlTpxTT/P39mTRp0nPLFSItVvqE3/3izWlfKceZEy4mrY3y+6AQInPMVxbQpvb7TNqvoabvUEb0qYfp8BQ+8PqQpTcsgD1eIybS1vkmi4fO5mw8qKAf+HL8PsyVv2BKF3dMnr7M+rY75QxgqNCTeUsWMqJJ7tQXZ4byNPDOieXyXvbdTvi+Ml/cy77bZog7yZ4DIQk3v3HH2XMgDF3pBnjneaYUbS4aD5/LpzVs0WiyUOuzBSz51hfPpIZwitDtg/FdHEnlDn3o6uPMvT3f0LnNBI5neFn04svFnvqKZo36s+yUiepdBtDnXWcODGjHVyfT6Jxivsisj/046tqMHn3aUtpymrVDWtN7zX0yNYSHesCm7j68P2k7D/O3oN+Aj6gUMoeOfTeSeuiQjLfFkMH+ev7xACrsFz6r35wRG67j3KgnA3t4o9/YjW5Lb2J5NpQkttRsUAvb+GP47w9LsZ8tKpLD/kdISMtEcGjP78RYV6VhnaygQvnls3o07L+cS85N6PPFZ3xQ+hE7xrah9vtLCEiebIk9xIReS3hcowdDh3+Ip62G6GPjeKfRAJadtqbmx4n7qAPTzibfR2YuftOaxgO+52b+9oycPp3h7zlxalZnmgzY8UJjrAghxCunMqFTp07K1tY26b3FYlFLlixRgOrSpUtmivhHoqKiFKDmzJmTNC0yMlJVrlxZbdiw4YXKiouLU4CaOXNmqs/mz5+v6tWrp+Lj4/9xzP9mzs7OavDgwS+lrPPnzytAbdu2LcP50ttfbdu2VZUrV04x7eOPP04V39ChQ5Wjo2OmyxUiud3n7iu3wT+pjot+S/PzKTsvKrfBP6lpuy695siEeEEnvlPqyyxK/fjJm47k/4RZ3ZrlpYwaa9VmfXSy6Y/Uls65lM62hpr059PpUce/VOWMOlVgwEEV+2T5gPmNlIPOSbVYcU0d+qKEMhhLqSG/RT4tKmKVammFsmq1RiWbmsqjDe8rB62tarYsUFmUWd3+tq6ysvJQBVwNyqnTj+qxUir+9CjladCr4n5/qDillPnaNFXDqFW5e+xSMUoppeLUsWEllF5fSo04Gfd0K69NUzWMKF3BPuqXsCcTLffUdy2yK+0z86aonUwtF6O2d82htMY6auZNs1IqTG38wElpdflVt23BypJYDYcHq1IGjdLYva82Rquny2nslffs6yrxyiz66FBVSq9Rdq3WqPA0tvHZ9/Fnx6ryBo2yqzNNXYhNDPyWWvquo9JiUOXGnlXxL1IHae6vzBwPZnVjVl1lrTGpCiOPJS1rCd6uunnoFDo31W9frEqL5c5c5WOlVTm7bFWRSqm4UyNVGWM2lT+/kzIUHKgOxSqlYvaoPnl1ylhzmrpuVir+/ERVyaRVWRvMUdfiklamtnfPr3RaF9Vtx+Ondax1UE0W3VJm9XS+NW0clEZfSPXeHZK0jx7/PlR5GpPtI0uQWtLEpDS2rdTq8MRlH6nfV05XC7ecUcEWJYQQ/xp/q6uLRqOhc+fO1KpVi6VLlxIUFPQyczGZYm1tzZEjR2jZsuVLK9PX15fdu3ej08mvvi/bi+yvhQsXMnHixJdervj/VSSXPQC3gtNue5s4veiT+YQQIkNxx9np/xBdxVa0yBdHREQEERERxOdvQpNiWm4ePMB1M4AWt85fM7hSJFsG+/DhNxfJ13UqX1R68SEx7Wo1pKZNFIf8DxOlwjng/weqSl/GvJeXR/v3ciLOwt1f93Le4oJ3g1J/YxA3LdlqNqJGlidvNU5UrFIInQohKCSjn+5fcLm40/x6OARtwdZ09XYgsQOibcVOtCudRtSGkjRskC9pvA5TqSqUtYe4kCAePbdFgSLo0H7+jLembpeOFE5s3aJ1pVXnBmRN1fvxb9ZBpo6HaI4eOEq0oRLtO3smDYqqcahLp5buGY5HonH2pkFZPUG/+nPqyX6+YFUPvy8bkuXmPvZdNRN/fg/77mopWd+HvFrFg727OBVri/dHH+ChT1oZ9bq0pqD2Hv47Tz19eo2+BN518zxtaRR/mgNHHqEr3IYutbMl7SObch1p55lsH2nsKVE6P/rIbYzsNIKFWw5xMchIhQ8+4eN3SuLw6od0EUKITPtHY3y4u7tjsVi4c+cOrVq1SnrM29GjR2nVqhV2dnYpxuYIDQ2lR48euLu7U7hwYSpUqMBPP/2UqtzZs2fj5uaGnZ0dtWrV4sKFCyk+v3jxIq6urhiNRtq3b5/is0uXLtG8eXPc3Nzw9PSkYsWKjB8/nvDwcPbu3Yu7uzsAw4cPT+q6c/v2bbp3746TkxMajYYrV64klaeUYvr06RQtWpSiRYtSoEABhg0blqI7TOJyrq6uHD9+nPLly2NnZ0ft2rW5evVqhnXYrFkzHBwc0Gg07N27l8qVK2Nra4u7u3uKMU1mzZqVVL/z589n6NCh5MiRA41GQ7t27TIda3Jjx47F1dUVGxsbmjZtyq1bt5I+i4uLY+jQoZQvX57y5ctTpkwZOnfuzP3799MsKzw8nI4dO+Lg4ED27Nnp168fMTExz91fzypdujT29va4urqmqKNvvvmGkJCQpH02YMCADMs9f/4877zzDh4eHnh4eNCkSRPOnz+fYp7du3dTrVo1ypUrR5kyZWjatClbt27NMD7x3+TqYE3BnHZcD3pMaGTq8+H4zRAMOg3VCjq9geiEEP85lmAeBlmI3fsphbLYY2//5JWtEmNOxWEJekhwYt8FQ3F8+zTA5u5VrseVw7efF1kyLDxtmux1aVDJSMj+PZyM+A3/g9GUqFefd+rXIdvtfey7FML+PX8Q71SPBhWMf2uzjKbky2nQ6bRolEKpjDMML7ScJZjAIAvaPPlI0RtHlwuX3GldlppIWbwWnVaDUornhAVYCA4MxqJxwNXFjuT34abcLjilsbq/VQeZOR7MjwkNjQWdM3lypthwcubKmfEFudYNnwbF0NzYx96rwezfcwxtZR8aNvKhuvFP9uy/x+1f93GR/PjUL4Iucbu1DrjkTplk0+ZyIZfWQlBgcLLuNXr0yTMvljBCQi1onfPgnCLUHORKEbuBisM2sOyT6lj8J9KtWXWKOTviVqMrc46GZq4rkhBCvCb/KPFx5coVdDodefPmZc6cOUnjLAwePJiWLVty+PBhqlatCkB8fDwNGzbk6NGjnDx5kkuXLjFo0CDeffdddu/enVTmqlWr6NOnDwMGDCAwMJCFCxcybNiwFOstUqQIt2/fpnTp0imm37p1i2rVqpErVy6uX7/OyZMnGTlyJMOHD+fixYvUqVOHgIAAAMaMGcPt27e5ffs2rq6uzJs3j6VLl6baxsGDBzN27FjWr1/PhQsX2LdvH6tWrUpxo33ixAl8fX2Jjo5m4sSJzJ49m59++okbN27Qq1evDOvwxx9/ZMKECQD4+fmxYsUKgoKC6NevHz179mT9+vUAdOrUibNnzwIwb948rK2t2bNnT4ryMxNrotWrV2NjY8OVK1c4ffo0165do0mTJlgsCX8GHz9+zLx589iwYQPHjh3j+PHjZM+enVatWqX5x3/MmDG0b9+ehw8fsmbNGpYsWcJnn32W4f5Ky+nTp+nevXuqOurXrx8ODg5J+2zq1Knplnvz5k2qV69Orly5uHbtGteuXcPNzY1atWolJW7u3LlDs2bNGD16NMePH+fEiRMUKFCAb7/99rkxiv+mj2t4oBSsO3YrxfQj14K5ERRJ6wp5yWIlD7oSQmSCNhuODhr0JXqxat9+9u9P+dq3qhclEr9O4s4y/5sdPM7iSHZ1nPkz/P/e2Afa3Hg3KIP21j52bdzNr8H58KpXGPtqPtS0OsueXT/yy8FI7Go3pHraT+7+d9DYYW+vwRL0gMDkA1tYggkMetm3yhrs7O3QqEc8DEr51K74oEBCX9bqMnM8GGxxyGYE8z3+up98w83cv3MvgzE+APQUq++Nu+VP9uz8iV8OxlLK24tcjnXwLq/4/ZdtbPc/hjlXPRqU0QNaHJyyo7WEcPdeysFpLffvcN+iJbuTQ/o3AdqsOGTTYrl3m7spQr3PnXvPRGpTjPen7eDiwyBunPRn1cSWOJxeTN+WX7A7KpP1J4QQr8HfSnzExMQwa9YsDh06RO/evcmWLRs5cuQgZ86cQMIv9B988AGlSpVi1qxZ1KxZk3Xr1vHbb78xcuRIsmXLBiQMXFqxYkVGjhyZVPbIkSOpUKECn3zyCVZWVhQuXJiePXtmKq5x48bx+PFjJk6ciFabsGlNmjShbt26Se9fROINtq+vLyVLlgTA1dWVwYMHs3btWn777TcA8ubNS5YsWQgKCmL06NFUqVKFOnXq4Ovry969e5/7S0mioUOHUrhwYaysrBgwYABly5ZNqht7e3vy5cuXtL5hw4ZRsmRJRowYQZcuXTIda6IcOXIwYMAArKysKFiwIBMmTODMmTNs3LgRgCxZsnDs2LGkFjI6nY7u3btz4MCBNAebbdCgAfXr10ev1+Pj44Ovry/z58/nzp07L1bpL8G4ceOIiIjgq6++SmolM2HCBMLDw5k5cyaQkGCJiooif/78AGi1Wj7//HPefffd1x6veD3aVsxHvWI5mbrzEtv+vEd0nIUTt0IZtO4k+Z1sGdyw6JsOUYj0xTyC6FCIe9Jdyxyb8D46FFTGt0ziFTCUo26t7FiuHed69orUqFEj4VXRicDjJ7kaAUYNgJlrC/sz8aiBuhN+4XvffNxY1J8JR5J1u9M8aYcQE03GD9TWkd/Hh8LqNMvHreeqQx28PQ2QtRY+lTQcmjmebQ9NVG9YO8MWJRqNBogh+k09vdtQiqrlbTGf38jqY0/rIfb8OtafeNmDy2vJVakSHrrH+K/cxF+Jp4oKYvuanU9b5byItPZXpo4HKyrWqoRV3FFWLD5O4paroB0s3ngz9ZN8nmEo25B6zrEc/GYc20M8qFc3PzqtC171ihL1ywS+3huFQ92GVDIBaHCuXY/ShsfsXr6Wm4mFqzB+Xb6BKxZnvLzLkPYD3gF9GWpWzYrl0joW73naciPi96WsOp1scFNLAFsnDaL32J+5r7Mnbxkv2g76hoFeJiwPr3Alwy5SQgjxemU6GxAZGYm7uzvu7u54eHjw/fffM3/+fKZNm5Zq3urVqyf9v1y5cpQoUSLp6R/VqlVLMW/ZsmU5cuQIkZGRBAcHc+nSpaRWIonKly+fqRh3795NwYIFkxIriXbt2kW5cuUyVUZye/fuxWw2U7FixRTTK1WqlLS+5Ozs7Cha9OnNk6urK7GxsYSGhmZqfRUqVEjxvlq1apw9e5bw8PAU05PXr7OzM/Xr13/hWNNaF8Dhw4eBhETAuXPn8Pb2Ttrv9erVA+DatWuZij0uLo5jx45lvNGvwC+//EKRIkVwdHRMmpY1a1Y8PDySjkNPT0/s7e3x8vJiypQp3Lx5kzx58uDr6/va4xWvh1YD8zpUoG+9QkzafoFSI7fTffkfeBXNyabe1clqne4loBBv3jflYKIb/Dww4f3JlQnvJ7pBSMAbDe3/U1aaDhtOHevfGeFdm05+XzHt6+F0qVePNv1HsvoSGADL3TV8PtKfmLIDmPRxGep/OZ73HC7wzafTOJ34XFBjfgq76YnZOZJWH3/KnMOP012rvkQDfPJauHY5AJsa3lS1BjTO1PEuRdy1K9zVV6BBXSfSH1pBh2uhAtiYr7Cwxwf0HrWJa6/7Kd6aHLQc1IMS2j+Z3KweHw2bxNcju1P/nfnczf6PGiKnSV++J4MbORLyYy/qvvsp4yZPZFBrLz7Zp8P+76wuzf2VmeNBi+uHQ+lWBE6Mb0ztDwYyYnhf3q3Vk9/sXTMc4wMAqyo09MpK1NUr3MvphXcpPaCjSL26uIZc41qYLbUa1iCxsY+uaA/Gdy9C5La+1Gnciy8njGVgu9q0+vYajk3GMMTHNv11abLRbHB/KlhdZV7rGrTsN5wRA9pSu83PkC9ZpBp7Yv9cxbwvO9Kk05fMmDOLCb1b4rctFvsqTannLIN8CCH+PTL9lW9jY0NAQAABAQHcuXOHQ4cO4evrm2ZLCgcHh1TTAgMDgYQkRuKNtLu7O5s2bcLOzo779+9z9+7dNJd/NpGRnsDAQLJnz57ZTcpUeWnFk7iOxM8TZc2aNcX7xEFSzebMXVU8u3ziep5tNZFR/f7dWJ9dl7+/P02aNKFWrVpcunSJgIAADhw4AEBsbKqnuGc69tchMDCQK1eupDjO3N3defjwIY8ePQIgV65cHD16lDp16jBixAjc3Nzw8vLizJkzrz1e8frotRp61SnAnoF1uDyuMb8P9Wb0uyUl6SH+/QZdgZFhab+y53/T0f1fMhTry+Y9S+lXMYZfZo3g8+Ez2R1Znr5L/Vnj64FWhbBt+BA2B+fH9+sBeBpB49yK8cPrYPhjEp/Ou5LwK7++Al8s+5r3y2k5uWohC3ddJo2HuiYwlqdBvRxoNSYq+9R60rJDR4G6dcmvB33JBvi4ZnRppyFHu2ks6V8fl/vbWTRzHcciXm69ZIZtjXFs/WEMrTzusXnKCMYuO0+xUSsZUs4AaDJI3PwNWjc6f7eThX1roD+6kNEjprHd3JYFs9qSU/u0AUempbO/nns8AJosXkzavpGRLd24v3U2k+fsxtJqIUu75X9+4gNbajasiY1GQ9ZaPk9adoChrDd1nLRorKrS0OvpQKRoHPCe+gvbp3yIx62NTBs9gaVHrfAeuoZ9q7uQ/zkrNJX1Y8vWKXQoFcWvCyfzzeaH1J6xhsEpBjd1pPm321n2aVXi/afzeb+BTPwhiFLdZrNzQz8Ky7MChBD/Iq+tQ7uTU8KggefOncPGJu3Op8HBwSn+TZTZFhNOTk6EhIT8gyhTl5dWPInvEz9/WcLCwrCyskp6n/i0nDx58jx32ReNNSwsLMX7Z9e1atUqjEYjw4YNy1Q3oeeV9zo5OTnh6OiYqnvPs4oUKcKyZcuYPXs2q1atYtiwYTRo0ICbN2+i18tYD0IIIbS49vYnpndan2mwL92BKVs6MCXNZR1osvAG8QuTT9NRoPduwlKUpyFr5U9ZeejTTMRjTcMFdzEvSDlVX3ECF+ImpI7e41P2xzxTrsGDllO20TJ50FnTmA8tBT47RMxn6UeTZvlpLNdgwYNnYrZgVbADcw4PJVvinXr8WcZ9Y0br6ERCww9jGssBxsYsDjSzOPH9szGkEZNFk53aQ37goxmmpGlhGz8kyKLDzSl7QlIik9uS/v563vHwJHy3xoxY25gRKaY2IKZvBgs9Kd+x/WbCnx22zboRC++ZWZjWIvrc1Pl0AXXSPbTSqWMAtOSs1Z+l+/unnNwyig+Tv7cryYdTfuLDjDZaCCH+BV5+m8J0+Pj4AAljKyR35swZevToASS0EihcuHBSd4tEJ06cyNQ6vL29uXz5cqqb8Pbt2yd1cdBqtWi12qRxN86fP5/qqTGJ6tSpg06n4+jRoymmJ7739vbOVFyZdfz48RTvDx8+TIkSJbC3f/4jNl801mfXdejQIYCkbkZxcXFoNJoU45Nk1HojrfIMBkOmuyk9j8FgSIrFbDbz008/JQ3E+iwfHx8uXbpEdHTKAb1Wr16dNMbH/v37kwbjtbOzw9fXlzFjxnD37t038nhmIYQQ4v+DhVtLW1OsSFHKN+zNmBlzmTdzHH3feZfxJwx4ftSRyi+zEV7kIYZUKUThUtX5cMjXfDtvDlOGtse7+xpCczWnazPnl9vCRAghxL/Sa0t8tGrViho1avDFF18kteAICQmhb9++uLm5Jc03cuRIjh07xsyZM4mLi+P69etJTz15Hj8/P2xtbfHz80u6SV63bh2HDx+mSpUqQELiI2/evNy+fRtIeBLKvn370iwv8bGpCxYs4M8//wQSbv4nTZpEmzZtqFy58t+rjHTMmTOH69evExsby/Tp0zlx4kSKgV8z8qKxXrhwgVmzZiXVsZ+fH6VKlaJly5YANG3aNOkpNQARERGMGjUq3fWvWrWKvXv3YrFY8Pf3Z9GiRXTr1u2ltfhwc3MjLCyM8PBwTp06lW43K0gYJNZgMODn55eUHDl37hyDBg3C09MTgL/++osJEyZw7949ICGZcvDgQUqUKIGzs/NLiVkIIYQQz9KSt9MKdi/uTengrUwf0o++g6ew5UEROn+zi23Dy2N6fiGZZ1ONsdt/YsI7WTixbAwD+vZn1KI/sPYZyto9i2mTS9IeQgjxf0Fl4O7du8rNzU3Z2toqjUaj3NzcVKtWrdKc18/PT+XMmVMBysXFRTVq1CjVPI8ePVJ9+/ZVbm5uqnTp0qpcuXJq2rRpqeabPXu2ypcvn7K1tVXly5dX/v7+ClDZs2dXzZs3VxcvXlRubm7KaDQqW1tb5ebmlrTshQsXVLNmzVTevHlVmTJlVNOmTdXly5dTlL927Vrl7u6uSpUqpZo2baoiIyNVz549U8SfGJfFYlFTp05VhQsXVoULF1YeHh7Kz89PxcTEJJVXt25dlSVLFqXT6ZSbm5sKCAhQgwcPVk5OTgpQefPmVZs2bUq3nufMmaMAJpkiowAAIABJREFUdeLECVWzZk1lZ2en8uXLp+bMmZM0z48//qjy5cunAOXo6Kjc3NxUWFhYinKeF+vevXuVm5ub0mq1asCAAeqTTz5RuXPnVtbW1qpJkybq5s2bKcqbOnWq8vDwUHny5FHVq1dXs2fPVoDKkSOH8vPzUxMnTlR58uRRgFq8eLFq2rSpypo1q3JwcFB9+vRR0dHRSimV5v6Kjo5Wbm5uysbGRhmNxqR6K1u2bIq6PHz4sFJKqYiICNWoUSNVoEABVaJECbVx48YMj4NLly6p5s2bK1dXV1W2bFlVo0YNtW3btqTPb9y4oXr16qVKlCihPD09VfHixVXr1q3V9evX091PQgghhBBCCCH+ezRKZfJZq+KVmTt3Lj179iQqKirFGB9CCCGEEEIIIYT4Z15bVxchhBBCCCGEEEKI100SH0IIIYQQQgghhHhrSeLjDWvWrBlDhgwBoGDBgqxateoNRySEEEIIIYQQQrw9ZIwPIYQQQgghhBBCvLWkxYcQQgghhBBCCCHeWvo3HYAQQoi3U3BwMPnz508xLTIyEq1Wm+IJVkopHj9+jJ2dHQARERE4OzsTGRlJWFgYWbJkQaPRJM3/6NEjHBwcCAwMfD0bIoQQQggh/tOkxYcQQohXInv27Ny4cYOQkBBCQ0MJDQ3lyJEjuLi4sHz5cgIDAwkNDeXs2bPUqFEjaR5PT0/++usvtmzZkjQ9JCQk6ZUvXz5JegghhBBCiEyTxIcQQohXZubMmWzevDnp/alTp3B1dWXt2rVUr16dmJiYdJcNCAggOjqa999/HxmOSgghhBBC/F2S+BBCCPHKVKtWjb179ya937hxIytWrOC7776jcePGLFu2LN1l27dvz++//46joyO//PLLa4hWCCGEEEK8jSTxIYQQ4qXSaDRJY3JUr14df3//pJYdlSpVwmg0AtC6devnJjQOHTrE2rVradWqFTVq1MDf3//VBi+EEEIIId46kvgQQgjxyphMJpo3b87ChQsBGD58OLly5QJAq9Wi12c8xna3bt1Ys2YNISEhfPXVV/To0YNHjx698riFEEIIIcTbQxIfQgghXqkBAwbwzTffcO7cuRTTjx49yuXLl4mLi0tzudjYWLJmzYqXlxcajYbq1auzYsUKLBbL6whbCCGEEEK8JSTxIYQQ4pVycHBg6dKlNGvWjDVr1hAfH09AQADz58+nQ4cOfP7552kuZzQa0el0nDlzJmla8q4yQgghhBBCZEbGbYzFv8bevXtTDBAoXr06depQp06dNx2GEG+FqlWrsmPHDsaMGcOQIUNwcnJi3rx5lC1bFp1Ol+LJL3Z2dkn/X7RoEX369MHX15dWrVqh0WhwdnZ+E5sgxMv1+Cq7ln3LvO93cuzqPSINjriV9qLVx33p0bw4WTSZKybm9gFWzvmWFT//zqW/HqFxyEvxGu/SuXcv2pV3+r/4hUvqQGREjo+/K56Hx9Yzb/YSNh08x61gM/a5C1O5SXt69elEDRfDmw5QiBeiUfKMwP+EkSNH8tXiDZjylc5wvmaeecjvZPuaonp77du3j9q1azNy5Mg3HYoQ/zmJA5vKnxfxVhqZ9Z+XEWdm9PJINjqamFrTQLXsGrSxFk5djePrvbGcdDKxtoURz8T7ipFhaRdz4Vua1Z+Bde+pjO7sRXFnI5F3z7Jn1QxGT9qNQ9+VrParSfZMJlGSRN3hWnA28rvY/KPNfD5F6MmVfD15Kdt+v0JgtBmLxoY8xarg3bILPTvVJq8p4xJeWR1k5MprespUwXqvZz2v06Yer3V1cX+dpdmoM1g3qsZorzwUz6YlMiSEPfvPMHrzXzg0rsvq93I/PT5azE1dyMs45/+OdM77v+3Wby8ws4VbW0bhNT6EtsN60at2IVys43kYcJoNyxYz9ud42n09nq/q5kAHkLfyy431ZTr345uO4Knizd50BP/XpMXHf4gpX2my1fggw3k6dqqAdzH5NfSfGjVqlNy0CSGEeCXu/RnDXGsrjr5rwCXxhsukpWJxE2sK6pm9IYpmGzTsbWsgf7o37BFsHT+O0F67+XFwMRJzJHa5y9B0wGJ8mq6k2zutaWnawY6BZXhO/iBJ9NX1DOo8kYcff893nQu/2gvFuAOMen8KjwZMZ+2sahTMZsASHcT147tYObUnVeY3YvHWyTTImV4lvJo6EG+LOLauP0Fowyb82MLh6fHh4EjTZnXwqXiZbuN20dLQhB3vOsrxkVz8n0yffIl3Zy5hXAWrJxN15ChQkR6jy9G0zgyafjaQoXO/ZUJlW15mXlGIV0VadwkhhBBCvEb3wxT2TlrSup/XGHX0ec+aL/NAbEaFWEK5/Vc8hYp7kFaDc6tCH7JwywzqZYkjc2n8WG78OJCGrb/DbdIOvn/VSQ8AnQc1vKzZO6IVlfLnImee/JRtMoB1kbUYuu4AK2rsottnmwlObwNeeh2It4qK5XawhUJ5s6R9fOQuxEK/6tSztsjx8ay4h9wMykWJ/Gmlg3S41P2ULVO8yWU2v/bQhPi7JPEhhBBCCJFM/KkvKW3XkIUPFPG/D6aIbROWpnv3/eKKFNBhvBbH0bQfaARGHR/XMlA0o59Rtbmp26gwv23amW5iwFi4LcO7VcAq7Y+firvN9qGNaT43G6O2b2BgVcfXc4GodeW9bw9x9e5DgoODeHDnEvvnvcv1Lz5i3o1seI0YRpVfv2dnek+wfpl1IN4+GhvqlsvKb7/dSv/4yFOA4fVzyPHxLFMpmlS+yaZdD0n7OWpaXOp24NNqWaS1h3g5Yv3p5ZqNDzfHQOxWuuRwpNNPMS91FdLV5TVZvnw5Y8eO5caNGxQqVIgJEybQtGnT1xrD0aNH6devHydOnCBHjhz07NkTPz+/DJeZPXs2a9eu5cSJE4SHh3Pr1i1cXV1TzHP//n369OnD9u3b0ev1NG/enBkzZpAlS5ZXuTlCiH+7N9Uv+kX1OQpOhd90FOJfL5bdPT1oMPdROjcCmZMrv47Qa2aigerjY8lmA6GRGS/TMG8gWz92SnaDEcsvPd2pP/cuFg7guMyWUvliOHMjPt0yTJVrkuev68SZI3h4L5RYvQuV8t7nt2vJl/mFOs7DAQMuWSDYUIC6fb5hgV8JTo3txmdz9nJT70GN1v1oY7uIAV+fwKVSNs4ffpBQJxoTzroY7qcThqFgKbRXzpCZS1lN2fJM1gbwIOIRm10cmdDvZ/4YXyXZL/cvXgdWDT/G6+IOzsTF8ej+Ax7FG8id08zd++n8aq0vztDfTjG2XCYul83B7Fu2mBHfH+J0lAvthvoxs8Ejxn8wmgV3zMQ8CiYwSmFTtCDx5y9nog6MvLc6hPVt0x5nRYUdY+ZH7Rixz43RR3fSL386qaqY9bTJ1pp1cbmpUszA7VAzMaH3CHxswaZ0WeJPHc/U/tAVGsimmZ5Yl3gfb9en61Ihv/FNv75M2nyWWJcadBg1k/FtC6eZSIhc0wrHdhuIzsT60qPPV46jUyriqVOEXL3IyFVnWHMuHLODE80aVWR849zYnT9ClfFnuGytJy44Fgv3cNyjp5SThTMP0z97rar6ENKCFLFHrmmF46hH/yzmLFq0jywZtuDSZdVROsLMiSeHosFBR65FeVFJ52seKuR5wNEMju+nNGTvvIW7S5qQ5jPQYu/w87x5jF91kFNh1hSs0pChfh/T2iOYhb7d6LvXQolcYRy7ZYZdzdANyY4hPpi087RaXIrbc/dcWNrfi6aaNCtwmB/PPYnb4Iwh7n46ZaWk86hHmb9+4Xi6FWfAPY8i4M6Tsk0NWHBzG12TNaWzBEyntmd/DmRmhegplEtx+V463weGfJTJ8Zggs5lHQWE8MhsoXNKKK2cy+TdBX5Svz7/DwIJpnasWQv5YzMgRM1jzawDm3OVo1mcs4/vUxO7AIKo0ncG1fCUwnz355HzVks1JQ2hgOrGaqtO8zG3+uBOfyfNdh0sZB+6eCkx3W7QuPdl17VvqJjuonntO611w1/xFwJP6N1QYz6kjQyimAxX0Bxv8LdRuVYkcryl7JomP12D79u107tyZCRMm0LhxY1auXEnLli05cuQI5cuXfy0x3L9/n/r169O4cWPmzp3LqVOn6NatG7a2tnzyySfpLhcVFUXjxo1p1KgRQ4YMSfW5UooWLVrw+PFjduzYQUxMDB9//DGdOnVi06ZNr3KThBBCiNfISN2ZVwnK6oyV/ulVWnRgLB3WxJK1hjVfldLh+OSaNv5ONJV3aVjT0URBDdw/Hsl7j03sq6XDgGLL5ghWFrJjZREL01dGcaayLYuLap4mNyxmJi2LJqaxDSM/cnrmV1UjXjMDiPr6EIPKj8Jj61Z6uuogVYP9eP4YVpnBTuvY9VkhQncNo9Ooc3ScMpQeTcvjfGc63k1vMfrYJKo+0xdAWeKJun+C7wb14d16eiwFerP05HLcYy6wffYXfDblLh/uCGJKTSOa2MQ4fqa7iw5timDNXJ/RgMYBIzg9rVaaXQ6Si9nUnvwbW3FtZSvsDfFs6ZCPFe9cZ12qBMDfqYMi6ALW8WmXGQT1msuQj+pTNHw1HzSYRYFFOxlTzT6hnh+vpV3xHXS4vIR37TJxqazC2TXuc3wvV2HSrCW8Y9pO/Y/W8atPP0YsHY3zsBmsMrZjSFcv6rjboTFbiL2wghqfBDNqXT8aJn+Ej/kSI1rNx2HGJAbWTzvpYbn3M/0afcLZusP4aXprquXTgorg/MapTJi1hj1/3uGxzonCVd/hoz4FiLdty5pry2mpPc+iHj1ZZRrMkIHvU6dwNjTx5gy7eTzdHy24MbEG3Y6Xw2tIsYQBLdUD1vZsx/Ick9l1tRbGk/Po/XFTBuX4g5l17VOVZdN6FYFx3VFGXdINiIp8wKSv/fnBrTJLW7tT2PZJXcTdonvfc9SYXJ8OdhrMt07gtdyK1UOL46GDB8cP4rMonNZdfLgwxJ6YG9eZuPAXvG5WY2Heh1jqNyOsfQ40cfcYNPAYHsMa09NJA6nGb1P88f1GBmfxYVezbKkSNjatVxF4whGl1zyNOcbMpHVR/JDTxNLaegqbnsRsjqf7rFhqdLehgxWYH8bgtVvD6nZGrK9EUeugllUdTZTSJavfi1EU+FPPlfcMWAMPT0ZS/Y6RP5voeVT1QzonO1/zmCzEW1LGr4KW0bz0aiovn8RH1UqS21oDaNDo9GknPWKu8k3Xz1nh0plZm/0oZxPI3u9n0eeDzwj4tg2XzxVlzrFJdLAzE3P5O+oOiOGb9V0obdCk/A5S4Xzfox1bW2xiRQMd1zf48c6NkZycVivlejVatBpF3PlJ1O0UxTf7h6cu69kQk465llgpS+pdZrnOjPrv8WDCb4ytaMRy8UnZB0dRwSZlyVr3fvgfzcsz1UbkvpkUXZCFb/2aUKeoE3ZJuQgNz36HxJ5dSfXxRpasaEuJB4cZMGwLQe/3ZEiLcpRy0GI2q8x1ldJoMaSZ9FA82NYXn08CaD1tPRd+cCPmzEYm9n0frzMzWFjiDyzdfyX0qwqouEi2fFSQlY0vsPI9W7TPFBf7x3Cq97Nmyf7hlFVnWdD9Oee7CuX71sXZ+uF1VjQ3odWk/gaN3dmDYvNrcmx9R3I8c1DZtF5NWPM0vkMefU/rMnv5+OJ8GhgVQUtbUP1YP/6cXR/bJ8e/+fYWxo+Ow71FJXK8poyEdHV5DSZPnkzjxo0ZPHgwpUqVYuLEiZQuXZrp06e/thgWLFiARqNhyZIllClTho4dO9K7d2+mTJmS4XIDBw5k8ODBVKlSJc3PDx48yOHDh1m0aBHVqlXDy8uLGTNmsHnzZq5evfoqNkUIIYR4I7SWg/gtiWanAit9wstgUUQbNIQFxNJ5RSTDryuMerDSJTzhyPhkPpMOtNqEf406DQYt6HRgCI5n5R3FvoPRfBWg0OsS5jHpNeg1oNdp0KdxtabVGzGaDOg0WvRGEyaTEZPJlOpl1GsT5g3ewICBf9Jy+XrGvV+ZvHZ69EY9Wo0Ow5N5Lff/4OfNh7mrMWFlbYuDew16DmtOzDFFi0EdqeiSnRz5q9Fh0mI+r2RMWK8xeRxWWFslW3f0RdYNaULDMX8QrzMkTDdGcWpBD+pX9KRsrQ+YfDCUiN8n06pKBRr038gNixaNzoDJoHtuE/oXrQOTNoAFvcYQ3ncd3w9pjmcuG6wKfcTiJfXw7/kJWwKfxGgyoEOLwWhAl4lfIuMvbmLI0UqsnN+VNkWzYuPiQr7IMIJVPCcWTmeew0dsHN+cBgWyYtLpMBoVh9ft4NzjSyyZ78+fUXpMRkPSS6fVoDcY09zvqCB++PxzLn+0hW1TOlMjny1aojg2oSkfrDTR7ttfufogiDun1jOo9AXGNfmEH2K0GExwZkp35jmNYePCvjQo5oRJp8eY6f1hpEj1ijzc9ysPEu9yIvawfm8FPh/3HsVz5qBg/aEsHe7BltWH027doI1my9wf+PKqBiuDLuGlsxBpMWIdfIORU36izY8PidLrsDJq0Wk0GAz6hPn0WrRaDSa9Fh5dY8CcC9ywcaJusWxk0+lwzpuDMtn1PDxyiO7+4ZgBrU6L0ZBQjl6vxaTXYjLonnlpMeo0aHU6TGntbG00W356zJd3n57zVlpFpAWsw+MZuS6SNofNRD35TKcBg+7JfDrQasCkV+w9E8/NoDgG74rjgvnJOf7kpdEkfi+ASQsaLRii4vjsmfNVZ0h+fFv465ev+bDeQHZHPuDk+rG0qlyLPusCwGTEmObBE8+Z+eMYdsSMe6UKVMhpwmCXh/Kl8uHAZSb1n8+BKAANOr0Bk1GHFi1GkxGrZMen+a/DjOvRk/6/xqLTG7EyGTHq4a/v/Bi+/Q4q+flnNGAwGDE9+a4xWllhleljzoDRmPp8NpmMGLQJ3zdWpmRlG/Vp3NhqMRiexm7ShHNkzWzqfrmf4Ee3+Wn5dKp/MJ2Fl+MxGg2YjMnORV0kxzfOw7v/z1xROky6hywas4bwDz/ne98qeDoZ0ZlP0bfDcn7TJFsHD9n09UiK1fqQnI2G0G19ANGGhO+0NE/pwI0M6LaYG1nLUrdmYbIZrHAuUZEyLtY83NSP7ktuYAbQ6jGaTBh0GnQGK6ytk9WJLozji/vg3XoWV5Qek8nCqclpnO/J6tF8czvjWtem/85odAYTVlamFJ8nvQw6NFoDJlMa9avVp72MyYBWq8NoMmFlMmHSa9HojBgz8b3+Kkni4xVTSnHkyBG8vb1TTPfx8eHQoUOvLY5Dhw5Rq1YtjManqTofHx9u3brFrVu3/lG52bJlo0KFCknTErf1dW6fEEL8U7dv36Zr165MmDCB7t278+hR6oEFzpw5Q/PmzZk0aRJdu3Zl9uzZSZ/t27ePHj16MHr0aIYPHy5PhvoP0zpV5v3uzShuo0HrXI323ZtSzEoDBk+qZjezLdmfzYPH4rCubsOP71mz8wMjkYdi2PYC7eL1uU2c9rPjsI+W3Vui2fhP2tSny8L1lXO51mY8XQun8Ttw3B12jWlCybIN6eA7jf2PFGAm/OpOvvZbxE3TfQ4euEVSI3utDbY2GVy+qjBOf9cfL88WLLfqy4rRib8CKx5u7Eu3HeWYdegcZ37+hMcT6lNz8E267zjKkhrb6Tfm90w1g/874o8vYjG9GPeeC09/dNeQrfZ4VvV+wMCOs7j0wmM1Ku79cYbwylWpZP3MR9Enmbs9F1/09XzmcboGyrT7lGUDvXG7uIIGXVdyNCpza7PcWs2cs+8yrmexpNYJlr++Y+jEQ1w98C2DPx3D+gvRWDmX4b1RP7D767rYa4DIPcxd78EXI+omi+XF9oexyjvUubSJH+88aQyv1aPXmIm3PC3PHBeP0cqUzs2NLRULmdh7IjjpWAo/cZbVeSqze3A9No7yod3No0y6nPFOsIRbKPHhO2z0vMVH317mRkwYy7/ZzlSbyhyd4EnOh495eUNu2lLRRcPeK+anMV+JY7WjFbvbWrOxkzXtHsQw6XZGZWh4v409Yf1s6BgTQ5fDT8tKT8CZuHTP18eXNzOiaWmqDT5Hja+H09ChEj3mbubI7oFEjunB3GvpdFZQkQTb12fNOl+YMZSRxyIIOjKPdz4/x3vzv2NlzWguRWTwdyvqFpunfIbnBysIafol0xokbx+jJWdZdy4NqkTBym0ZsmAfN9P8LntT3wFx3Dq8iQ/aDKDrkdx82a8GzgVrM23qRA4Mysb84Rs4nnTQmHlwchu+H3xGl8O5GT22BSW1YD6/m8U0YpyP49PvD50zbtoz7Ew6ZhV/bZ7PkLs1+HHXd1yf1xzbjZPpvj003VYhlqA4Sozbzcb6O/mo6/fciLzM8k7NmJp1EkcPfkHOG7cyOJ7jeXB4Dr7VKtJldwFGLx5ISR3pnO9PRF5m84h38PSZREibFUxr/qofW55JOldqd/alfn4d6Nyp93FXvN11z1/uBUji4xULDw/n8ePHODunfMRszpw5uXfv3muL4969e2nGkPjZPyk3sZxE1tbW2Nvbv9btE0KIf6pPnz506tSJIUOGUKVKFcaMGZNqnpiYGHr37s3nn3/OnDlz+OKLL4iJiSEmJoauXbsydepURowYwc2bN9m6desb2ArxMmhdGjNkSi+q2YHW7V2GT+1BZRtA40jjkjr8j8fx8Mm8rs46ClgnNJDWWOvpktfMiiuZbPqcuD6tBjsDWMXF8eG0CCqsi2Fb2IuVARD/107GtatKwVzZcXBypXjt9kw9GIJS4Rz69R5VvYql6uOsos8y5z0vPrvQhGXLfMlfrTHejnH4f1IUj+q9+DnXCPyPz6fQvNqUbdSZwavPZ3hTGXVxLf29StFodgydNx9nx/gWFEpMkqhgfl5+jDqfd6eUnQadUy38Jg9l0PiRNM5phcf7k/i42KN/dNOabh1g4eavBzHUroPLs83Db/zMzOWXcalYnGyZuTKOuseJy2FJcSoFkZHRqfrGm6+c5EhuT2pnefbOQ0POElV5v00bZiz+mgnZNlGlbBOc6vXHd+UFgjMYMCDi0D5uVPGmdPI+Q/G5aTByKZs2LWVI+dN83tyPfZEARgq1b09NI5jP7eVIXi9qOySL5UX3h00dPmwSwIrvLydMs/Fh6NLeVHzy4I/401N5f9RdWravmk6XJi0eVfLjcPgC+57cFFvldKKckyHhuNTa8p5XNnbsvZfhuCM6l4IMqZOLuu3qMSjuKF79tzLFpjJbe3jg7lKUQdWs073BiQ++zbgpmynYZSkOnb6j+DB/pl6IyeBc0+JRzIDDuTj2Pbkbt3LQUi7rk64vGi3veWrZcSr+uWOlWBnB3gBn9j0m96xIep8wE5bmihWHblhSn69Rl9nk15CSlQdystI3/PbH9/SvlZvEnnf6vC3wbRDEqfPppA00WajduR2NPBuzYKInP/XpROVB52n57SQGlcmJd/dWVEmzf4yZm3vm06R+d768VYWlP81jZstCZE1RyRrsKn3GDxeuc3B6K7L9+ine3TcTkqpn0Yt+ByiCDs2gS52i5HF0wDF3Yaq2Gsm2O5kfaSn+/knGf/opnkOP4dpjLCdnt6Wxa2JyToNTpfq8Z7rJmQiFCr/Kgi8/x3PgYRy7jubYjPfwzqUHFHePncdQoVTK7w9dbnwqWdjx6+2kmONjzeQsUZxi9kayF6zBNL9K/LnxEH+lE7KuSDuGdKxO3VHfMyh6OF6lGzIlywS2zm2Be9EuDGqTK+2WImHHWeBbFc92G3AcvItjG77AO2/CDkzzfCeem9tG0KR0Tb683oClv//KzA6lU+7H6Cts+KI55d1z4uCQA7cy9fFdeIoM87IqnFNL+tKglCtODtlxzl+Bdz5dy5XMDEeToiIK03bs13QqrQddcT6c+BUdSr7cPjCS+HiDNJp/xzjIryqOf8v2CSHE8yil2LFjB1WrVgWgevXq/Pzzz6nmq1ChAj4+PkBCCxEXFxeMRiN//PEHuXPnxsbGJsPlxX+dBsciRt4LimHM9YTERPFK1kwr/PTvnZUeboepF7p5j70XQ6sdCt/O9oT0t2F6fgsjV0ezJeIFCjGfY1rbXhwu/xV7rgUS/NcJVna15fTRB1gI42FwVpwcU1/2We4d4kKpOfh/14P8t85irFiJHBojdWdcJvDeFQ4s8qWsR2NmHP6d7we+SxUPhwyaKisiAw7if7s6UzfOonOZrM/MayY+PuXVv12ZNnxUJ3fCBanGmRZtvUjrAZr/vA4UgQ+CcXDKnuLiN/bMbJp7Dea+7xZ2TfRO8xHDz4o7/wPtp/5OOAAaclesQMmY0FRPDlEhoYTaZyVbRmXqspE7u5GiH03iyrKmRC2ezfzr6d3UWQi+H0iWnE4k/x1U6/YO/Qe8T73qXnwwdgH9nfew83zCXYfGxhYbDaigB4Rmc3omlhfdH9bU6uOLdsF4fgpSoMlCyQb1KPykpYvOowFdGmjYNHcbD9PJJGhzFGZg8b8Y+mMgUYCxSDk2tcudlCjRGrREBEXwODNZP60WK70Wu9JV+bm7Owljruooki8Laf5ObAlh2uT9HC5QmT1zOhG8sBUrfQycvhyV4eCU2mwGBrrFM/SQOSFmVxOb6uiexqyHiEfqOTErNm6JYkl2a659Yc+fbYzkPBdFi8PmNFs3BEZpUp2vltBzbP/xPGWm7WHz8Ea4PXuiqECuBtjj5vq8X8k16I1G9FpXes6ZyMBSCTtQm9uDYvZpHaxx3D19lHNuXVg/uTXV0vgeSaK1w61qawaN60K+y+e4l6piX+yYs9xeykcdNpDr85+4+CCEe+d+YLDHJX67kdlvWEXEzT/54XQW/BaMYlIDV2yfnSXyHtfNTuSz0aAe32Hv0VhajhnMBJ88JG8LERIcjoOD3TM3zzrKNa+D8ecd/K+9Ow+P6e7/P/6cJZnIMglNs6hdUWuppYi1qlRwo6raUqWUWopS1aqIpa2lKVXciqql3xv9ld4t0RuVhobyDc3JAAAgAElEQVTgTgm1tLZaUiH2SAhNMr8/cptmE5RkkunrcV25LnPmc855f86cM855z2fZ/L9uQmU6D+STJ33s5VwfLk/F06c5cbtcjdEFN4sJz1ZhhP+zExkfYzGqVK+Y6/lsSzxI5KZrdPnsKz54pnKWWNPP5Xa93yA+5nv2VxzLVwuH0Ngv+1ZT2BrShXdPBPPp9pNcOH+crf/sSHJMbB7nto2L4UN59pM0Xlm2h/gLZzm8cTIN47bzy90mPgqAEh/5zMvLCw8PD86cOZNleUJCQo4WGPkpICAg1xiAe4ojICDAvp2brl27xpUrVwq0fiIi9+LSpUuYTCbM5oxfF6xWa47vtsymT5/Oiy++yMyZMzEYDCQkJGSZyep260sRZjYxuq2ZzauvMe9stvds6fx4PB1fL0PuD163sGXXH5QKstDtQQMebkaa1C3GmuZGTly5823Yzmzi+wudeGdYM0q7GzFYHqROz4+Z/NyDGLDygM9FErLNAGB8sCVD567h2w+ewNeQzqmTZwgo+1DusVv8qdmqM50fz/3XxwwGHmgzg42fVWHR84NYdTzbI53BlzZdqxAe8h4b41Jy/ZXdbDb/5T7geR8DAyV8fTifkHXWAqN3aapVKY2PKzkGQLxlLd1csSQm2ltmmB95ju/CWhOYLXCDtxWvyxdzJERuXL3G9f8tS/1tLVN/8OeV56riU6olH41oTPFbHgADXt6eJF28xQwagC3pCIfPB1DKP+unZCjxAF4XErLG8hc+D1OV15jyzG7eHLqS7D+6G7xq0nvOBzSOmMu/z9ziYBpcadP9capu2shrW69ke+hP59f9Z0j2dsfjjk4CC4+1a8X6V28mPTIYyX3wTNuleL5PKsc7HQIpbTFgcHGjTvPGTG5S7DbnnIE2Ld2ouucar+1Pz5Go+PV4GskehjxjTr/yB59eMDO1sYlSrgb8/cyM6+5Ou7T0XFuKlHCz5bxeA//BPyOXUHdVf976T3zW5Grqfhb268OaR8czsNbtfyW3lGzKR0snM6JG5v5ZBgy5XtxuPP76x6x8IoY+w79l/22749k4tzmSuKq1KZv9y+Quz7nr29axs8mbhLR7GC8TuBSvSqcPpvNqxTt9hDXgU/9Fvp8VxH8nz2V5XNan8fT4rYx4az2e/TrT3AWMAU1ZvLAnxnlTGbMt63Xm7ePB+Qs5Z3AxlWvLuPp7GL3wMNcAg0cgDSr9mfS1JSaR6O5BrjmlLKH68Njg5ayfczPpkcFoyP18NpbuzuKN72N8vxtjNiZk/V7L7XrHncffXcfKdhvp0+sz9mdvxpF2iO9/8OLl0D7U87dgMLrzUONBzB73FLfuDJPK7v9spvKQiTxbowQuBhNe5Z/k7VkjqH+7kawdQImPfGYwGGjYsCHff/99luUbNmygcePGBRZH48aN2bx5Mzdu/Dnc1IYNGyhdujSlS5e+p+1eunSJmJgY+7KbdS3I+omI3AsfHx/S0tJITc24KUpMTMzRjS+z4cOHExERwRtvvMHevXvx8/PLMibI7daXos1a1o1VTxiYuTSZl7amsuuKjdRUG5uiUgiNg+jtN4jOa+7KbFL+yOjuktmDlVx4+i66XhuKV6Cc7TAHz2W+/XUjILAERoOVpk+W4odV0SRnXsnjUbq+3JyS/7vJdnE1k3L12l13sckWCb7NQ1k5qw5fvdyL+fuSM23PSOmXF7KowxHGNKtA9WEb72ma0Bx7zusYYKRcqxakrvk3+zM9uZrLdOTDb5fw3KlJPNt7Fjvy6mdyc52KDWh5fjUh/z5GYh7FTZXr0ezUFr6Jz3xEU4icPIQ2s/eRcGE/U979kivPvUr/ckbAgF/L5rTMPlbInzXEp3FTfKM2sDe3ZgKpu5jafji/9Xmfl0pl+126+lM0O/FvvjmZ5fHoL3we7jQKWcSrp0bQYfgafs/+q26xAAKs10i6duuzyOBTjtmjanB56be0mLeP9SdTSElL5beYHbyy+hLJu3Yz9+Qd/KJvcKVa9QcJuMOnGYOnF+VsiRxMzBybiYDilts+EBk8zMzu5srl76/SIvwG68/aSEm38dvBFF6JTif5yA3mZk+EZpYK1w3ZEqImI8/XMOXSLchA0wrGnNcrYPRtztgV03n06wEMXn7EnkDDXI0+C77j64lP3tHUoC6B1Wla4ZYnWjbpXDqVSPmXJrKkzX6GDFrK9jxOfFvCGt754CTPD34ylwfmuzvnXMpX5MFjv3Iy83lm9qdkjtYKeTHgVa09X0xsQMzUWcw9+GfCxRjYmLA5Y/mk9YMZn831i8SZajNj5gt4fzGN19YncMOWsY2HGtYkNXI7+7Of8wZ3Wg/rR+OImQzccC5baz8bp6JjOVenBpVv2xDHm2rN6xJwp1VLOU2cuTUzVk3Ae2Z3Xvvq2P9iBVON3K53wODFY0OXs6TTDoZ0n8r2S5neNwZSscxFDh66kuk720DxwEBuPaSTiTIPl+bUL4eyfI6mgJL439/hOe4LJT4KwMiRI1m7di1Tpkxh7969jB49mj179jBs2LACi6Fv376kp6fTu3dv9uzZw9KlS5kzZw4jRoywl9m1axdNmjTh8OHD9mWnT58mNjbWvmz//v3ExsZy8eJFIKM5d6NGjejbty9bt27lhx9+YOjQoXTq1ImKFSsWWP1ERO6FwWCgTZs2REdHAxAVFUVwcDAAycnJnD2bcUf79ddfc+rUKQDc3Nzw9/fn2LFj1KtXj/j4eK5evZpjfXFOFWoUY9tLrlQ5e4Oe85Mo/mESA44ZmdzHk+9qpDFsQxqX7jCD0KCSiegt1/khc9cWo4FSnncRULEnGT3Wyoynh7E+R0sRI+VfHsfTUYPo9+lPnM+1CbKZ8tUq8ltMLFfvYre34l7jVZYsfZ59b7zA5OiLf95IGx4g6I0v2Hb0FPtntMoxfeg9yfMYgLn2YMZVX0bv15dzIPODm0tJWr2znOVDXFjQqydTIk/nPbiipTqT5ryE7zehVGrwD7xrd8CzVjCedZ+jStdQ3vr6EOfTAbfajOrryoyRnxEed3McCTdaj3yD9vs+pNpT77Ox5jD+Pazan83v3fyp8OCtb89NlXrzZq2VDBq7kTPZP0dzbYav38l3I+rmbM7v3pJRIy3M6DmG8N+u3dvnUaw2I75eyUsn3qBJq6HMjzzC5VSwXY9nyyeTWFXiH7Qrk/cjhnvZ6qyc2oYBHqeZOOVL/Houpcn/XaLFa8+wf6gfK/+5k+13kTy8I66lGN3NlRkTt7L+DgeTzRKzvysr+xVjQLE0Jq5Iwm9yEk0i0mnR0YP9nU2sXH2d7bdo3m/0NtM67Qbj96RzJdP3QqDVmGsLq3K1Lbe+Xt2q0OOfC+h+eBwD5+4mr/FI74s/dvJO5xd4+dtrlGv/Fiv6XWfS4FmsO/vnNeTiYiLp7GkSfl3FiH8M5cjL8xhVJ9cBQ+7qnDM/9jrvP/YVnV9eTvydD+uR+7YC6jPt/Q78seSfTNl5JZdWUzbiVoVRvfdyfnKvwlthA2myeRa9vjzOVcBUJZhxD2+m9/s/ciDbQTdYH2Xq9M5c+/hdOs7cxJbfr5GWfp3j0V/SZ3E6A1+s+te78OUqnbjPXqB6y/H85NmQt1bMpcnafvT69OeM7+9bXe8AuFK+21xWvHGNSc+/xbqb/ZEMvjwTOohzbz3NxB13OryskfJ9JtF5Rx+6zPn1Pg4qnD+U+CgAbdu2ZdGiRSxYsIC6deuyZs0aVq5cSd26dQsshoCAANavX8/Ro0dp0KABo0ePZuzYsQwdOtRe5vLly2zZsoWkpD/vvGbNmkWdOnXo168fAG3atKFOnTr2vusGg4Gvv/6ahx9+mKeeeorOnTvTrFkzFi9eXGB1ExG5H2bNmsXnn3/OpEmTiI6OZuzYsQAsWrSIcePGAWCxWBg1ahSTJ0/mjTfeoFq1ajz99NNYLBbmz5/PsGHDCAkJoWzZsrRr186R1ZEC4OXrwph/uLP3DS+ujPbiQE83XvY38FijYsytZsBoxj44ockEbqY/myy7mgz26TMfqOrG51XTefvzq0y9+auxwYCXK7jmdadmcMXN3Q2L2QCYKP/CEv67fRpPev1ZJGPKWTN4NeP9r6dQIbwXNf0fIKD2aH7M9mDp9UQn6kUvY+352z1JmbG4uWO5+VO1wQWLmwXXbNOBmkt1YPqKd3jo7BmMdzjul6GYBw94udsHHnT38sXTI4+DcDfHwODHP2avYoRlAZ0qPYjvQy2Y9nPGrfqlL7pS59OyfPJlKA9HfkusmwfF8gi5WIUnmLF4EWdivuFy7GqS9oSTFPN/bJ/xDI8cjGVXmjGjlckzb/Gvjpd5v+cL+NZ/kS5fJWCzVmPkPz/nXMwXRIxunLU7gMGCp3vG9KC519eXDh8v4fnDg3i04qM0qNuMsVE3P0hDLjOquOJmLYbFYKJc7yX864WzvN+qDL6+5eiy8ESeY1tA9s8j03LvegxdFcOawSXYHBpM5RJe+JRqwpsxjZm7fChV7uDXXqOXLz1fbMWPs14i8V+9+X16W6Y08qZkjQasfPEhPFxNuNzcscmIm4spx+C8uTG7mCjmYvxfzCbcXG9OVWugfNOW/HdKQ57M1NjBbDb97/y5g5iLmej5RDF+HOxF4jte/D7AnSlVjZQsZ2FlKxMeZjLFnHHNmw2A0cjILhYCfr5K/dWp3LzTNrmCT6Z9G29+T7ia8r5ejQ/S/N35vBl4jrNexbhFiuHuGFywuLnar2OD2QU3N1dcXB9j0sqlLOhgxYAB34Z9WfFuJa6cuXmMjZTqMpSOBwZQrdWHXOmzkm9G1iZLJxpzxlS8d3KYs5xzBn+enr6Fnz7rSqD9a8CMi6vFfo3c1bY9KzIktCe1r13E7OaSLelkoFTn4cQu6EY9E2ApSc/xw+nrfoELBsDgzT/efZsRrhvo9HQPfFuOYdrBTMmfMi35vyXD6JSylRF9XsWnfi+CZvxOu0kjGVD6rz9ymy1uFLO42L8TXVzdcXUxUar3UmI3vEs9M+BWmZ7zl9LX81RGrNzuejfg23wcKz6sxZVTRvv17VZzEN/sjOStzP1UXFwpZnG5ZdLAYA1ibMQu/t23yp/H0+CCazHLn+PguGZMiezo0R8NNs23VySEhoYy4/tD+DR5Ic9yC3rV48mqGlvjXo0fPx6bzUZoaKijQxEpcm4ObKz/XsQphXo7YJ+XC2hHNzgWvYO0R5tQsZDMcFgoHd5YMPt5uFUeb6aTfOYY8TeKU6Z08fvz4FsQvh7g6Ajy1nluzmWOuObh/l/3J7ff3+1lVvrx/Nv2vdr/raMj+FO1jo6OoNBI3T2OBj3+YN6u9zOSNwWggHYjIiIiIoWbK+UaNXF0EHJHjHj4V+BhR4chIvIXmB8dz86fC3ifBbs7uRfXT/7M5S3/yrPM0qRItjx4N52CJTeRkZE0b97c0WGIiIiIiIjIPVLio4ho0aLFHZdV8/J717x587s65iIiIiIiIlI4KfFRRLRo0UIP4iIiIiIiIiJ3SYObiojIfaXBTUVERESkMNF0tiIiki8uXLiAj49Plj9XV1fc3NyyLPP29sZsNttfm81mSpUqBUB6ejqTJ0+mXLlyBAQE0L9/f5KTk1m1ahV+fn5UrlyZ4sWLZ/nz9PTEzc2N119/3cFHQEREREQKA7X4KCIiIyOJjIx0dBh/K+peJPLXZG7xcfnyZaxWq33Zzp07efbZZ5k+fTrt2rXDbDYTFxdHjx497N9x9erVIyYmBoB+/fphMBiYPn06RqORMWPGEBMTQ+PGjalZsyYvvvhijv1/8803REVFMW3atIKpsIiIiIgUahrjo4iIjIwkctEkWpTTR3Zf+D4MNbre8u1NmzYBdzeorIjk9Mknn1C9enU6d+4MwO7duylVqhRffvkl7733Hps3b77luj/++CMRERHUrl0bd3d30tLSOHz4MGlpacybN49PPvmkoKohIiIiIkWYnqKLkBblzIS2sDg6DOdQpQY8H3rLt8ePH6/xCUTug8aNG/PNN9/YEx+rVq1i6dKllClThvHjx7N48WLatWuX67o1a9Zk+/bthISEMHHiRA4cOEDDhg0ZOXIklStXtpc7evQoQ4YM4fDhw1SuXJnWrVsXSN1EREREpGjQGB8iIpJvgoKCiIiI4Pr16wA0aNAAV1dXAJ599lk2btx4y3V9fHzw9fUlLCyMmTNnUqlSJd555x1cXV3p2LEjkDEGSLdu3Xj77bf59ddfCQkJYfLkyflfMREREREpMpT4EBGRfGOxWOjUqRMLFiwAYOzYsQQEBABgNBoxm2/f8PDQoUMMHDiQCRMm2Jd5e3sDcOzYMUqWLEmTJk0AqF+/Pq+99tr9roaIiIiIFGFKfBSAjRs30r59ewIDAzEYDHzxxReODknykJqayoYNG/jwww9xd3enVatW/PLLL3muc+XKFYYPH07ZsmUpVqwYjz/+OFFRUTnKLVmyhMqVK2OxWKhRowarV6/Or2qIFBpvvPEGM2fOZP/+/VmW//e//+XQoUP88ccfea5fq1atLEmPzHx9fbly5UqWZTVr1ry3gEVERETEqSjxUQCSk5OpXbs2s2fPdnQocgfGjh3LTz/9RHBwMFFRUVgsFlq3bk1ycvIt1+nbty+rVq3i008/ZdeuXTz11FO0adOGI0eO2Mv85z//4eWXX+aVV14hJiaG9u3b06VLF3766aeCqJaIwxQvXpxFixbRsWNHVqxYQWpqKseOHWPevHn07NmTUaNG/eVtW61WHnroIT766CP7spszyIiIiIiIgBIfBaJjx45MmjSJLl26ODoUuY2UlBRmzZpFs2bNqFq1Ko899hhffPEFZ86cYfny5bmuc+3aNVauXEloaCht27blkUceYeLEiTz88MNZZp348MMPadeuHW+99RY1a9Zk8uTJ1KpVixkzZhRU9UQcplGjRqxbt47vvvuOypUr061bN2bOnMmQIUNo2bKlfdwPAE9Pz9tuz83NDYslY7DnJUuW0KlTJ/t7Li4uWbYnIiIiIn9vmtVFJJM9e/aQlJREhQoV7MtKlCjBY489xtatW3nllVdyrJOamkpaWhoeHh5Zlnt4eNi7u9hsNrZt28akSZOylGndujX/7//9v3yoiUjhU7FiRRYtWpRj+cCBAxk4cKD9dWRk5G23NWbMGPu/jUZjlmu2Xbt2t5wpRkRERET+ftTiQyST06dPAzl/cfbz87O/l52XlxdBQUFMnTqVEydOkJaWxrJly9i+fTvx8fFAxhggycnJ+Pv73/F2RURERERE5N4p8SFyh/IaN2Dp0qVYrVbKlSuHxWJh6tSpdOrUCZPJdE/bFRERERERkXujxIdIJjen2UxKSsqyPCEhIUdrjczKly9PREQESUlJnDhxgl27dpGSkkL58uWBjFYhHh4enDlz5q62KyIiIiIiIvdGY3yIZFKrVi08PT05evSoPSFx4cIFdu7cSb9+/W67vru7O+7u7hw9epT169czZcoUIKNVR8OGDfn+++8ZNmyYvfyGDRto3Lhx/lRGxNFCvQtmP73XQtmggtmXiIiIiBQ5avFRAJKSkoiNjSU2NhaAEydOEBsby8mTJx0cmWTn5ubGoEGD2Lx5MwcOHGDnzp306NEDf39/unfvbi/XpEmTLIOSrl69moULF7J161aWLl1Ky5YtqVatWpYBG0eOHMnatWuZMmUKe/fuZfTo0ezZsydLIkRERERERETuLyU+CsC2bduoU6cOderUATJmI6hTpw7jx493cGSSm0mTJlG3bl3Cw8MJCgoiJSWF9evXZ5m1ZcuWLfz+++9Z1ps8eTItW7Zk5MiRtG3bloiICNzc3Ozvt23blkWLFrFgwQLq1q3LmjVrWLlyJXXr1i2wuomIiIiIiPzdqKtLAXjyySex2WyODkPukNlspnXr1jz55JOEhobmWib759mhQwc6dOhw222/9NJLvPTSS/cjTBHJJi4ujtDQUCpWrMixY8eYNm0aVqs1R7moqCiGDx9Or169GDx4sH15REQEK1asoGLFihw8eJBp06ZRvHjxgqyCiIiIiOQDtfgQERGnMHjwYHr16sXbb79Nw4YNmThxYo4yqampHDt2jKCgrGOCpKen8/zzzzNlyhRGjRrF448/TkhISEGFLiIiIiL5SC0+ipBNx9MYv+m6o8NwDnv3wcFbdzWKjIykefPmBRiQiNwLm83GunXr+OqrrwAICgpi2rRpTJs2LUs5s9lMjx49iImJybL8woUL3LhxAx8fHwAqVKjARx99VDDBi4iIiEi+UuKjiGjRogUA6jBzH+XR/ah58+b2Yy4ihd+lS5cwmUyYzRn/rVmtVhISEu54fV9fXwIDA/nll1945JFH2LZtG5cvX86vcEVERESkACnxUUS0aNFCD+IiIrfg4+NDWloaqampmM1mEhMT8fPzu6ttrF27lvnz5+Pv74+npydly5bNp2hFREREpCBpjA8RESnyDAYDbdq0ITo6GsgYwDQ4OBiA5ORkzp49e9ttXLhwgffee4/XX38db29vevXqla8xi4iIiEjBUIsPERFxCrNmzSIkJIRNmzZx/PhxwsLCAFi0aBH79u1jzpw5AMybN48dO3Zw5MgR/P39efbZZ+3LTSYT5cuXJzU1lTfffNNhdRERERGR+8dg0zyrIiJyHxkMBiDntM8iIiIiIo6gri4iIiIiIiIi4rSU+BARERERERERp6XEh4iIiIiIiIg4LSU+RERERERERMRpKfEhIiIiIiIiIk5L09mKiEi+SEhIoEqVKjmWJyYmYrVa7a9NJhNpaWlZyty4cYP09HRq167NL7/8ctt9dezYkcWLF9970CIiIiLidDSdrYiI3Fd5TWebkJBA1apVCQsLo3379vj6+ua6jQ8++IAbN24wbtw4Lly4QIkSJbK8f/LkSVxdXfH397//FRARERERp6KuLiIiku/S0tKYPXs2QUFBuLq6cvnyZZo2bcrWrVuzlDt58iRdu3ZlwYIFQEbLj+Dg4CxlXn31VZ566ikaNGjAsGHDCqwOIiIiIlI0KfEhIiL5atu2bdSvX5+oqCiio6Px9PRk6NChfP3117z33nsApKam8uGHH9KiRQu6d+/OhAkTAHB1deWPP/7g/PnzQEaLkZiYGA4cOMDBgwfZt28fmzdvdljdRERERKTwU+JDRETyzbJly+jSpQuhoaEsW7YsS9eWSpUqcfXqVQC6d+/O1q1b2bFjB127ds2yjc6dO7N8+XIASpQoQZMmTQCwWCwMGTKEjRs3FlBtRERERKQoUuJDRETyTadOnWjTpk2OsTxSUlKYMGEC3bp1A+C9994jLS2N9PT0HNsYMGAAc+fOJTk5GbPZzMyZM+3veXh4cOXKlfythIiIiIgUaUp8iIhIvilWrBifffYZq1evJiIiwr7cZrPRpUsXXnvtNQACAgKYPXs2AwYMIC4uLss2HnjgAYYMGcKgQYNybH/nzp3UrVs3fyshIiIiIkWaEh8iIpKvjEYjH3zwAfv27eO7774DMhIijz76qL1M+fLlSU9PZ/78+YwaNYrDhw9n2carr76Ku7s7L7/8sj0xsmfPHlasWEHHjh0LrjIiIiIiUuQo8SEiIgViyJAhXL16lQcffDDHe4cOHaJMmTKUKFGCBQsWsHPnzhxlZs+eTdOmTencuTPlypWjf//+LFy4EC8vr4IIX0RERESKKIPNZrM5OggREXEeBoMByOjOci/S09MxGpWfFxEREZF7oztKEREplJT0EBEREZH7QXeVIiIiIiIiIuK0lPgQEREREREREadldnQAIiLipEK9736doXugeNn7H4uIiIiI/G2pxYeIiIiIiIiIOC0lPkRERERERETEaSnxISIihU5cXBx9+/blgw8+oH///iQmJuZaLioqivr16zNr1qwsyzdt2sSAAQOYMGECY8eOveepdUVERESk6FLiQ0RECp3BgwfTq1cv3n77bRo2bMjEiRNzlElNTeXYsWMEBQVlWX79+nX69u3LRx99REhICCdOnGDt2rUFFbqIiIiIFDJKfIiISKFis9lYt24djRo1AiAoKIjw8PAc5cxmMz169MixPCYmhsDAQNzd3fNcX0RERET+HpT4EBGRQuXSpUuYTCbM5oyJx6xWKwkJCXe8fkJCAlar1f76btcXEREREeeixIeIiBQqPj4+pKWlkZqaCkBiYiJ+fn53vL6fn1+WMUHudn0RERERcS5KfIiISKFiMBho06YN0dHRQMYApsHBwQAkJydz9uzZPNevV68e8fHxXL16Ncf6IiIiIvL3Y3Z0ACIiItnNmjWLkJAQNm3axPHjxwkLCwNg0aJF7Nu3jzlz5gAwb948duzYwZEjR/D39+fZZ5/FYrEwf/58hg0bRkBAAGXLlqVdu3aOrI6IiIiIOJDBpjn+RETkPjIYDACaQlZERERECgV1dRERERERERERp6XEh4iIiIiIiIg4LSU+RERERERERMRpKfEhIiIiIiIiIk5LiQ8RERERERERcVpKfIiISIFJS0tj/PjxlC9fnkaNGhEfH8+oUaMoXrw4bm5uuLm5Ubx4cfuf1WrFxcWFp59+2tGhi4iIiEgRpcSHiIgUmKFDh3LmzBn27NnDiy++yOLFi5k6dSrnz5+nWrVqREREcPHiRftfdHQ0bdu25bvvvnN06CIiIiJSRCnxISIiBeLcuXPExMQwZ84cvLy88PX15dKlSwAkJSVRt25d3n33XdasWePgSEVERETEmZgdHYCIiPw9HDlyhEqVKuX6ntVqZf78+Vy7do2WLVuyfPlyLly4wKhRowo4ShERERFxNmrxISIi+WbmzJnExMQAULp0aQ4fPpxn+WLFijFgwABKlizJtGnTGDRoUEGEKSIiIiJOTIkPERHJN6dPn+b3338HoGTJkqxcuTLXcjdu3LD/e/ny5fTu3Zvq1avz+OOPF0icIiIiIuK8lPgQEZF80ytEerUAAAfdSURBVKxZM+bOncuVK1eAjORHdqmpqTzyyCPEx8ezYMEC/Pz8qFq1KgAdOnQo0HhFRERExPlojA8REck3bdu25dChQ9SrVw/ISHKkp6dTr149+zKz2cyUKVNo2rQp1atXZ+nSpfb1S5cu7ZC4RURERMR5GGw2m83RQYiIiPMwGAwA3Oq/F5vNxs8//8yAAQNo1qwZkydPvuW2Dh06xJgxY/jyyy/zJVYRERERcX5KfIiIyH11u8RHZjabzV5eRERERCQ/aIwPERFxGCU9RERERCS/KfEhIiIiIiIiIk5LiQ8RERERERERcVqa1UVERPJHqPedl30nHlzd8y8WEREREfnbUosPEREREREREXFaSnyIiIiIiIiIiNNSVxcRESk0Nm3axLJlyyhZsiR//PEHEyZMyDHzy/Xr13nzzTcJDAzk8OHDjBgxgmrVqgEwb948YmNjCQgI4MCBA8yfPx9PT09HVEVERERECgmDzWazOToIERFxHjcTFbZx1jtf6Z14rttM1KhRg927d+Pu7k6vXr3o1q0bwcHBWYrOmDGDK1euMHbsWI4ePUr37t3ZsWMHKSkpBAQEcO7cOcxmM3369CEoKIhXXnnlflZPRERERIoYdXUREZFCISYmhsDAQNzdMwY5DQoKIjw8PEe58PBwgoKCAKhQoQJxcXEkJCRgNpvx9PTk8uXLACQmJlKrVq2Cq4CIiIiIFErq6iIiIoVCQkICVuufrUSsVisJCQl3XM7Pz48ZM2bw/PPPU7ZsWSwWC4888kiBxC4iIiIihZdafIiISKHg5+dHYmKi/XViYiJ+fn53XO6XX34hJCSE8PBw5s+fT7ly5Rg3blyBxC4iIiIihZcSHyIiUijUq1eP+Ph4rl69CkBUVJR9fI/k5GTOnj0LQHBwMFu2bAHg6NGjlCpVCj8/P06fPo23tzcuLi4ABAYGkpKS4oCaiIiIiEhhosFNRUTkvvqrg5vi6k5kZCT/+te/CAgIwGaz2Wd1mT17Nvv27WPOnDlcv36dkSNH4ufnx9GjR3nzzTepVq0aNpuN4cOHYzQaKVGiBHv37iUsLIyHHnoon2oqIiIiIkWBEh8iInJf2RMf+u9FRERERAoBdXUREREREREREaelxIeIiIiIiIiIOC0lPkRERERERETEaSnxISIiIiIiIiJOS4kPEREREREREXFaSnyIiEi+Sk9PZ/LkyZQrV46AgAD69+9PcnIyq1atws/Pj8qVK1O8ePEsfyaTieLFi5OYmOjo8EVERESkiFPiQ0RE8lX//v05evQo+/bt47fffsPDw4Onn36aHTt2MH36dA4ePMjFixftf0ePHsXPz4+LFy9itVodHb6IiIiIFHFKfIiISL758ccfiYiI4Pz587i7u+Pi4sLhw4dJS0tj3rx5OcovWbKEJk2akJyc7IBoRURERMQZKfEhIiL5pmbNmmzfvh1/f38mTpxIz549adiwIT/88EOW1hx79+6lWbNmhIeHExkZib+/vwOjFhERERFnYnZ0ACIi4rx8fHwACAsLo3Tp0gwcOJB33nkHgI4dOwIQGxtL69atmTdvHp07d3ZYrCIiIiLinNTiQ0RE8t2hQ4cYOHAgEyZMsC/z9vYGoHbt2vTr14+EhARHhSciIiIiTkyJDxERyXe1atXKkvTILDU1lTFjxnD16lXCwsIKODIRERERcXbq6iIiIg41e/Zsdu/ezcKFC1m6dCkTJkzAZrM5OiwRERERcRJq8SEiIg7h5uaGxWJh4MCBfPzxxwD07NmTunXrcu7cOQdHJyIiIiLOwmDTz2oiInIfGQwGgHtqtZGeno7RqNy8iIiIiNw73VWKiEiho6SHiIiIiNwvurMUEREREREREaelxIeIiIiIiIiIOC3N6iIiIvkj1Dvv98s0hD7rCiYWEREREfnbUosPEREREREREXFaSnyIiIiIiIiIiNNSVxcREXG4jz/+mISEBJKSkmjWrBnPPPNMjjJxcXGEhoZSsWJFjh07xrRp07BarcydO5eFCxfi7u4OwG+//UZYWBhdu3Yt6GqIiIiISCGkxIeIiDhUbGws3377LRs3biQ9PZ2aNWvSvHlzfH19s5QbPHgwI0aMoGnTpnz++edMnDiRadOmUb16dVavXo2/vz8A7du3p0OHDo6oioiIiIgUQurqIiIiDhUeHk5QUBAARqORRx99lIiIiCxlbDYb69ato1GjRgAEBQURHh4OQNOmTe1Jjy1btlCvXj0sFksB1kBERERECjMlPkRExKESEhKwWq3211arlYSEhCxlLl26hMlkwmw237IMwNy5c3nttdfyN2ARERERKVKU+BAREYfy8/MjMTHR/joxMRE/P78sZXx8fEhLSyM1NfWWZU6ePImbm5u99YeIiIiICCjxISIiDhYcHMyWLVsASE9PZ/fu3TzxxBMAxMfHk5KSgsFgoE2bNkRHRwMQFRVFcHBwlu3MmjWLQYMGFWzwIiIiIlLoGWw2m83RQYiIiPMwGAwA2MZZ8y5YpiH0WQdkzOpy6tQpkpOTadGihX1Glueee47OnTvTvXt34uLiCAkJoUKFChw/fpywsDB7F5mrV6/So0cPVq1alX8VExEREZEiSYkPEREREREREXFa6uoiIiIiIiIiIk5LiQ8RERERERERcVpKfIiIiIiIiIiI01LiQ0RERERERESc1v8HOOPbFfdFE0gAAAAASUVORK5CYII=;" parent="1" vertex="1">
          <mxGeometry x="-160" y="370" width="918.5" height="170" as="geometry" />
        </mxCell>
        <mxCell id="79CWCTIytuqyBhmsyid--5" value="&lt;b&gt;&lt;font style=&quot;font-size: 20px;&quot;&gt;(a)&lt;/font&gt;&lt;/b&gt;" style="text;html=1;strokeColor=none;fillColor=none;align=center;verticalAlign=middle;whiteSpace=wrap;rounded=0;" parent="1" vertex="1">
          <mxGeometry x="230" y="550" width="60" height="30" as="geometry" />
        </mxCell>
        <mxCell id="79CWCTIytuqyBhmsyid--7" value="&lt;b&gt;&lt;font style=&quot;font-size: 20px;&quot;&gt;(b)&lt;/font&gt;&lt;/b&gt;" style="text;html=1;strokeColor=none;fillColor=none;align=center;verticalAlign=middle;whiteSpace=wrap;rounded=0;" parent="1" vertex="1">
          <mxGeometry x="230" y="800" width="60" height="30" as="geometry" />
        </mxCell>
        <mxCell id="79CWCTIytuqyBhmsyid--8" value="&lt;b&gt;&lt;font style=&quot;font-size: 20px;&quot;&gt;(d)&lt;/font&gt;&lt;/b&gt;" style="text;html=1;strokeColor=none;fillColor=none;align=center;verticalAlign=middle;whiteSpace=wrap;rounded=0;" parent="1" vertex="1">
          <mxGeometry x="240" y="1245" width="60" height="30" as="geometry" />
        </mxCell>
        <mxCell id="79CWCTIytuqyBhmsyid--9" value="&lt;b&gt;&lt;font style=&quot;font-size: 20px;&quot;&gt;(c)&lt;/font&gt;&lt;/b&gt;" style="text;html=1;strokeColor=none;fillColor=none;align=center;verticalAlign=middle;whiteSpace=wrap;rounded=0;" parent="1" vertex="1">
          <mxGeometry x="230" y="1019" width="60" height="30" as="geometry" />
        </mxCell>
      </root>
    </mxGraphModel>
  </diagram>
</mxfile>
